{
.appVersion = "3134";
.formatVersion = 3;
DisplayStrings = (
"Aa Bb Cc Dd Ee Ff Gg Hh Ii Jj Kk Ll Mm Nn Oo Pp Qq Rr Ss Tt Uu Vv Ww Xx Yy Zz
1234567890
.!@&?.

For one thing, time is the very thing hat we re least willing to allow.

Build Business
Build People
Build System"
);
customParameters = (
{
name = vendorID;
value = AMMP;
},
{
name = panose;
value = (
0,
0,
4,
0,
0,
0,
0,
0,
0,
0
);
},
{
name = unicodeRanges;
value = (
0,
1,
2,
29
);
},
{
name = codePageRanges;
value = (
"1252",
"1250",
"1254",
"1257",
"1258",
"bit 29"
);
},
{
name = blueScale;
value = 0.037;
},
{
name = glyphOrder;
value = (
.notdef,
space,
A,
Aacute,
Abreve,
uni1EAE,
uni1EB6,
uni1EB0,
uni1EB2,
uni1EB4,
uni01CD,
Acircumflex,
uni1EA4,
uni1EAC,
uni1EA6,
uni1EA8,
uni1EAA,
Adieresis,
uni1EA0,
Agrave,
uni1EA2,
Amacron,
Aogonek,
Aring,
Atilde,
AE,
B,
C,
Cacute,
Ccaron,
Ccedilla,
Cdotaccent,
D,
Eth,
Dcaron,
Dcroat,
E,
Eacute,
Ecaron,
Ecircumflex,
uni1EBE,
uni1EC6,
uni1EC0,
uni1EC2,
uni1EC4,
Edieresis,
Edotaccent,
uni1EB8,
Egrave,
uni1EBA,
Emacron,
Eogonek,
uni1EBC,
F,
G,
Gbreve,
uni0122,
Gdotaccent,
H,
Hbar,
I,
Iacute,
uni01CF,
Icircumflex,
Idieresis,
Idotaccent,
uni1ECA,
Igrave,
uni1EC8,
Imacron,
Iogonek,
Itilde,
J,
K,
uni0136,
L,
Lacute,
Lcaron,
uni013B,
Lslash,
M,
N,
Nacute,
Ncaron,
uni0145,
Eng,
Ntilde,
O,
Oacute,
uni01D1,
Ocircumflex,
uni1ED0,
uni1ED8,
uni1ED2,
uni1ED4,
uni1ED6,
Odieresis,
uni1ECC,
Ograve,
uni1ECE,
Ohorn,
uni1EDA,
uni1EE2,
uni1EDC,
uni1EDE,
uni1EE0,
Ohungarumlaut,
Omacron,
Oslash,
Otilde,
OE,
P,
Thorn,
Q,
R,
Racute,
Rcaron,
uni0156,
S,
Sacute,
Scaron,
Scedilla,
uni0218,
uni1E9E,
T,
Tbar,
Tcaron,
uni0162,
uni021A,
U,
Uacute,
uni01D3,
Ucircumflex,
Udieresis,
uni01D7,
uni01D9,
uni01DB,
uni01D5,
uni1EE4,
Ugrave,
uni1EE6,
Uhorn,
uni1EE8,
uni1EF0,
uni1EEA,
uni1EEC,
uni1EEE,
Uhungarumlaut,
Umacron,
Uogonek,
Uring,
Utilde,
V,
W,
Wacute,
Wcircumflex,
Wdieresis,
Wgrave,
X,
Y,
Yacute,
Ycircumflex,
Ydieresis,
uni1EF4,
Ygrave,
uni1EF6,
uni1EF8,
Z,
Zacute,
Zcaron,
Zdotaccent,

glyphs = (
{
glyphname = .notdef;
lastChange = "2022-12-26 08:50:41 +0000";
layers = (
{
hints = (
{
horizontal = 1;
place = (-123, -113);
place = (-123, -113);
type = Stem;
},
{
horizontal = 1;
place = (343, -113);
place = (343, -113);
type = Stem;
},
{
place = (3, -113);
place = (3, -113);
type = Stem;
},
{
place = (407, -113);
place = (407, -113);
type = Stem;
}
);
layerId = m01;
shapes = (
{
closed = 1;
nodes = (
(3,0,l),
(417,0,l),
(501,476,l),
(87,476,l)
);
},
{
closed = 1;
nodes = (
(15,10,l),
(95,466,l),
(489,466,l),
(409,10,l)
);
}
);
width = 665;
}
);
note = ".notdef";
},
{
glyphname = A;
kernLeft = A;
kernRight = A;
lastChange = "2022-12-26 08:50:41 +0000";
layers = (
{
hints = (
{
horizontal = 1;
place = (-123, 21);
target = up;
type = BottomGhost;
},
{
horizontal = 1;
place = (73, -79);
place = (73, -79);
type = Stem;
},
{
horizontal = 1;
place = (574, -20);
target = down;
type = TopGhost;
},
{
place = (-79, 429);
place = (-79, 429);
type = Stem;
},
{
horizontal = 1;
place = (505, -54);
place = (505, -54);
type = Stem;
}
);
layerId = m01;
shapes = (
{
closed = 1;
nodes = (
(342,697,o),
(306,697,qs),
(297,697,l),
(-79,0,l),
(-23,0,l),
(81,196,l),
(383,196,l),
(417,0,l),
(473,0,l),
(348,663,ls)
);
},
{
closed = 1;
nodes = (
(308,628,l),
(375,240,l),
(103,240,l)
);
}
);
width = 640;
}
);
note = A;
unicode = 65;
},
{
glyphname = Aacute;
kernLeft = A;
kernRight = A;
lastChange = "2022-12-26 08:50:41 +0000";
layers = (
{
hints = (
{
horizontal = 1;
place = (-123, 21);
target = up;
type = BottomGhost;
},
{
horizontal = 1;
place = (73, -79);
place = (73, -79);
type = Stem;
},
{
horizontal = 1;
place = (574, -20);
target = down;
type = TopGhost;
},
{
horizontal = 1;
place = (638, 17);
place = (638, 17);
type = Stem;
},
{
place = (-79, 429);
place = (-79, 429);
type = Stem;
},
{
horizontal = 1;
place = (505, -54);
place = (505, -54);
type = Stem;
}
);
layerId = m01;
shapes = (
{
closed = 1;
nodes = (
(496,901,l),
(443,901,l),
(311,761,l),
(351,761,l)
);
},
{
closed = 1;
nodes = (
(417,0,l),
(473,0,l),
(342,697,l),
(297,697,l),
(-79,0,l),
(-23,0,l),
(81,196,l),
(383,196,l)
);
},
{
closed = 1;
nodes = (
(103,240,l),
(308,628,l),
(375,240,l)
);
}
);
width = 640;
}
);
note = Aacute;
unicode = 193;
},
{
glyphname = Abreve;
kernLeft = A;
kernRight = A;
lastChange = "2022-12-26 08:50:41 +0000";
layers = (
{
hints = (
{
horizontal = 1;
place = (-123, 21);
target = up;
type = BottomGhost;
},
{
horizontal = 1;
place = (73, -79);
place = (73, -79);
type = Stem;
},
{
horizontal = 1;
place = (574, -20);
target = down;
type = TopGhost;
},
{
horizontal = 1;
place = (648, -92);
place = (648, -92);
type = Stem;
},
{
place = (48, -86);
place = (48, -86);
type = Stem;
},
{
place = (310, -87);
place = (310, -87);
type = Stem;
},
{
horizontal = 1;
place = (505, -54);
place = (505, -54);
type = Stem;
}
);
layerId = m01;
shapes = (
{
closed = 1;
nodes = (
(429,771,o),
(490,815,o),
(505,901,c),
(469,901,l),
(458,837,o),
(411,802,o),
(339,802,cs),
(269,802,o),
(233,836,o),
(244,901,c),
(207,901,l),
(192,817,o),
(235,771,o),
(333,771,cs)
);
},
{
closed = 1;
nodes = (
(417,0,l),
(473,0,l),
(342,697,l),
(297,697,l),
(-79,0,l),
(-23,0,l),
(81,196,l),
(383,196,l)
);
},
{
closed = 1;
nodes = (
(103,240,l),
(308,628,l),
(375,240,l)
);
}
);
width = 640;
}
);
note = Abreve;
unicode = 258;
},
{
glyphname = uni1EAE;
kernLeft = A;
kernRight = A;
lastChange = "2022-12-26 08:50:41 +0000";
layers = (
{
hints = (
{
horizontal = 1;
place = (-123, 21);
target = up;
type = BottomGhost;
},
{
horizontal = 1;
place = (73, -79);
place = (73, -79);
type = Stem;
},
{
horizontal = 1;
place = (574, -20);
target = down;
type = TopGhost;
},
{
horizontal = 1;
place = (648, -92);
place = (648, -92);
type = Stem;
},
{
horizontal = 1;
place = (842, 17);
place = (842, 17);
type = Stem;
},
{
place = (48, -86);
place = (48, -86);
type = Stem;
},
{
place = (310, -87);
place = (310, -87);
type = Stem;
},
{
horizontal = 1;
place = (505, -54);
place = (505, -54);
type = Stem;
}
);
layerId = m01;
shapes = (
{
closed = 1;
nodes = (
(532,1105,l),
(479,1105,l),
(347,965,l),
(387,965,l)
);
},
{
closed = 1;
nodes = (
(429,771,o),
(490,815,o),
(505,901,c),
(469,901,l),
(458,837,o),
(411,802,o),
(339,802,cs),
(269,802,o),
(233,836,o),
(244,901,c),
(207,901,l),
(192,817,o),
(235,771,o),
(333,771,cs)
);
},
{
closed = 1;
nodes = (
(417,0,l),
(473,0,l),
(342,697,l),
(297,697,l),
(-79,0,l),
(-23,0,l),
(81,196,l),
(383,196,l)
);
},
{
closed = 1;
nodes = (
(103,240,l),
(308,628,l),
(375,240,l)
);
}
);
width = 640;
}
);
note = uni1EAE;
unicode = 7854;
},
{
glyphname = uni1EB6;
kernLeft = A;
kernRight = A;
lastChange = "2022-12-26 08:50:41 +0000";
layers = (
{
hints = (
{
horizontal = 1;
place = (-296, -26);
place = (-296, -26);
type = Stem;
},
{
horizontal = 1;
place = (-123, 21);
target = up;
type = BottomGhost;
},
{
horizontal = 1;
place = (73, -79);
place = (73, -79);
type = Stem;
},
{
horizontal = 1;
place = (574, -20);
target = down;
type = TopGhost;
},
{
horizontal = 1;
place = (648, -92);
place = (648, -92);
type = Stem;
},
{
place = (48, -86);
place = (48, -86);
type = Stem;
},
{
place = (169, -66);
place = (169, -66);
type = Stem;
},
{
place = (310, -87);
place = (310, -87);
type = Stem;
},
{
horizontal = 1;
place = (505, -54);
place = (505, -54);
type = Stem;
}
);
layerId = m01;
shapes = (
{
closed = 1;
nodes = (
(429,771,o),
(490,815,o),
(505,901,c),
(469,901,l),
(458,837,o),
(411,802,o),
(339,802,cs),
(269,802,o),
(233,836,o),
(244,901,c),
(207,901,l),
(192,817,o),
(235,771,o),
(333,771,cs)
);
},
{
closed = 1;
nodes = (
(473,0,l),
(342,697,l),
(297,697,l),
(-79,0,l),
(-23,0,l),
(81,196,l),
(383,196,l),
(417,0,l)
);
},
{
closed = 1;
nodes = (
(103,240,l),
(308,628,l),
(375,240,l)
);
},
{
closed = 1;
nodes = (
(139,-173,l),
(196,-173,l),
(213,-76,l),
(156,-76,l)
);
}
);
width = 640;
}
);
note = uni1EB6;
unicode = 7862;
},
{
glyphname = uni1EB0;
kernLeft = A;
kernRight = A;
lastChange = "2022-12-26 08:50:41 +0000";
layers = (
{
hints = (
{
horizontal = 1;
place = (-123, 21);
target = up;
type = BottomGhost;
},
{
horizontal = 1;
place = (73, -79);
place = (73, -79);
type = Stem;
},
{
horizontal = 1;
place = (574, -20);
target = down;
type = TopGhost;
},
{
horizontal = 1;
place = (648, -92);
place = (648, -92);
type = Stem;
},
{
horizontal = 1;
place = (842, 17);
place = (842, 17);
type = Stem;
},
{
place = (48, -86);
place = (48, -86);
type = Stem;
},
{
place = (310, -87);
place = (310, -87);
type = Stem;
},
{
horizontal = 1;
place = (505, -54);
place = (505, -54);
type = Stem;
}
);
layerId = m01;
shapes = (
{
closed = 1;
nodes = (
(387,965,l),
(308,1105,l),
(255,1105,l),
(347,965,l)
);
},
{
closed = 1;
nodes = (
(429,771,o),
(490,815,o),
(505,901,c),
(469,901,l),
(458,837,o),
(411,802,o),
(339,802,cs),
(269,802,o),
(233,836,o),
(244,901,c),
(207,901,l),
(192,817,o),
(235,771,o),
(333,771,cs)
);
},
{
closed = 1;
nodes = (
(417,0,l),
(473,0,l),
(342,697,l),
(297,697,l),
(-79,0,l),
(-23,0,l),
(81,196,l),
(383,196,l)
);
},
{
closed = 1;
nodes = (
(103,240,l),
(308,628,l),
(375,240,l)
);
}
);
width = 640;
}
);
note = uni1EB0;
unicode = 7856;
},
{
glyphname = uni1EB2;
kernLeft = A;
kernRight = A;
lastChange = "2022-12-26 08:50:41 +0000";
layers = (
{
hints = (
{
horizontal = 1;
place = (-123, 21);
target = up;
type = BottomGhost;
},
{
horizontal = 1;
place = (73, -79);
place = (73, -79);
type = Stem;
},
{
horizontal = 1;
place = (574, -20);
target = down;
type = TopGhost;
},
{
horizontal = 1;
place = (648, -92);
place = (648, -92);
type = Stem;
},
{
horizontal = 1;
place = (973, -93);
place = (973, -93);
type = Stem;
},
{
place = (48, -86);
place = (48, -86);
type = Stem;
},
{
place = (268, -87);
place = (268, -87);
type = Stem;
},
{
place = (310, -87);
place = (310, -87);
type = Stem;
},
{
horizontal = 1;
place = (505, -54);
place = (505, -54);
type = Stem;
}
);
layerId = m01;
shapes = (
{
closed = 1;
nodes = (
(442,984,o),
(394,977,o),
(354,970,c),
(358,940,l),
(408,951,o),
(473,960,o),
(486,1029,cs),
(497,1092,o),
(444,1126,o),
(368,1126,cs),
(353,1126,l),
(347,1096,l),
(362,1096,ls),
(413,1096,o),
(458,1078,o),
(450,1030,cs)
);
},
{
closed = 1;
nodes = (
(429,771,o),
(490,815,o),
(505,901,c),
(469,901,l),
(458,837,o),
(411,802,o),
(339,802,cs),
(269,802,o),
(233,836,o),
(244,901,c),
(207,901,l),
(192,817,o),
(235,771,o),
(333,771,cs)
);
},
{
closed = 1;
nodes = (
(417,0,l),
(473,0,l),
(342,697,l),
(297,697,l),
(-79,0,l),
(-23,0,l),
(81,196,l),
(383,196,l)
);
},
{
closed = 1;
nodes = (
(103,240,l),
(308,628,l),
(375,240,l)
);
}
);
width = 640;
}
);
note = uni1EB2;
unicode = 7858;
},
{
glyphname = uni1EB4;
kernLeft = A;
kernRight = A;
lastChange = "2022-12-26 08:50:41 +0000";
layers = (
{
hints = (
{
horizontal = 1;
place = (-123, 21);
target = up;
type = BottomGhost;
},
{
horizontal = 1;
place = (73, -79);
place = (73, -79);
type = Stem;
},
{
horizontal = 1;
place = (574, -20);
target = down;
type = TopGhost;
},
{
horizontal = 1;
place = (648, -92);
place = (648, -92);
type = Stem;
},
{
horizontal = 1;
place = (861, -90);
place = (861, -90);
type = Stem;
},
{
horizontal = 1;
place = (954, -91);
place = (954, -91);
type = Stem;
},
{
place = (41, -93);
place = (41, -93);
type = Stem;
},
{
place = (310, -87);
place = (310, -87);
type = Stem;
},
{
place = (320, -91);
place = (320, -91);
type = Stem;
},
{
place = (48, -86);
place = (48, -86);
type = Stem;
},
{
horizontal = 1;
place = (505, -54);
place = (505, -54);
type = Stem;
}
);
layerId = m01;
shapes = (
{
closed = 1;
nodes = (
(377,1077,o),
(357,984,o),
(442,984,cs),
(492,984,o),
(534,1031,o),
(547,1105,c),
(515,1105,l),
(505,1051,o),
(476,1017,o),
(447,1017,cs),
(385,1017,o),
(402,1109,o),
(325,1109,cs),
(271,1109,o),
(229,1067,o),
(216,994,c),
(246,994,l),
(256,1046,o),
(283,1077,o),
(318,1077,cs)
);
},
{
closed = 1;
nodes = (
(269,802,o),
(233,836,o),
(244,901,c),
(207,901,l),
(192,817,o),
(235,771,o),
(333,771,cs),
(429,771,o),
(490,815,o),
(505,901,c),
(469,901,l),
(458,837,o),
(411,802,o),
(339,802,cs)
);
},
{
closed = 1;
nodes = (
(417,0,l),
(473,0,l),
(342,697,l),
(297,697,l),
(-79,0,l),
(-23,0,l),
(81,196,l),
(383,196,l)
);
},
{
closed = 1;
nodes = (
(103,240,l),
(308,628,l),
(375,240,l)
);
}
);
width = 640;
}
);
note = uni1EB4;
unicode = 7860;
},
{
glyphname = uni01CD;
kernLeft = A;
kernRight = A;
lastChange = "2022-12-26 08:50:41 +0000";
layers = (
{
hints = (
{
horizontal = 1;
place = (-123, 21);
target = up;
type = BottomGhost;
},
{
horizontal = 1;
place = (73, -79);
place = (73, -79);
type = Stem;
},
{
horizontal = 1;
place = (574, -20);
target = down;
type = TopGhost;
},
{
place = (-79, 429);
place = (-79, 429);
type = Stem;
},
{
horizontal = 1;
place = (505, -54);
place = (505, -54);
type = Stem;
}
);
layerId = m01;
shapes = (
{
closed = 1;
nodes = (
(502,901,l),
(459,901,l),
(337,796,l),
(253,901,l),
(209,901,l),
(330,752,l)
);
},
{
closed = 1;
nodes = (
(417,0,l),
(473,0,l),
(342,697,l),
(297,697,l),
(-79,0,l),
(-23,0,l),
(81,196,l),
(383,196,l)
);
},
{
closed = 1;
nodes = (
(103,240,l),
(308,628,l),
(375,240,l)
);
}
);
width = 640;
}
);
note = uni01CD;
unicode = 461;
},
{
glyphname = Acircumflex;
kernLeft = A;
kernRight = A;
lastChange = "2022-12-26 08:50:41 +0000";
layers = (
{
hints = (
{
horizontal = 1;
place = (-123, 21);
target = up;
type = BottomGhost;
},
{
horizontal = 1;
place = (73, -79);
place = (73, -79);
type = Stem;
},
{
horizontal = 1;
place = (574, -20);
target = down;
type = TopGhost;
},
{
place = (-79, 429);
place = (-79, 429);
type = Stem;
},
{
horizontal = 1;
place = (505, -54);
place = (505, -54);
type = Stem;
}
);
layerId = m01;
shapes = (
{
closed = 1;
nodes = (
(349,862,l),
(433,755,l),
(476,755,l),
(357,908,l),
(183,755,l),
(227,755,l)
);
},
{
closed = 1;
nodes = (
(417,0,l),
(473,0,l),
(342,697,l),
(297,697,l),
(-79,0,l),
(-23,0,l),
(81,196,l),
(383,196,l)
);
},
{
closed = 1;
nodes = (
(103,240,l),
(308,628,l),
(375,240,l)
);
}
);
width = 640;
}
);
note = Acircumflex;
unicode = 194;
},
{
glyphname = uni1EA4;
kernLeft = A;
kernRight = A;
lastChange = "2022-12-26 08:50:41 +0000";
layers = (
{
hints = (
{
horizontal = 1;
place = (-123, 21);
target = up;
type = BottomGhost;
},
{
horizontal = 1;
place = (73, -79);
place = (73, -79);
type = Stem;
},
{
horizontal = 1;
place = (574, -20);
target = down;
type = TopGhost;
},
{
horizontal = 1;
place = (827, 17);
place = (827, 17);
type = Stem;
},
{
place = (-79, 429);
place = (-79, 429);
type = Stem;
},
{
horizontal = 1;
place = (505, -54);
place = (505, -54);
type = Stem;
}
);
layerId = m01;
shapes = (
{
closed = 1;
nodes = (
(529,1090,l),
(476,1090,l),
(345,950,l),
(385,950,l)
);
},
{
closed = 1;
nodes = (
(349,862,l),
(433,755,l),
(476,755,l),
(357,908,l),
(183,755,l),
(227,755,l)
);
},
{
closed = 1;
nodes = (
(417,0,l),
(473,0,l),
(342,697,l),
(297,697,l),
(-79,0,l),
(-23,0,l),
(81,196,l),
(383,196,l)
);
},
{
closed = 1;
nodes = (
(103,240,l),
(308,628,l),
(375,240,l)
);
}
);
width = 640;
}
);
note = uni1EA4;
unicode = 7844;
},
{
glyphname = uni1EAC;
kernLeft = A;
kernRight = A;
lastChange = "2022-12-26 08:50:41 +0000";
layers = (
{
hints = (
{
horizontal = 1;
place = (-296, -26);
place = (-296, -26);
type = Stem;
},
{
horizontal = 1;
place = (-123, 21);
target = up;
type = BottomGhost;
},
{
horizontal = 1;
place = (73, -79);
place = (73, -79);
type = Stem;
},
{
horizontal = 1;
place = (574, -20);
target = down;
type = TopGhost;
},
{
place = (169, -66);
place = (169, -66);
type = Stem;
},
{
horizontal = 1;
place = (505, -54);
place = (505, -54);
type = Stem;
}
);
layerId = m01;
shapes = (
{
closed = 1;
nodes = (
(349,862,l),
(433,755,l),
(476,755,l),
(357,908,l),
(183,755,l),
(227,755,l)
);
},
{
closed = 1;
nodes = (
(473,0,l),
(342,697,l),
(297,697,l),
(-79,0,l),
(-23,0,l),
(81,196,l),
(383,196,l),
(417,0,l)
);
},
{
closed = 1;
nodes = (
(103,240,l),
(308,628,l),
(375,240,l)
);
},
{
closed = 1;
nodes = (
(139,-173,l),
(196,-173,l),
(213,-76,l),
(156,-76,l)
);
}
);
width = 640;
}
);
note = uni1EAC;
unicode = 7852;
},
{
glyphname = uni1EA6;
kernLeft = A;
kernRight = A;
lastChange = "2022-12-26 08:50:41 +0000";
layers = (
{
hints = (
{
horizontal = 1;
place = (-123, 21);
target = up;
type = BottomGhost;
},
{
horizontal = 1;
place = (73, -79);
place = (73, -79);
type = Stem;
},
{
horizontal = 1;
place = (574, -20);
target = down;
type = TopGhost;
},
{
horizontal = 1;
place = (827, 17);
place = (827, 17);
type = Stem;
},
{
place = (-79, 429);
place = (-79, 429);
type = Stem;
},
{
horizontal = 1;
place = (505, -54);
place = (505, -54);
type = Stem;
}
);
layerId = m01;
shapes = (
{
closed = 1;
nodes = (
(385,950,l),
(305,1090,l),
(252,1090,l),
(345,950,l)
);
},
{
closed = 1;
nodes = (
(349,862,l),
(433,755,l),
(476,755,l),
(357,908,l),
(183,755,l),
(227,755,l)
);
},
{
closed = 1;
nodes = (
(417,0,l),
(473,0,l),
(342,697,l),
(297,697,l),
(-79,0,l),
(-23,0,l),
(81,196,l),
(383,196,l)
);
},
{
closed = 1;
nodes = (
(103,240,l),
(308,628,l),
(375,240,l)
);
}
);
width = 640;
}
);
note = uni1EA6;
unicode = 7846;
},
{
glyphname = uni1EA8;
kernLeft = A;
kernRight = A;
lastChange = "2022-12-26 08:50:41 +0000";
layers = (
{
hints = (
{
horizontal = 1;
place = (-123, 21);
target = up;
type = BottomGhost;
},
{
horizontal = 1;
place = (73, -79);
place = (73, -79);
type = Stem;
},
{
horizontal = 1;
place = (574, -20);
target = down;
type = TopGhost;
},
{
horizontal = 1;
place = (958, -93);
place = (958, -93);
type = Stem;
},
{
place = (268, -87);
place = (268, -87);
type = Stem;
},
{
horizontal = 1;
place = (505, -54);
place = (505, -54);
type = Stem;
}
);
layerId = m01;
shapes = (
{
closed = 1;
nodes = (
(439,969,o),
(392,962,o),
(351,955,c),
(355,925,l),
(405,936,o),
(471,945,o),
(483,1014,cs),
(494,1077,o),
(441,1111,o),
(365,1111,cs),
(350,1111,l),
(345,1081,l),
(360,1081,ls),
(411,1081,o),
(456,1063,o),
(447,1015,cs)
);
},
{
closed = 1;
nodes = (
(349,862,l),
(433,755,l),
(476,755,l),
(357,908,l),
(183,755,l),
(227,755,l)
);
},
{
closed = 1;
nodes = (
(417,0,l),
(473,0,l),
(342,697,l),
(297,697,l),
(-79,0,l),
(-23,0,l),
(81,196,l),
(383,196,l)
);
},
{
closed = 1;
nodes = (
(103,240,l),
(308,628,l),
(375,240,l)
);
}
);
width = 640;
}
);
note = uni1EA8;
unicode = 7848;
},
{
glyphname = uni1EAA;
kernLeft = A;
kernRight = A;
lastChange = "2022-12-26 08:50:41 +0000";
layers = (
{
hints = (
{
horizontal = 1;
place = (-123, 21);
target = up;
type = BottomGhost;
},
{
horizontal = 1;
place = (73, -79);
place = (73, -79);
type = Stem;
},
{
horizontal = 1;
place = (574, -20);
target = down;
type = TopGhost;
},
{
horizontal = 1;
place = (846, -90);
place = (846, -90);
type = Stem;
},
{
horizontal = 1;
place = (939, -91);
place = (939, -91);
type = Stem;
},
{
place = (41, -93);
place = (41, -93);
type = Stem;
},
{
place = (320, -91);
place = (320, -91);
type = Stem;
},
{
horizontal = 1;
place = (505, -54);
place = (505, -54);
type = Stem;
}
);
layerId = m01;
shapes = (
{
closed = 1;
nodes = (
(374,1062,o),
(354,969,o),
(439,969,cs),
(489,969,o),
(531,1016,o),
(544,1090,c),
(512,1090,l),
(503,1036,o),
(474,1002,o),
(445,1002,cs),
(383,1002,o),
(399,1094,o),
(322,1094,cs),
(268,1094,o),
(227,1052,o),
(214,979,c),
(244,979,l),
(253,1031,o),
(280,1062,o),
(315,1062,cs)
);
},
{
closed = 1;
nodes = (
(183,755,l),
(227,755,l),
(349,862,l),
(433,755,l),
(476,755,l),
(357,908,l)
);
},
{
closed = 1;
nodes = (
(417,0,l),
(473,0,l),
(342,697,l),
(297,697,l),
(-79,0,l),
(-23,0,l),
(81,196,l),
(383,196,l)
);
},
{
closed = 1;
nodes = (
(103,240,l),
(308,628,l),
(375,240,l)
);
}
);
width = 640;
}
);
note = uni1EAA;
unicode = 7850;
},
{
glyphname = Adieresis;
kernLeft = A;
kernRight = A;
lastChange = "2022-12-26 08:50:41 +0000";
layers = (
{
hints = (
{
horizontal = 1;
place = (-123, 21);
target = up;
type = BottomGhost;
},
{
horizontal = 1;
place = (73, -79);
place = (73, -79);
type = Stem;
},
{
horizontal = 1;
place = (574, -20);
target = down;
type = TopGhost;
},
{
horizontal = 1;
place = (680, -25);
place = (680, -25);
type = Stem;
},
{
place = (81, -66);
place = (81, -66);
type = Stem;
},
{
place = (256, -67);
place = (256, -67);
type = Stem;
},
{
horizontal = 1;
place = (505, -54);
place = (505, -54);
type = Stem;
}
);
layerId = m01;
shapes = (
{
closed = 1;
nodes = (
(297,901,l),
(240,901,l),
(223,803,l),
(280,803,l)
);
},
{
closed = 1;
nodes = (
(471,901,l),
(415,901,l),
(398,803,l),
(454,803,l)
);
},
{
closed = 1;
nodes = (
(417,0,l),
(473,0,l),
(342,697,l),
(297,697,l),
(-79,0,l),
(-23,0,l),
(81,196,l),
(383,196,l)
);
},
{
closed = 1;
nodes = (
(103,240,l),
(308,628,l),
(375,240,l)
);
}
);
width = 640;
}
);
note = Adieresis;
unicode = 196;
},
{
glyphname = uni1EA0;
kernLeft = A;
kernRight = A;
lastChange = "2022-12-26 08:50:41 +0000";
layers = (
{
hints = (
{
horizontal = 1;
place = (-296, -26);
place = (-296, -26);
type = Stem;
},
{
horizontal = 1;
place = (-123, 21);
target = up;
type = BottomGhost;
},
{
horizontal = 1;
place = (73, -79);
place = (73, -79);
type = Stem;
},
{
horizontal = 1;
place = (574, -20);
target = down;
type = TopGhost;
},
{
place = (169, -66);
place = (169, -66);
type = Stem;
},
{
horizontal = 1;
place = (505, -54);
place = (505, -54);
type = Stem;
}
);
layerId = m01;
shapes = (
{
closed = 1;
nodes = (
(473,0,l),
(342,697,l),
(297,697,l),
(-79,0,l),
(-23,0,l),
(81,196,l),
(383,196,l),
(417,0,l)
);
},
{
closed = 1;
nodes = (
(103,240,l),
(308,628,l),
(375,240,l)
);
},
{
closed = 1;
nodes = (
(139,-173,l),
(196,-173,l),
(213,-76,l),
(156,-76,l)
);
}
);
width = 640;
}
);
note = uni1EA0;
unicode = 7840;
},
{
glyphname = Agrave;
kernLeft = A;
kernRight = A;
lastChange = "2022-12-26 08:50:41 +0000";
layers = (
{
hints = (
{
horizontal = 1;
place = (-123, 21);
target = up;
type = BottomGhost;
},
{
horizontal = 1;
place = (73, -79);
place = (73, -79);
type = Stem;
},
{
horizontal = 1;
place = (574, -20);
target = down;
type = TopGhost;
},
{
horizontal = 1;
place = (638, 17);
place = (638, 17);
type = Stem;
},
{
place = (-79, 429);
place = (-79, 429);
type = Stem;
},
{
horizontal = 1;
place = (505, -54);
place = (505, -54);
type = Stem;
}
);
layerId = m01;
shapes = (
{
closed = 1;
nodes = (
(351,761,l),
(272,901,l),
(219,901,l),
(311,761,l)
);
},
{
closed = 1;
nodes = (
(417,0,l),
(473,0,l),
(342,697,l),
(297,697,l),
(-79,0,l),
(-23,0,l),
(81,196,l),
(383,196,l)
);
},
{
closed = 1;
nodes = (
(103,240,l),
(308,628,l),
(375,240,l)
);
}
);
width = 640;
}
);
note = Agrave;
unicode = 192;
},
{
glyphname = uni1EA2;
kernLeft = A;
kernRight = A;
lastChange = "2022-12-26 08:50:41 +0000";
layers = (
{
hints = (
{
horizontal = 1;
place = (-123, 21);
target = up;
type = BottomGhost;
},
{
horizontal = 1;
place = (73, -79);
place = (73, -79);
type = Stem;
},
{
horizontal = 1;
place = (574, -20);
target = down;
type = TopGhost;
},
{
horizontal = 1;
place = (769, -93);
place = (769, -93);
type = Stem;
},
{
place = (268, -87);
place = (268, -87);
type = Stem;
},
{
horizontal = 1;
place = (505, -54);
place = (505, -54);
type = Stem;
}
);
layerId = m01;
shapes = (
{
closed = 1;
nodes = (
(406,780,o),
(358,773,o),
(318,766,c),
(322,736,l),
(372,747,o),
(437,756,o),
(450,825,cs),
(461,888,o),
(408,922,o),
(332,922,cs),
(317,922,l),
(311,892,l),
(326,892,ls),
(377,892,o),
(422,874,o),
(414,826,cs)
);
},
{
closed = 1;
nodes = (
(417,0,l),
(473,0,l),
(342,697,l),
(297,697,l),
(-79,0,l),
(-23,0,l),
(81,196,l),
(383,196,l)
);
},
{
closed = 1;
nodes = (
(103,240,l),
(308,628,l),
(375,240,l)
);
}
);
width = 640;
}
);
note = uni1EA2;
unicode = 7842;
},
{
glyphname = Amacron;
kernLeft = A;
kernRight = A;
lastChange = "2022-12-26 08:50:41 +0000";
layers = (
{
hints = (
{
horizontal = 1;
place = (-123, 21);
target = up;
type = BottomGhost;
},
{
horizontal = 1;
place = (73, -79);
place = (73, -79);
type = Stem;
},
{
horizontal = 1;
place = (574, -20);
target = down;
type = TopGhost;
},
{
horizontal = 1;
place = (693, -92);
place = (693, -92);
type = Stem;
},
{
place = (-79, 429);
place = (-79, 429);
type = Stem;
},
{
horizontal = 1;
place = (505, -54);
place = (505, -54);
type = Stem;
}
);
layerId = m01;
shapes = (
{
closed = 1;
nodes = (
(479,847,l),
(211,847,l),
(206,816,l),
(474,816,l)
);
},
{
closed = 1;
nodes = (
(417,0,l),
(473,0,l),
(342,697,l),
(297,697,l),
(-79,0,l),
(-23,0,l),
(81,196,l),
(383,196,l)
);
},
{
closed = 1;
nodes = (
(103,240,l),
(308,628,l),
(375,240,l)
);
}
);
width = 640;
}
);
note = Amacron;
unicode = 256;
},
{
glyphname = Aogonek;
kernLeft = A;
kernRight = A;
lastChange = "2022-12-26 08:50:41 +0000";
layers = (
{
hints = (
{
horizontal = 1;
place = (-334, -89);
place = (-334, -89);
type = Stem;
},
{
horizontal = 1;
place = (-123, 21);
target = up;
type = BottomGhost;
},
{
horizontal = 1;
place = (73, -79);
place = (73, -79);
type = Stem;
},
{
horizontal = 1;
place = (574, -20);
target = down;
type = TopGhost;
},
{
place = (341, -91);
place = (341, -91);
type = Stem;
},
{
horizontal = 1;
place = (505, -54);
place = (505, -54);
type = Stem;
}
);
layerId = m01;
shapes = (
{
closed = 1;
nodes = (
(461,-150,l),
(439,-167,o),
(414,-177,o),
(391,-177,cs),
(365,-177,o),
(344,-164,o),
(350,-130,cs),
(360,-72,o),
(424,-27,o),
(473,0,c),
(342,697,l),
(297,697,l),
(-79,0,l),
(-23,0,l),
(81,196,l),
(383,196,l),
(417,0,l),
(428,0,l),
(380,-29,o),
(327,-78,o),
(317,-134,cs),
(309,-182,o),
(341,-211,o),
(387,-211,cs),
(420,-211,o),
(453,-195,o),
(481,-171,c)
);
},
{
closed = 1;
nodes = (
(103,240,l),
(308,628,l),
(375,240,l)
);
}
);
width = 640;
}
);
note = Aogonek;
unicode = 260;
},
{
glyphname = Aring;
kernLeft = A;
kernRight = A;
lastChange = "2022-12-26 08:50:41 +0000";
layers = (
{
hints = (
{
horizontal = 1;
place = (-123, 21);
target = up;
type = BottomGhost;
},
{
horizontal = 1;
place = (73, -79);
place = (73, -79);
type = Stem;
},
{
horizontal = 1;
place = (565, -98);
place = (565, -98);
type = Stem;
},
{
horizontal = 1;
place = (712, -93);
place = (712, -93);
type = Stem;
},
{
place = (106, -93);
place = (106, -93);
type = Stem;
},
{
place = (258, -94);
place = (258, -94);
type = Stem;
}
);
layerId = m01;
shapes = (
{
closed = 1;
nodes = (
(417,0,l),
(473,0,l),
(343,688,l),
(383,698,o),
(416,733,o),
(424,774,cs),
(432,824,o),
(399,865,o),
(350,865,cs),
(300,865,o),
(252,825,o),
(243,774,cs),
(235,733,o),
(256,699,o),
(292,688,c),
(-79,0,l),
(-23,0,l),
(81,196,l),
(383,196,l)
);
},
{
closed = 1;
nodes = (
(279,809,o),
(309,835,o),
(344,835,cs),
(379,835,o),
(401,809,o),
(395,774,cs),
(389,740,o),
(357,713,o),
(323,713,cs),
(288,713,o),
(267,740,o),
(273,774,cs)
);
},
{
closed = 1;
nodes = (
(103,240,l),
(308,628,l),
(375,240,l)
);
}
);
width = 640;
}
);
note = Aring;
unicode = 197;
},
{
glyphname = Atilde;
kernLeft = A;
kernRight = A;
lastChange = "2022-12-26 08:50:41 +0000";
layers = (
{
hints = (
{
horizontal = 1;
place = (-123, 21);
target = up;
type = BottomGhost;
},
{
horizontal = 1;
place = (73, -79);
place = (73, -79);
type = Stem;
},
{
horizontal = 1;
place = (574, -20);
target = down;
type = TopGhost;
},
{
horizontal = 1;
place = (657, -90);
place = (657, -90);
type = Stem;
},
{
horizontal = 1;
place = (750, -91);
place = (750, -91);
type = Stem;
},
{
place = (41, -93);
place = (41, -93);
type = Stem;
},
{
place = (320, -91);
place = (320, -91);
type = Stem;
},
{
horizontal = 1;
place = (505, -54);
place = (505, -54);
type = Stem;
}
);
layerId = m01;
shapes = (
{
closed = 1;
nodes = (
(341,873,o),
(321,780,o),
(406,780,cs),
(456,780,o),
(498,827,o),
(511,901,c),
(479,901,l),
(469,847,o),
(440,813,o),
(411,813,cs),
(349,813,o),
(366,905,o),
(289,905,cs),
(235,905,o),
(193,863,o),
(180,790,c),
(210,790,l),
(220,842,o),
(247,873,o),
(282,873,cs)
);
},
{
closed = 1;
nodes = (
(417,0,l),
(473,0,l),
(342,697,l),
(297,697,l),
(-79,0,l),
(-23,0,l),
(81,196,l),
(383,196,l)
);
},
{
closed = 1;
nodes = (
(103,240,l),
(308,628,l),
(375,240,l)
);
}
);
width = 640;
}
);
note = Atilde;
unicode = 195;
},
{
glyphname = AE;
kernLeft = A;
lastChange = "2022-12-26 08:50:41 +0000";
layers = (
{
hints = (
{
horizontal = 1;
place = (-123, -76);
place = (-123, -76);
type = Stem;
},
{
horizontal = 1;
place = (50, -82);
place = (50, -82);
type = Stem;
},
{
horizontal = 1;
place = (205, -79);
place = (205, -79);
type = Stem;
},
{
horizontal = 1;
place = (529, -78);
place = (529, -78);
type = Stem;
},
{
place = (275, -71);
place = (275, -71);
type = Stem;
},
{
horizontal = 1;
place = (530, -79);
place = (530, -79);
type = Stem;
}
);
layerId = m01;
shapes = (
{
closed = 1;
nodes = (
(-79,0,l),
(-23,0,l),
(68,173,l),
(306,173,l),
(275,0,l),
(713,0,l),
(721,47,l),
(335,47,l),
(385,328,l),
(720,328,l),
(728,372,l),
(393,372,l),
(442,652,l),
(828,652,l),
(836,697,l),
(297,697,l)
);
},
{
closed = 1;
nodes = (
(91,214,l),
(322,653,l),
(390,653,l),
(313,214,l)
);
}
);
width = 895;
}
);
note = AE;
unicode = 198;
},
{
glyphname = B;
kernLeft = B;
kernRight = B;
lastChange = "2022-12-26 08:50:41 +0000";
layers = (
{
hints = (
{
horizontal = 1;
place = (-123, -76);
place = (-123, -76);
type = Stem;
},
{
horizontal = 1;
place = (217, -79);
place = (217, -79);
type = Stem;
},
{
horizontal = 1;
place = (527, -76);
place = (527, -76);
type = Stem;
},
{
place = (-4, -72);
place = (-4, -72);
type = Stem;
},
{
place = (386, -72);
place = (386, -72);
type = Stem;
},
{
place = (352, -73);
place = (352, -73);
type = Stem;
}
);
layerId = m01;
shapes = (
{
closed = 1;
nodes = (
(-4,0,l),
(216,0,ls),
(359,0,o),
(449,67,o),
(471,191,cs),
(488,288,o),
(452,351,o),
(369,369,c),
(436,393,o),
(481,449,o),
(494,524,cs),
(514,633,o),
(450,697,o),
(322,697,cs),
(134,697,ls),
(126,697,o),
(118,690,o),
(116,682,cs)
);
},
{
closed = 1;
nodes = (
(115,384,l),
(162,650,l),
(314,650,ls),
(411,650,o),
(458,601,o),
(443,516,cs),
(429,435,o),
(369,384,o),
(286,384,cs)
);
},
{
closed = 1;
nodes = (
(55,47,l),
(107,340,l),
(299,340,ls),
(392,340,o),
(437,286,o),
(420,195,cs),
(404,99,o),
(334,47,o),
(221,47,cs)
);
}
);
width = 633;
}
);
note = B;
unicode = 66;
},
{
glyphname = C;
kernLeft = C;
kernRight = C;
lastChange = "2022-12-26 08:50:41 +0000";
layers = (
{
hints = (
{
horizontal = 1;
place = (-131, -75);
place = (-131, -75);
type = Stem;
},
{
horizontal = 1;
place = (534, -75);
place = (534, -75);
type = Stem;
},
{
place = (-48, -73);
place = (-48, -73);
type = Stem;
}
);
layerId = m01;
shapes = (
{
closed = 1;
nodes = (
(534,200,o),
(526,185,qs),
(434,40,o),
(268,40,qs),
(143,40,o),
(38,201,o),
(64,350,qs),
(90,499,o),
(255,657,o),
(383,657,qs),
(548,657,o),
(584,515,qs),
(587,501,o),
(602,507,qs),
(638,519,l),
(599,705,o),
(391,705,qs),
(316,705,o),
(191,657,o),
(94,566,o),
(29,434,o),
(14,350,qs),
(-1,266,o),
(18,133,o),
(80,41,o),
(187,-8,o),
(260,-8,qs),
(362,-8,o),
(523,87,o),
(580,181,q),
(547,194,ls)
);
}
);
width = 727;
}
);
note = C;
unicode = 67;
},
{
glyphname = Cacute;
kernLeft = C;
kernRight = C;
lastChange = "2022-12-26 08:50:41 +0000";
layers = (
{
hints = (
{
horizontal = 1;
place = (-131, -75);
place = (-131, -75);
type = Stem;
},
{
horizontal = 1;
place = (534, -75);
place = (534, -75);
type = Stem;
},
{
horizontal = 1;
place = (638, 17);
place = (638, 17);
type = Stem;
},
{
place = (-48, -73);
place = (-48, -73);
type = Stem;
}
);
layerId = m01;
shapes = (
{
closed = 1;
nodes = (
(384,761,l),
(424,761,l),
(569,901,l),
(516,901,l)
);
},
{
closed = 1;
nodes = (
(395,-8,o),
(505,56,o),
(580,181,c),
(534,199,l),
(474,94,o),
(382,40,o),
(268,40,cs),
(103,40,o),
(29,153,o),
(64,350,cs),
(99,547,o),
(213,657,o),
(383,657,cs),
(499,657,o),
(567,607,o),
(587,501,c),
(638,519,l),
(612,644,o),
(529,705,o),
(391,705,cs),
(192,705,o),
(53,575,o),
(14,350,cs),
(-26,125,o),
(65,-8,o),
(260,-8,cs)
);
}
);
width = 727;
}
);
note = Cacute;
unicode = 262;
},
{
glyphname = Ccaron;
kernLeft = C;
kernRight = C;
lastChange = "2022-12-26 08:50:41 +0000";
layers = (
{
hints = (
{
horizontal = 1;
place = (-131, -75);
place = (-131, -75);
type = Stem;
},
{
horizontal = 1;
place = (534, -75);
place = (534, -75);
type = Stem;
},
{
place = (-48, -73);
place = (-48, -73);
type = Stem;
}
);
layerId = m01;
shapes = (
{
closed = 1;
nodes = (
(403,752,l),
(575,901,l),
(532,901,l),
(410,796,l),
(326,901,l),
(282,901,l)
);
},
{
closed = 1;
nodes = (
(395,-8,o),
(505,56,o),
(580,181,c),
(534,199,l),
(474,94,o),
(382,40,o),
(268,40,cs),
(103,40,o),
(29,153,o),
(64,350,cs),
(99,547,o),
(213,657,o),
(383,657,cs),
(499,657,o),
(567,607,o),
(587,501,c),
(638,519,l),
(612,644,o),
(529,705,o),
(391,705,cs),
(192,705,o),
(53,575,o),
(14,350,cs),
(-26,125,o),
(65,-8,o),
(260,-8,cs)
);
}
);
width = 727;
}
);
note = Ccaron;
unicode = 268;
},
{
glyphname = Ccedilla;
kernLeft = C;
kernRight = C;
lastChange = "2022-12-26 08:50:41 +0000";
layers = (
{
hints = (
{
horizontal = 1;
place = (-377, -91);
place = (-377, -91);
type = Stem;
},
{
horizontal = 1;
place = (-216, -100);
place = (-216, -100);
type = Stem;
},
{
horizontal = 1;
place = (-131, -75);
place = (-131, -75);
type = Stem;
},
{
horizontal = 1;
place = (534, -75);
place = (534, -75);
type = Stem;
},
{
place = (-48, -73);
place = (-48, -73);
type = Stem;
},
{
place = (337, -91);
place = (337, -91);
type = Stem;
}
);
layerId = m01;
shapes = (
{
closed = 1;
nodes = (
(534,199,l),
(474,94,o),
(382,40,o),
(268,40,cs),
(103,40,o),
(29,153,o),
(64,350,cs),
(99,547,o),
(213,657,o),
(383,657,cs),
(499,657,o),
(567,607,o),
(587,501,c),
(638,519,l),
(612,644,o),
(529,705,o),
(391,705,cs),
(192,705,o),
(53,575,o),
(14,350,cs),
(-25,130,o),
(61,-2,o),
(248,-8,c),
(185,-93,l),
(216,-93,o),
(243,-95,o),
(264,-101,cs),
(295,-110,o),
(315,-127,o),
(309,-162,cs),
(302,-201,o),
(274,-222,o),
(232,-222,cs),
(203,-222,o),
(178,-207,o),
(168,-178,c),
(144,-201,l),
(158,-234,o),
(190,-254,o),
(225,-254,cs),
(285,-254,o),
(331,-216,o),
(341,-161,cs),
(348,-122,o),
(331,-99,o),
(299,-85,cs),
(282,-77,o),
(259,-73,o),
(232,-70,c),
(280,-8,l),
(406,-2,o),
(509,62,o),
(580,181,c)
);
}
);
width = 727;
}
);
note = Ccedilla;
unicode = 199;
},
{
glyphname = Cdotaccent;
kernLeft = C;
kernRight = C;
lastChange = "2022-12-26 08:50:41 +0000";
layers = (
{
hints = (
{
horizontal = 1;
place = (-131, -75);
place = (-131, -75);
type = Stem;
},
{
horizontal = 1;
place = (534, -75);
place = (534, -75);
type = Stem;
},
{
horizontal = 1;
place = (680, -25);
place = (680, -25);
type = Stem;
},
{
place = (-48, -73);
place = (-48, -73);
type = Stem;
},
{
place = (241, -66);
place = (241, -66);
type = Stem;
}
);
layerId = m01;
shapes = (
{
closed = 1;
nodes = (
(383,803,l),
(440,803,l),
(457,901,l),
(400,901,l)
);
},
{
closed = 1;
nodes = (
(395,-8,o),
(505,56,o),
(580,181,c),
(534,199,l),
(474,94,o),
(382,40,o),
(268,40,cs),
(103,40,o),
(29,153,o),
(64,350,cs),
(99,547,o),
(213,657,o),
(383,657,cs),
(499,657,o),
(567,607,o),
(587,501,c),
(638,519,l),
(612,644,o),
(529,705,o),
(391,705,cs),
(192,705,o),
(53,575,o),
(14,350,cs),
(-26,125,o),
(65,-8,o),
(260,-8,cs)
);
}
);
width = 727;
}
);
note = Cdotaccent;
unicode = 266;
},
{
glyphname = D;
kernLeft = B;
kernRight = D;
lastChange = "2022-12-26 08:50:41 +0000";
layers = (
{
hints = (
{
horizontal = 1;
place = (-123, -76);
place = (-123, -76);
type = Stem;
},
{
horizontal = 1;
place = (527, -76);
place = (527, -76);
type = Stem;
},
{
place = (-4, -72);
place = (-4, -72);
type = Stem;
},
{
place = (482, -71);
place = (482, -71);
type = Stem;
}
);
layerId = m01;
shapes = (
{
closed = 1;
nodes = (
(119,697,o),
(116,682,qs),
(-4,0,l),
(179,0,ls),
(352,0,o),
(565,175,o),
(595,343,qs),
(625,513,o),
(473,697,o),
(303,697,qs),
(134,697,ls)
);
},
{
closed = 1;
nodes = (
(162,650,l),
(294,650,ls),
(443,650,o),
(569,495,o),
(543,345,qs),
(490,47,o),
(183,47,qs),
(55,47,l)
);
}
);
width = 729;
}
);
note = D;
unicode = 68;
},
{
glyphname = Eth;
kernLeft = B;
kernRight = D;
lastChange = "2022-12-26 08:50:41 +0000";
layers = (
{
hints = (
{
horizontal = 1;
place = (-123, -76);
place = (-123, -76);
type = Stem;
},
{
horizontal = 1;
place = (209, -89);
place = (209, -89);
type = Stem;
},
{
horizontal = 1;
place = (527, -76);
place = (527, -76);
type = Stem;
},
{
place = (-4, -72);
place = (-4, -72);
type = Stem;
},
{
place = (482, -71);
place = (482, -71);
type = Stem;
},
{
place = (-4, 54);
place = (-4, 54);
type = Stem;
}
);
layerId = m01;
shapes = (
{
closed = 1;
nodes = (
(119,697,l),
(61,366,l),
(-12,366,l),
(-18,332,l),
(55,332,l),
(-4,0,l),
(179,0,ls),
(408,0,o),
(555,121,o),
(595,343,cs),
(634,568,o),
(528,697,o),
(303,697,cs)
);
},
{
closed = 1;
nodes = (
(55,47,l),
(106,332,l),
(232,332,l),
(238,366,l),
(112,366,l),
(162,650,l),
(294,650,ls),
(492,650,o),
(578,544,o),
(543,345,cs),
(508,148,o),
(386,47,o),
(183,47,cs)
);
}
);
width = 729;
}
);
note = Eth;
unicode = 208;
},
{
glyphname = Dcaron;
kernLeft = B;
kernRight = D;
lastChange = "2022-12-26 08:50:41 +0000";
layers = (
{
hints = (
{
horizontal = 1;
place = (-123, -76);
place = (-123, -76);
type = Stem;
},
{
horizontal = 1;
place = (527, -76);
place = (527, -76);
type = Stem;
},
{
place = (-4, -72);
place = (-4, -72);
type = Stem;
},
{
place = (482, -71);
place = (482, -71);
type = Stem;
}
);
layerId = m01;
shapes = (
{
closed = 1;
nodes = (
(376,752,l),
(548,901,l),
(505,901,l),
(383,796,l),
(299,901,l),
(255,901,l)
);
},
{
closed = 1;
nodes = (
(-4,0,l),
(179,0,ls),
(408,0,o),
(555,121,o),
(595,343,cs),
(634,568,o),
(528,697,o),
(303,697,cs),
(119,697,l)
);
},
{
closed = 1;
nodes = (
(55,47,l),
(162,650,l),
(294,650,ls),
(492,650,o),
(578,544,o),
(543,345,cs),
(508,148,o),
(386,47,o),
(183,47,cs)
);
}
);
width = 729;
}
);
note = Dcaron;
unicode = 270;
},
{
glyphname = Dcroat;
kernLeft = B;
kernRight = D;
lastChange = "2022-12-26 08:50:41 +0000";
layers = (
{
hints = (
{
horizontal = 1;
place = (-123, -76);
place = (-123, -76);
type = Stem;
},
{
horizontal = 1;
place = (209, -89);
place = (209, -89);
type = Stem;
},
{
horizontal = 1;
place = (527, -76);
place = (527, -76);
type = Stem;
},
{
place = (-4, -72);
place = (-4, -72);
type = Stem;
},
{
place = (482, -71);
place = (482, -71);
type = Stem;
},
{
place = (-4, 54);
place = (-4, 54);
type = Stem;
}
);
layerId = m01;
shapes = (
{
closed = 1;
nodes = (
(119,697,l),
(61,366,l),
(-12,366,l),
(-18,332,l),
(55,332,l),
(-4,0,l),
(179,0,ls),
(408,0,o),
(555,121,o),
(595,343,cs),
(634,568,o),
(528,697,o),
(303,697,cs)
);
},
{
closed = 1;
nodes = (
(55,47,l),
(106,332,l),
(232,332,l),
(238,366,l),
(112,366,l),
(162,650,l),
(294,650,ls),
(492,650,o),
(578,544,o),
(543,345,cs),
(508,148,o),
(386,47,o),
(183,47,cs)
);
}
);
width = 729;
}
);
note = Dcroat;
unicode = 272;
},
{
glyphname = E;
kernLeft = B;
lastChange = "2022-12-26 08:50:41 +0000";
layers = (
{
hints = (
{
horizontal = 1;
place = (-123, -76);
place = (-123, -76);
type = Stem;
},
{
horizontal = 1;
place = (207, -75);
place = (207, -75);
type = Stem;
},
{
horizontal = 1;
place = (527, -76);
place = (527, -76);
type = Stem;
},
{
place = (-4, -72);
place = (-4, -72);
type = Stem;
}
);
layerId = m01;
shapes = (
{
closed = 1;
nodes = (
(473,378,o),
(458,378,qs),
(114,378,l),
(162,650,l),
(565,650,l),
(573,697,l),
(119,697,l),
(-4,0,l),
(450,0,l),
(458,47,l),
(55,47,l),
(105,330,l),
(464,330,l),
(470,363,ls)
);
}
);
width = 634;
}
);
note = E;
unicode = 69;
},
{
glyphname = Eacute;
kernLeft = B;
lastChange = "2022-12-26 08:50:41 +0000";
layers = (
{
hints = (
{
horizontal = 1;
place = (-123, -76);
place = (-123, -76);
type = Stem;
},
{
horizontal = 1;
place = (207, -75);
place = (207, -75);
type = Stem;
},
{
horizontal = 1;
place = (527, -76);
place = (527, -76);
type = Stem;
},
{
horizontal = 1;
place = (638, 17);
place = (638, 17);
type = Stem;
},
{
place = (-4, -72);
place = (-4, -72);
type = Stem;
}
);
layerId = m01;
shapes = (
{
closed = 1;
nodes = (
(337,761,l),
(377,761,l),
(522,901,l),
(469,901,l)
);
},
{
closed = 1;
nodes = (
(-4,0,l),
(450,0,l),
(458,47,l),
(55,47,l),
(105,330,l),
(464,330,l),
(473,378,l),
(114,378,l),
(162,650,l),
(565,650,l),
(573,697,l),
(119,697,l)
);
}
);
width = 634;
}
);
note = Eacute;
unicode = 201;
},
{
glyphname = Ecaron;
kernLeft = B;
lastChange = "2022-12-26 08:50:41 +0000";
layers = (
{
hints = (
{
horizontal = 1;
place = (-123, -76);
place = (-123, -76);
type = Stem;
},
{
horizontal = 1;
place = (207, -75);
place = (207, -75);
type = Stem;
},
{
horizontal = 1;
place = (527, -76);
place = (527, -76);
type = Stem;
},
{
place = (-4, -72);
place = (-4, -72);
type = Stem;
}
);
layerId = m01;
shapes = (
{
closed = 1;
nodes = (
(356,752,l),
(528,901,l),
(485,901,l),
(363,796,l),
(279,901,l),
(235,901,l)
);
},
{
closed = 1;
nodes = (
(-4,0,l),
(450,0,l),
(458,47,l),
(55,47,l),
(105,330,l),
(464,330,l),
(473,378,l),
(114,378,l),
(162,650,l),
(565,650,l),
(573,697,l),
(119,697,l)
);
}
);
width = 634;
}
);
note = Ecaron;
unicode = 282;
},
{
glyphname = Ecircumflex;
kernLeft = B;
lastChange = "2022-12-26 08:50:41 +0000";
layers = (
{
hints = (
{
horizontal = 1;
place = (-123, -76);
place = (-123, -76);
type = Stem;
},
{
horizontal = 1;
place = (207, -75);
place = (207, -75);
type = Stem;
},
{
horizontal = 1;
place = (527, -76);
place = (527, -76);
type = Stem;
},
{
place = (-4, -72);
place = (-4, -72);
type = Stem;
}
);
layerId = m01;
shapes = (
{
closed = 1;
nodes = (
(209,755,l),
(253,755,l),
(375,862,l),
(459,755,l),
(502,755,l),
(383,908,l)
);
},
{
closed = 1;
nodes = (
(-4,0,l),
(450,0,l),
(458,47,l),
(55,47,l),
(105,330,l),
(464,330,l),
(473,378,l),
(114,378,l),
(162,650,l),
(565,650,l),
(573,697,l),
(119,697,l)
);
}
);
width = 634;
}
);
note = Ecircumflex;
unicode = 202;
},
{
glyphname = uni1EBE;
kernLeft = B;
lastChange = "2022-12-26 08:50:41 +0000";
layers = (
{
hints = (
{
horizontal = 1;
place = (-123, -76);
place = (-123, -76);
type = Stem;
},
{
horizontal = 1;
place = (207, -75);
place = (207, -75);
type = Stem;
},
{
horizontal = 1;
place = (527, -76);
place = (527, -76);
type = Stem;
},
{
horizontal = 1;
place = (827, 17);
place = (827, 17);
type = Stem;
},
{
place = (-4, -72);
place = (-4, -72);
type = Stem;
}
);
layerId = m01;
shapes = (
{
closed = 1;
nodes = (
(371,950,l),
(411,950,l),
(555,1090,l),
(502,1090,l)
);
},
{
closed = 1;
nodes = (
(209,755,l),
(253,755,l),
(375,862,l),
(459,755,l),
(502,755,l),
(383,908,l)
);
},
{
closed = 1;
nodes = (
(-4,0,l),
(450,0,l),
(458,47,l),
(55,47,l),
(105,330,l),
(464,330,l),
(473,378,l),
(114,378,l),
(162,650,l),
(565,650,l),
(573,697,l),
(119,697,l)
);
}
);
width = 634;
}
);
note = uni1EBE;
unicode = 7870;
},
{
glyphname = uni1EC6;
kernLeft = B;
lastChange = "2022-12-26 08:50:41 +0000";
layers = (
{
hints = (
{
horizontal = 1;
place = (-296, -26);
place = (-296, -26);
type = Stem;
},
{
horizontal = 1;
place = (-123, -76);
place = (-123, -76);
type = Stem;
},
{
horizontal = 1;
place = (207, -75);
place = (207, -75);
type = Stem;
},
{
horizontal = 1;
place = (527, -76);
place = (527, -76);
type = Stem;
},
{
place = (-4, -72);
place = (-4, -72);
type = Stem;
},
{
place = (194, -66);
place = (194, -66);
type = Stem;
}
);
layerId = m01;
shapes = (
{
closed = 1;
nodes = (
(209,755,l),
(253,755,l),
(375,862,l),
(459,755,l),
(502,755,l),
(383,908,l)
);
},
{
closed = 1;
nodes = (
(-4,0,l),
(450,0,l),
(458,47,l),
(55,47,l),
(105,330,l),
(464,330,l),
(473,378,l),
(114,378,l),
(162,650,l),
(565,650,l),
(573,697,l),
(119,697,l)
);
},
{
closed = 1;
nodes = (
(164,-173,l),
(221,-173,l),
(238,-76,l),
(181,-76,l)
);
}
);
width = 634;
}
);
note = uni1EC6;
unicode = 7878;
},
{
glyphname = uni1EC0;
kernLeft = B;
lastChange = "2022-12-26 08:50:41 +0000";
layers = (
{
hints = (
{
horizontal = 1;
place = (-123, -76);
place = (-123, -76);
type = Stem;
},
{
horizontal = 1;
place = (207, -75);
place = (207, -75);
type = Stem;
},
{
horizontal = 1;
place = (527, -76);
place = (527, -76);
type = Stem;
},
{
horizontal = 1;
place = (827, 17);
place = (827, 17);
type = Stem;
},
{
place = (-4, -72);
place = (-4, -72);
type = Stem;
}
);
layerId = m01;
shapes = (
{
closed = 1;
nodes = (
(370,950,l),
(410,950,l),
(330,1090,l),
(277,1090,l)
);
},
{
closed = 1;
nodes = (
(209,755,l),
(253,755,l),
(375,862,l),
(459,755,l),
(502,755,l),
(383,908,l)
);
},
{
closed = 1;
nodes = (
(-4,0,l),
(450,0,l),
(458,47,l),
(55,47,l),
(105,330,l),
(464,330,l),
(473,378,l),
(114,378,l),
(162,650,l),
(565,650,l),
(573,697,l),
(119,697,l)
);
}
);
width = 634;
}
);
note = uni1EC0;
unicode = 7872;
},
{
glyphname = uni1EC2;
kernLeft = B;
lastChange = "2022-12-26 08:50:41 +0000";
layers = (
{
hints = (
{
horizontal = 1;
place = (-123, -76);
place = (-123, -76);
type = Stem;
},
{
horizontal = 1;
place = (207, -75);
place = (207, -75);
type = Stem;
},
{
horizontal = 1;
place = (527, -76);
place = (527, -76);
type = Stem;
},
{
horizontal = 1;
place = (958, -93);
place = (958, -93);
type = Stem;
},
{
place = (-4, -72);
place = (-4, -72);
type = Stem;
},
{
place = (294, -87);
place = (294, -87);
type = Stem;
}
);
layerId = m01;
shapes = (
{
closed = 1;
nodes = (
(381,925,l),
(431,936,o),
(497,945,o),
(509,1014,cs),
(520,1077,o),
(467,1111,o),
(391,1111,cs),
(376,1111,l),
(371,1081,l),
(386,1081,ls),
(437,1081,o),
(482,1063,o),
(473,1015,cs),
(465,969,o),
(418,962,o),
(377,955,c)
);
},
{
closed = 1;
nodes = (
(209,755,l),
(253,755,l),
(375,862,l),
(459,755,l),
(502,755,l),
(383,908,l)
);
},
{
closed = 1;
nodes = (
(-4,0,l),
(450,0,l),
(458,47,l),
(55,47,l),
(105,330,l),
(464,330,l),
(473,378,l),
(114,378,l),
(162,650,l),
(565,650,l),
(573,697,l),
(119,697,l)
);
}
);
width = 634;
}
);
note = uni1EC2;
unicode = 7874;
},
{
glyphname = uni1EC4;
kernLeft = B;
lastChange = "2022-12-26 08:50:41 +0000";
layers = (
{
hints = (
{
horizontal = 1;
place = (-123, -76);
place = (-123, -76);
type = Stem;
},
{
horizontal = 1;
place = (207, -75);
place = (207, -75);
type = Stem;
},
{
horizontal = 1;
place = (527, -76);
place = (527, -76);
type = Stem;
},
{
horizontal = 1;
place = (846, -90);
place = (846, -90);
type = Stem;
},
{
horizontal = 1;
place = (939, -91);
place = (939, -91);
type = Stem;
},
{
place = (-4, -72);
place = (-4, -72);
type = Stem;
},
{
place = (346, -91);
place = (346, -91);
type = Stem;
},
{
place = (67, -93);
place = (67, -93);
type = Stem;
}
);
layerId = m01;
shapes = (
{
closed = 1;
nodes = (
(515,969,o),
(557,1016,o),
(570,1090,c),
(538,1090,l),
(529,1036,o),
(500,1002,o),
(471,1002,cs),
(409,1002,o),
(425,1094,o),
(348,1094,cs),
(294,1094,o),
(253,1052,o),
(240,979,c),
(270,979,l),
(279,1031,o),
(306,1062,o),
(341,1062,cs),
(400,1062,o),
(380,969,o),
(465,969,cs)
);
},
{
closed = 1;
nodes = (
(209,755,l),
(253,755,l),
(375,862,l),
(459,755,l),
(502,755,l),
(383,908,l)
);
},
{
closed = 1;
nodes = (
(-4,0,l),
(450,0,l),
(458,47,l),
(55,47,l),
(105,330,l),
(464,330,l),
(473,378,l),
(114,378,l),
(162,650,l),
(565,650,l),
(573,697,l),
(119,697,l)
);
}
);
width = 634;
}
);
note = uni1EC4;
unicode = 7876;
},
{
glyphname = Edieresis;
kernLeft = B;
lastChange = "2022-12-26 08:50:41 +0000";
layers = (
{
hints = (
{
horizontal = 1;
place = (-123, -76);
place = (-123, -76);
type = Stem;
},
{
horizontal = 1;
place = (207, -75);
place = (207, -75);
type = Stem;
},
{
horizontal = 1;
place = (527, -76);
place = (527, -76);
type = Stem;
},
{
horizontal = 1;
place = (680, -25);
place = (680, -25);
type = Stem;
},
{
place = (-4, -72);
place = (-4, -72);
type = Stem;
},
{
place = (107, -66);
place = (107, -66);
type = Stem;
},
{
place = (282, -67);
place = (282, -67);
type = Stem;
}
);
layerId = m01;
shapes = (
{
closed = 1;
nodes = (
(249,803,l),
(306,803,l),
(323,901,l),
(266,901,l)
);
},
{
closed = 1;
nodes = (
(424,803,l),
(480,803,l),
(497,901,l),
(441,901,l)
);
},
{
closed = 1;
nodes = (
(-4,0,l),
(450,0,l),
(458,47,l),
(55,47,l),
(105,330,l),
(464,330,l),
(473,378,l),
(114,378,l),
(162,650,l),
(565,650,l),
(573,697,l),
(119,697,l)
);
}
);
width = 634;
}
);
note = Edieresis;
unicode = 203;
},
{
glyphname = Edotaccent;
kernLeft = B;
lastChange = "2022-12-26 08:50:41 +0000";
layers = (
{
hints = (
{
horizontal = 1;
place = (-123, -76);
place = (-123, -76);
type = Stem;
},
{
horizontal = 1;
place = (207, -75);
place = (207, -75);
type = Stem;
},
{
horizontal = 1;
place = (527, -76);
place = (527, -76);
type = Stem;
},
{
horizontal = 1;
place = (680, -25);
place = (680, -25);
type = Stem;
},
{
place = (-4, -72);
place = (-4, -72);
type = Stem;
},
{
place = (194, -66);
place = (194, -66);
type = Stem;
}
);
layerId = m01;
shapes = (
{
closed = 1;
nodes = (
(336,803,l),
(393,803,l),
(410,901,l),
(353,901,l)
);
},
{
closed = 1;
nodes = (
(-4,0,l),
(450,0,l),
(458,47,l),
(55,47,l),
(105,330,l),
(464,330,l),
(473,378,l),
(114,378,l),
(162,650,l),
(565,650,l),
(573,697,l),
(119,697,l)
);
}
);
width = 634;
}
);
note = Edotaccent;
unicode = 278;
},
{
glyphname = uni1EB8;
kernLeft = B;
lastChange = "2022-12-26 08:50:41 +0000";
layers = (
{
hints = (
{
horizontal = 1;
place = (-296, -26);
place = (-296, -26);
type = Stem;
},
{
horizontal = 1;
place = (-123, -76);
place = (-123, -76);
type = Stem;
},
{
horizontal = 1;
place = (207, -75);
place = (207, -75);
type = Stem;
},
{
horizontal = 1;
place = (527, -76);
place = (527, -76);
type = Stem;
},
{
place = (-4, -72);
place = (-4, -72);
type = Stem;
},
{
place = (194, -66);
place = (194, -66);
type = Stem;
}
);
layerId = m01;
shapes = (
{
closed = 1;
nodes = (
(-4,0,l),
(450,0,l),
(458,47,l),
(55,47,l),
(105,330,l),
(464,330,l),
(473,378,l),
(114,378,l),
(162,650,l),
(565,650,l),
(573,697,l),
(119,697,l)
);
},
{
closed = 1;
nodes = (
(164,-173,l),
(221,-173,l),
(238,-76,l),
(181,-76,l)
);
}
);
width = 634;
}
);
note = uni1EB8;
unicode = 7864;
},
{
glyphname = Egrave;
kernLeft = B;
lastChange = "2022-12-26 08:50:41 +0000";
layers = (
{
hints = (
{
horizontal = 1;
place = (-123, -76);
place = (-123, -76);
type = Stem;
},
{
horizontal = 1;
place = (207, -75);
place = (207, -75);
type = Stem;
},
{
horizontal = 1;
place = (527, -76);
place = (527, -76);
type = Stem;
},
{
horizontal = 1;
place = (638, 17);
place = (638, 17);
type = Stem;
},
{
place = (-4, -72);
place = (-4, -72);
type = Stem;
}
);
layerId = m01;
shapes = (
{
closed = 1;
nodes = (
(336,761,l),
(376,761,l),
(297,901,l),
(244,901,l)
);
},
{
closed = 1;
nodes = (
(-4,0,l),
(450,0,l),
(458,47,l),
(55,47,l),
(105,330,l),
(464,330,l),
(473,378,l),
(114,378,l),
(162,650,l),
(565,650,l),
(573,697,l),
(119,697,l)
);
}
);
width = 634;
}
);
note = Egrave;
unicode = 200;
},
{
glyphname = uni1EBA;
kernLeft = B;
lastChange = "2022-12-26 08:50:41 +0000";
layers = (
{
hints = (
{
horizontal = 1;
place = (-123, -76);
place = (-123, -76);
type = Stem;
},
{
horizontal = 1;
place = (207, -75);
place = (207, -75);
type = Stem;
},
{
horizontal = 1;
place = (527, -76);
place = (527, -76);
type = Stem;
},
{
horizontal = 1;
place = (769, -93);
place = (769, -93);
type = Stem;
},
{
place = (-4, -72);
place = (-4, -72);
type = Stem;
},
{
place = (294, -87);
place = (294, -87);
type = Stem;
}
);
layerId = m01;
shapes = (
{
closed = 1;
nodes = (
(348,736,l),
(398,747,o),
(463,756,o),
(476,825,cs),
(487,888,o),
(434,922,o),
(358,922,cs),
(343,922,l),
(337,892,l),
(352,892,ls),
(403,892,o),
(448,874,o),
(440,826,cs),
(432,780,o),
(384,773,o),
(344,766,c)
);
},
{
closed = 1;
nodes = (
(-4,0,l),
(450,0,l),
(458,47,l),
(55,47,l),
(105,330,l),
(464,330,l),
(473,378,l),
(114,378,l),
(162,650,l),
(565,650,l),
(573,697,l),
(119,697,l)
);
}
);
width = 634;
}
);
note = uni1EBA;
unicode = 7866;
},
{
glyphname = Emacron;
kernLeft = B;
lastChange = "2022-12-26 08:50:41 +0000";
layers = (
{
hints = (
{
horizontal = 1;
place = (-123, -76);
place = (-123, -76);
type = Stem;
},
{
horizontal = 1;
place = (207, -75);
place = (207, -75);
type = Stem;
},
{
horizontal = 1;
place = (527, -76);
place = (527, -76);
type = Stem;
},
{
horizontal = 1;
place = (693, -92);
place = (693, -92);
type = Stem;
},
{
place = (-4, -72);
place = (-4, -72);
type = Stem;
}
);
layerId = m01;
shapes = (
{
closed = 1;
nodes = (
(232,816,l),
(500,816,l),
(505,847,l),
(237,847,l)
);
},
{
closed = 1;
nodes = (
(-4,0,l),
(450,0,l),
(458,47,l),
(55,47,l),
(105,330,l),
(464,330,l),
(473,378,l),
(114,378,l),
(162,650,l),
(565,650,l),
(573,697,l),
(119,697,l)
);
}
);
width = 634;
}
);
note = Emacron;
unicode = 274;
},
{
glyphname = Eogonek;
kernLeft = B;
lastChange = "2022-12-26 08:50:41 +0000";
layers = (
{
hints = (
{
horizontal = 1;
place = (-334, -89);
place = (-334, -89);
type = Stem;
},
{
horizontal = 1;
place = (-123, -76);
place = (-123, -76);
type = Stem;
},
{
horizontal = 1;
place = (207, -75);
place = (207, -75);
type = Stem;
},
{
horizontal = 1;
place = (527, -76);
place = (527, -76);
type = Stem;
},
{
place = (-4, -72);
place = (-4, -72);
type = Stem;
},
{
place = (318, -91);
place = (318, -91);
type = Stem;
},
{
place = (405, -78);
place = (405, -78);
type = Stem;
}
);
layerId = m01;
shapes = (
{
closed = 1;
nodes = (
(438,-150,l),
(416,-167,o),
(391,-177,o),
(368,-177,cs),
(342,-177,o),
(321,-164,o),
(327,-130,cs),
(337,-72,o),
(401,-27,o),
(450,0,c),
(458,47,l),
(55,47,l),
(105,330,l),
(464,330,l),
(473,378,l),
(114,378,l),
(162,650,l),
(565,650,l),
(573,697,l),
(119,697,l),
(-4,0,l),
(405,0,l),
(357,-29,o),
(304,-78,o),
(294,-134,cs),
(286,-182,o),
(318,-211,o),
(364,-211,cs),
(397,-211,o),
(430,-195,o),
(458,-171,c)
);
}
);
width = 634;
}
);
note = Eogonek;
unicode = 280;
},
{
glyphname = uni1EBC;
kernLeft = B;
lastChange = "2022-12-26 08:50:41 +0000";
layers = (
{
hints = (
{
horizontal = 1;
place = (-123, -76);
place = (-123, -76);
type = Stem;
},
{
horizontal = 1;
place = (207, -75);
place = (207, -75);
type = Stem;
},
{
horizontal = 1;
place = (527, -76);
place = (527, -76);
type = Stem;
},
{
horizontal = 1;
place = (657, -90);
place = (657, -90);
type = Stem;
},
{
horizontal = 1;
place = (750, -91);
place = (750, -91);
type = Stem;
},
{
place = (-4, -72);
place = (-4, -72);
type = Stem;
},
{
place = (346, -91);
place = (346, -91);
type = Stem;
},
{
place = (67, -93);
place = (67, -93);
type = Stem;
}
);
layerId = m01;
shapes = (
{
closed = 1;
nodes = (
(482,780,o),
(524,827,o),
(537,901,c),
(505,901,l),
(495,847,o),
(466,813,o),
(437,813,cs),
(375,813,o),
(392,905,o),
(315,905,cs),
(261,905,o),
(219,863,o),
(206,790,c),
(236,790,l),
(246,842,o),
(273,873,o),
(308,873,cs),
(367,873,o),
(347,780,o),
(432,780,cs)
);
},
{
closed = 1;
nodes = (
(-4,0,l),
(450,0,l),
(458,47,l),
(55,47,l),
(105,330,l),
(464,330,l),
(473,378,l),
(114,378,l),
(162,650,l),
(565,650,l),
(573,697,l),
(119,697,l)
);
}
);
width = 634;
}
);
note = uni1EBC;
unicode = 7868;
},
{
glyphname = F;
kernLeft = B;
kernRight = F;
lastChange = "2022-12-26 08:50:41 +0000";
layers = (
{
hints = (
{
horizontal = 1;
place = (-123, 21);
target = up;
type = BottomGhost;
},
{
horizontal = 1;
place = (207, -75);
place = (207, -75);
type = Stem;
},
{
horizontal = 1;
place = (527, -76);
place = (527, -76);
type = Stem;
},
{
place = (-4, -72);
place = (-4, -72);
type = Stem;
}
);
layerId = m01;
shapes = (
{
closed = 1;
nodes = (
(27,0,l),
(56,50,l),
(105,330,l),
(467,330,l),
(476,378,l),
(114,378,l),
(162,650,l),
(561,650,ls),
(569,650,o),
(577,657,o),
(578,665,cs),
(584,697,l),
(119,697,l),
(-4,0,l)
);
}
);
width = 628;
}
);
note = F;
unicode = 70;
},
{
glyphname = G;
kernLeft = C;
kernRight = G;
lastChange = "2022-12-26 08:50:41 +0000";
layers = (
{
hints = (
{
horizontal = 1;
place = (-131, -75);
place = (-131, -75);
type = Stem;
},
{
horizontal = 1;
place = (189, -81);
place = (189, -81);
type = Stem;
},
{
horizontal = 1;
place = (534, -75);
place = (534, -75);
type = Stem;
},
{
place = (-48, -73);
place = (-48, -73);
type = Stem;
},
{
place = (498, -74);
place = (498, -74);
type = Stem;
},
{
horizontal = 1;
place = (-123, 21);
target = up;
type = BottomGhost;
},
{
place = (502, -77);
place = (502, -77);
type = Stem;
}
);
layerId = m01;
shapes = (
{
closed = 1;
nodes = (
(638,519,o),
(634,533,qs),
(614,617,o),
(495,705,o),
(392,705,qs),
(314,705,o),
(187,654,o),
(91,561,o),
(28,430,o),
(14,350,qs),
(0,270,o),
(16,138,o),
(78,44,o),
(183,-8,o),
(257,-8,qs),
(342,-8,o),
(483,62,o),
(521,132,q),
(505,0,l),
(527,0,l),
(556,50,l),
(610,354,l),
(403,354,ls),
(395,354,o),
(386,347,o),
(385,339,cs),
(380,312,l),
(553,312,l),
(546,271,ls),
(535,209,o),
(480,121,o),
(405,66,o),
(314,40,o),
(268,40,qs),
(200,40,o),
(111,88,o),
(62,172,o),
(53,286,o),
(64,352,qs),
(77,423,o),
(130,535,o),
(211,615,o),
(318,657,o),
(384,657,qs),
(475,657,o),
(572,578,o),
(587,501,q),
(623,513,ls)
);
}
);
width = 764;
}
);
note = G;
unicode = 71;
},
{
glyphname = Gbreve;
kernLeft = C;
kernRight = G;
lastChange = "2022-12-26 08:50:41 +0000";
layers = (
{
hints = (
{
horizontal = 1;
place = (-131, -75);
place = (-131, -75);
type = Stem;
},
{
horizontal = 1;
place = (189, -81);
place = (189, -81);
type = Stem;
},
{
horizontal = 1;
place = (534, -75);
place = (534, -75);
type = Stem;
},
{
horizontal = 1;
place = (648, -92);
place = (648, -92);
type = Stem;
},
{
place = (-48, -73);
place = (-48, -73);
type = Stem;
},
{
place = (111, -86);
place = (111, -86);
type = Stem;
},
{
place = (373, -87);
place = (373, -87);
type = Stem;
},
{
place = (498, -74);
place = (498, -74);
type = Stem;
},
{
horizontal = 1;
place = (-123, 21);
target = up;
type = BottomGhost;
},
{
place = (502, -77);
place = (502, -77);
type = Stem;
}
);
layerId = m01;
shapes = (
{
closed = 1;
nodes = (
(492,771,o),
(553,815,o),
(568,901,c),
(532,901,l),
(521,837,o),
(474,802,o),
(402,802,cs),
(332,802,o),
(296,836,o),
(307,901,c),
(270,901,l),
(255,817,o),
(298,771,o),
(396,771,cs)
);
},
{
closed = 1;
nodes = (
(388,354,l),
(380,312,l),
(553,312,l),
(546,271,ls),
(517,105,o),
(391,40,o),
(268,40,cs),
(86,40,o),
(33,177,o),
(64,352,cs),
(97,540,o),
(208,657,o),
(384,657,cs),
(505,657,o),
(567,603,o),
(587,501,c),
(638,519,l),
(613,639,o),
(535,705,o),
(392,705,cs),
(184,705,o),
(51,563,o),
(14,350,cs),
(-24,137,o),
(59,-8,o),
(257,-8,cs),
(369,-8,o),
(471,39,o),
(521,132,c),
(505,0,l),
(547,0,l),
(610,354,l)
);
}
);
width = 764;
}
);
note = Gbreve;
unicode = 286;
},
{
glyphname = uni0122;
kernLeft = C;
kernRight = G;
lastChange = "2022-12-26 08:50:41 +0000";
layers = (
{
hints = (
{
horizontal = 1;
place = (-131, -75);
place = (-131, -75);
type = Stem;
},
{
horizontal = 1;
place = (189, -81);
place = (189, -81);
type = Stem;
},
{
horizontal = 1;
place = (534, -75);
place = (534, -75);
type = Stem;
},
{
place = (-48, -73);
place = (-48, -73);
type = Stem;
},
{
place = (498, -74);
place = (498, -74);
type = Stem;
},
{
horizontal = 1;
place = (-123, 21);
target = up;
type = BottomGhost;
},
{
place = (502, -77);
place = (502, -77);
type = Stem;
}
);
layerId = m01;
shapes = (
{
closed = 1;
nodes = (
(388,354,l),
(380,312,l),
(553,312,l),
(546,271,ls),
(517,105,o),
(391,40,o),
(268,40,cs),
(86,40,o),
(33,177,o),
(64,352,cs),
(97,540,o),
(208,657,o),
(384,657,cs),
(505,657,o),
(567,603,o),
(587,501,c),
(638,519,l),
(613,639,o),
(535,705,o),
(392,705,cs),
(184,705,o),
(51,563,o),
(14,350,cs),
(-24,137,o),
(59,-8,o),
(257,-8,cs),
(369,-8,o),
(471,39,o),
(521,132,c),
(505,0,l),
(547,0,l),
(610,354,l)
);
},
{
closed = 1;
nodes = (
(98,-219,l),
(132,-219,l),
(277,-57,l),
(224,-57,l)
);
}
);
width = 764;
}
);
note = uni0122;
unicode = 290;
},
{
glyphname = Gdotaccent;
kernLeft = C;
kernRight = G;
lastChange = "2022-12-26 08:50:41 +0000";
layers = (
{
hints = (
{
horizontal = 1;
place = (-131, -75);
place = (-131, -75);
type = Stem;
},
{
horizontal = 1;
place = (189, -81);
place = (189, -81);
type = Stem;
},
{
horizontal = 1;
place = (534, -75);
place = (534, -75);
type = Stem;
},
{
horizontal = 1;
place = (680, -25);
place = (680, -25);
type = Stem;
},
{
place = (-48, -73);
place = (-48, -73);
type = Stem;
},
{
place = (232, -66);
place = (232, -66);
type = Stem;
},
{
place = (498, -74);
place = (498, -74);
type = Stem;
},
{
horizontal = 1;
place = (-123, 21);
target = up;
type = BottomGhost;
},
{
place = (502, -77);
place = (502, -77);
type = Stem;
}
);
layerId = m01;
shapes = (
{
closed = 1;
nodes = (
(448,901,l),
(391,901,l),
(374,803,l),
(431,803,l)
);
},
{
closed = 1;
nodes = (
(388,354,l),
(380,312,l),
(553,312,l),
(546,271,ls),
(517,105,o),
(391,40,o),
(268,40,cs),
(86,40,o),
(33,177,o),
(64,352,cs),
(97,540,o),
(208,657,o),
(384,657,cs),
(505,657,o),
(567,603,o),
(587,501,c),
(638,519,l),
(613,639,o),
(535,705,o),
(392,705,cs),
(184,705,o),
(51,563,o),
(14,350,cs),
(-24,137,o),
(59,-8,o),
(257,-8,cs),
(369,-8,o),
(471,39,o),
(521,132,c),
(505,0,l),
(547,0,l),
(610,354,l)
);
}
);
width = 764;
}
);
note = Gdotaccent;
unicode = 288;
},
{
glyphname = H;
kernLeft = B;
kernRight = H;
lastChange = "2022-12-26 08:50:41 +0000";
layers = (
{
hints = (
{
horizontal = 1;
place = (-123, 21);
target = up;
type = BottomGhost;
},
{
horizontal = 1;
place = (207, -74);
place = (207, -74);
type = Stem;
},
{
horizontal = 1;
place = (574, -20);
target = down;
type = TopGhost;
},
{
place = (-4, -72);
place = (-4, -72);
type = Stem;
},
{
place = (430, -71);
place = (430, -71);
type = Stem;
}
);
layerId = m01;
shapes = (
{
closed = 1;
nodes = (
(-4,0,l),
(47,0,l),
(105,330,l),
(488,330,l),
(430,0,l),
(482,0,l),
(605,697,l),
(553,697,l),
(497,379,l),
(114,379,l),
(170,697,l),
(119,697,l)
);
}
);
width = 724;
}
);
note = H;
unicode = 72;
},
{
glyphname = Hbar;
kernLeft = B;
kernRight = H;
lastChange = "2022-12-26 08:50:41 +0000";
layers = (
{
hints = (
{
horizontal = 1;
place = (-123, 21);
target = up;
type = BottomGhost;
},
{
horizontal = 1;
place = (207, -74);
place = (207, -74);
type = Stem;
},
{
horizontal = 1;
place = (400, -92);
place = (400, -92);
type = Stem;
},
{
place = (-4, -72);
place = (-4, -72);
type = Stem;
},
{
place = (430, -71);
place = (430, -71);
type = Stem;
},
{
horizontal = 1;
place = (400, 51);
place = (400, 51);
type = Stem;
}
);
layerId = m01;
shapes = (
{
closed = 1;
nodes = (
(650,554,l),
(580,554,l),
(605,697,l),
(553,697,l),
(528,554,l),
(145,554,l),
(170,697,l),
(119,697,l),
(94,554,l),
(23,554,l),
(17,523,l),
(88,523,l),
(-4,0,l),
(47,0,l),
(105,330,l),
(488,330,l),
(430,0,l),
(482,0,l),
(574,523,l),
(644,523,l)
);
},
{
closed = 1;
nodes = (
(497,379,l),
(114,379,l),
(139,523,l),
(522,523,l)
);
}
);
width = 724;
}
);
note = Hbar;
unicode = 294;
},
{
glyphname = I;
kernLeft = B;
kernRight = H;
lastChange = "2022-12-26 08:50:41 +0000";
layers = (
{
hints = (
{
horizontal = 1;
place = (-123, 21);
target = up;
type = BottomGhost;
},
{
horizontal = 1;
place = (574, -20);
target = down;
type = TopGhost;
},
{
place = (-4, -72);
place = (-4, -72);
type = Stem;
}
);
layerId = m01;
shapes = (
{
closed = 1;
nodes = (
(-4,0,l),
(47,0,l),
(170,697,l),
(119,697,l)
);
}
);
width = 289;
}
);
note = I;
unicode = 73;
},
{
glyphname = Iacute;
kernLeft = B;
kernRight = H;
lastChange = "2022-12-26 08:50:41 +0000";
layers = (
{
hints = (
{
horizontal = 1;
place = (-123, 21);
target = up;
type = BottomGhost;
},
{
horizontal = 1;
place = (574, -20);
target = down;
type = TopGhost;
},
{
horizontal = 1;
place = (638, 17);
place = (638, 17);
type = Stem;
},
{
place = (-4, -72);
place = (-4, -72);
type = Stem;
}
);
layerId = m01;
shapes = (
{
closed = 1;
nodes = (
(136,761,l),
(176,761,l),
(321,901,l),
(268,901,l)
);
},
{
closed = 1;
nodes = (
(-4,0,l),
(47,0,l),
(170,697,l),
(119,697,l)
);
}
);
width = 289;
}
);
note = Iacute;
unicode = 205;
},
{
glyphname = uni01CF;
lastChange = "2022-12-26 08:50:41 +0000";
layers = (
{
hints = (
{
horizontal = 1;
place = (-123, 21);
target = up;
type = BottomGhost;
},
{
horizontal = 1;
place = (574, -20);
target = down;
type = TopGhost;
},
{
place = (-4, -72);
place = (-4, -72);
type = Stem;
}
);
layerId = m01;
shapes = (
{
closed = 1;
nodes = (
(155,752,l),
(327,901,l),
(284,901,l),
(162,796,l),
(78,901,l),
(34,901,l)
);
},
{
closed = 1;
nodes = (
(-4,0,l),
(47,0,l),
(170,697,l),
(119,697,l)
);
}
);
width = 289;
}
);
note = uni01CF;
unicode = 463;
},
{
glyphname = Icircumflex;
kernLeft = B;
kernRight = H;
lastChange = "2022-12-26 08:50:41 +0000";
layers = (
{
hints = (
{
horizontal = 1;
place = (-123, 21);
target = up;
type = BottomGhost;
},
{
horizontal = 1;
place = (574, -20);
target = down;
type = TopGhost;
},
{
place = (-4, -72);
place = (-4, -72);
type = Stem;
}
);
layerId = m01;
shapes = (
{
closed = 1;
nodes = (
(8,755,l),
(52,755,l),
(174,862,l),
(258,755,l),
(301,755,l),
(182,908,l)
);
},
{
closed = 1;
nodes = (
(-4,0,l),
(47,0,l),
(170,697,l),
(119,697,l)
);
}
);
width = 289;
}
);
note = Icircumflex;
unicode = 206;
},
{
glyphname = Idieresis;
kernLeft = B;
kernRight = H;
lastChange = "2022-12-26 08:50:41 +0000";
layers = (
{
hints = (
{
horizontal = 1;
place = (-123, 21);
target = up;
type = BottomGhost;
},
{
horizontal = 1;
place = (574, -20);
target = down;
type = TopGhost;
},
{
horizontal = 1;
place = (680, -25);
place = (680, -25);
type = Stem;
},
{
place = (-94, -66);
place = (-94, -66);
type = Stem;
},
{
place = (-4, -72);
place = (-4, -72);
type = Stem;
},
{
place = (81, -67);
place = (81, -67);
type = Stem;
}
);
layerId = m01;
shapes = (
{
closed = 1;
nodes = (
(48,803,l),
(105,803,l),
(122,901,l),
(65,901,l)
);
},
{
closed = 1;
nodes = (
(223,803,l),
(279,803,l),
(296,901,l),
(240,901,l)
);
},
{
closed = 1;
nodes = (
(-4,0,l),
(47,0,l),
(170,697,l),
(119,697,l)
);
}
);
width = 289;
}
);
note = Idieresis;
unicode = 207;
},
{
glyphname = Idotaccent;
kernLeft = B;
kernRight = H;
lastChange = "2022-12-26 08:50:41 +0000";
layers = (
{
hints = (
{
horizontal = 1;
place = (-123, 21);
target = up;
type = BottomGhost;
},
{
horizontal = 1;
place = (574, -20);
target = down;
type = TopGhost;
},
{
horizontal = 1;
place = (680, -25);
place = (680, -25);
type = Stem;
},
{
place = (-7, -66);
place = (-7, -66);
type = Stem;
},
{
place = (-4, -72);
place = (-4, -72);
type = Stem;
}
);
layerId = m01;
shapes = (
{
closed = 1;
nodes = (
(135,803,l),
(192,803,l),
(209,901,l),
(152,901,l)
);
},
{
closed = 1;
nodes = (
(-4,0,l),
(47,0,l),
(170,697,l),
(119,697,l)
);
}
);
width = 289;
}
);
note = Idotaccent;
unicode = 304;
},
{
glyphname = uni1ECA;
lastChange = "2022-12-26 08:50:41 +0000";
layers = (
{
hints = (
{
horizontal = 1;
place = (-296, -26);
place = (-296, -26);
type = Stem;
},
{
horizontal = 1;
place = (-123, 21);
target = up;
type = BottomGhost;
},
{
horizontal = 1;
place = (574, -20);
target = down;
type = TopGhost;
},
{
place = (-4, -72);
place = (-4, -72);
type = Stem;
},
{
place = (-7, -66);
place = (-7, -66);
type = Stem;
}
);
layerId = m01;
shapes = (
{
closed = 1;
nodes = (
(-4,0,l),
(47,0,l),
(170,697,l),
(119,697,l)
);
},
{
closed = 1;
nodes = (
(-37,-173,l),
(20,-173,l),
(37,-76,l),
(-20,-76,l)
);
}
);
width = 289;
}
);
note = uni1ECA;
unicode = 7882;
},
{
glyphname = Igrave;
kernLeft = B;
kernRight = H;
lastChange = "2022-12-26 08:50:41 +0000";
layers = (
{
hints = (
{
horizontal = 1;
place = (-123, 21);
target = up;
type = BottomGhost;
},
{
horizontal = 1;
place = (574, -20);
target = down;
type = TopGhost;
},
{
horizontal = 1;
place = (638, 17);
place = (638, 17);
type = Stem;
},
{
place = (-4, -72);
place = (-4, -72);
type = Stem;
}
);
layerId = m01;
shapes = (
{
closed = 1;
nodes = (
(135,761,l),
(175,761,l),
(96,901,l),
(43,901,l)
);
},
{
closed = 1;
nodes = (
(-4,0,l),
(47,0,l),
(170,697,l),
(119,697,l)
);
}
);
width = 289;
}
);
note = Igrave;
unicode = 204;
},
{
glyphname = uni1EC8;
lastChange = "2022-12-26 08:50:41 +0000";
layers = (
{
hints = (
{
horizontal = 1;
place = (-123, 21);
target = up;
type = BottomGhost;
},
{
horizontal = 1;
place = (574, -20);
target = down;
type = TopGhost;
},
{
horizontal = 1;
place = (769, -93);
place = (769, -93);
type = Stem;
},
{
place = (-4, -72);
place = (-4, -72);
type = Stem;
},
{
place = (93, -87);
place = (93, -87);
type = Stem;
}
);
layerId = m01;
shapes = (
{
closed = 1;
nodes = (
(147,736,l),
(197,747,o),
(262,756,o),
(275,825,cs),
(286,888,o),
(233,922,o),
(157,922,cs),
(142,922,l),
(136,892,l),
(151,892,ls),
(202,892,o),
(247,874,o),
(239,826,cs),
(231,780,o),
(183,773,o),
(143,766,c)
);
},
{
closed = 1;
nodes = (
(-4,0,l),
(47,0,l),
(170,697,l),
(119,697,l)
);
}
);
width = 289;
}
);
note = uni1EC8;
unicode = 7880;
},
{
glyphname = Imacron;
kernLeft = B;
kernRight = H;
lastChange = "2022-12-26 08:50:41 +0000";
layers = (
{
hints = (
{
horizontal = 1;
place = (-123, 21);
target = up;
type = BottomGhost;
},
{
horizontal = 1;
place = (574, -20);
target = down;
type = TopGhost;
},
{
horizontal = 1;
place = (693, -92);
place = (693, -92);
type = Stem;
},
{
place = (-4, -72);
place = (-4, -72);
type = Stem;
}
);
layerId = m01;
shapes = (
{
closed = 1;
nodes = (
(31,816,l),
(299,816,l),
(304,847,l),
(36,847,l)
);
},
{
closed = 1;
nodes = (
(-4,0,l),
(47,0,l),
(170,697,l),
(119,697,l)
);
}
);
width = 289;
}
);
note = Imacron;
unicode = 298;
},
{
glyphname = Iogonek;
kernLeft = B;
kernRight = H;
lastChange = "2022-12-26 08:50:41 +0000";
layers = (
{
hints = (
{
horizontal = 1;
place = (-334, -89);
place = (-334, -89);
type = Stem;
},
{
horizontal = 1;
place = (-123, 21);
target = up;
type = BottomGhost;
},
{
horizontal = 1;
place = (574, -20);
target = down;
type = TopGhost;
},
{
place = (-86, -91);
place = (-86, -91);
type = Stem;
},
{
place = (-4, -72);
place = (-4, -72);
type = Stem;
}
);
layerId = m01;
shapes = (
{
closed = 1;
nodes = (
(34,-150,l),
(12,-167,o),
(-13,-177,o),
(-36,-177,cs),
(-62,-177,o),
(-83,-164,o),
(-77,-130,cs),
(-67,-72,o),
(-3,-27,o),
(46,0,c),
(47,0,l),
(170,697,l),
(119,697,l),
(-4,0,l),
(1,0,l),
(-47,-29,o),
(-100,-78,o),
(-110,-134,cs),
(-118,-182,o),
(-86,-211,o),
(-40,-211,cs),
(-7,-211,o),
(26,-195,o),
(54,-171,c)
);
}
);
width = 289;
}
);
note = Iogonek;
unicode = 302;
},
{
glyphname = Itilde;
lastChange = "2022-12-26 08:50:41 +0000";
layers = (
{
hints = (
{
horizontal = 1;
place = (-123, 21);
target = up;
type = BottomGhost;
},
{
horizontal = 1;
place = (574, -20);
target = down;
type = TopGhost;
},
{
horizontal = 1;
place = (657, -90);
place = (657, -90);
type = Stem;
},
{
horizontal = 1;
place = (750, -91);
place = (750, -91);
type = Stem;
},
{
place = (-134, -93);
place = (-134, -93);
type = Stem;
},
{
place = (-4, -72);
place = (-4, -72);
type = Stem;
},
{
place = (145, -91);
place = (145, -91);
type = Stem;
}
);
layerId = m01;
shapes = (
{
closed = 1;
nodes = (
(281,780,o),
(323,827,o),
(336,901,c),
(304,901,l),
(294,847,o),
(265,813,o),
(236,813,cs),
(174,813,o),
(191,905,o),
(114,905,cs),
(60,905,o),
(18,863,o),
(5,790,c),
(35,790,l),
(45,842,o),
(72,873,o),
(107,873,cs),
(166,873,o),
(146,780,o),
(231,780,cs)
);
},
{
closed = 1;
nodes = (
(-4,0,l),
(47,0,l),
(170,697,l),
(119,697,l)
);
}
);
width = 289;
}
);
note = Itilde;
unicode = 296;
},
{
glyphname = J;
kernLeft = J;
kernRight = J;
lastChange = "2022-12-26 08:50:41 +0000";
layers = (
{
hints = (
{
horizontal = 1;
place = (-131, -75);
place = (-131, -75);
type = Stem;
},
{
horizontal = 1;
place = (527, -76);
place = (527, -76);
type = Stem;
},
{
place = (-76, -73);
place = (-76, -73);
type = Stem;
},
{
place = (306, -73);
place = (306, -73);
type = Stem;
}
);
layerId = m01;
shapes = (
{
closed = 1;
nodes = (
(-42,199,o),
(-42,184,qs),
(-48,93,o),
(50,-8,o),
(141,-8,qs),
(245,-8,o),
(378,125,o),
(401,252,qs),
(479,697,l),
(183,697,l),
(135,673,l),
(131,650,l),
(421,650,l),
(351,254,ls),
(313,40,o),
(149,40,qs),
(74,40,o),
(1,126,o),
(10,205,q),
(-25,201,ls)
);
}
);
width = 586;
}
);
note = J;
unicode = 74;
},
{
glyphname = K;
kernLeft = B;
kernRight = K;
lastChange = "2022-12-26 08:50:41 +0000";
layers = (
{
hints = (
{
horizontal = 1;
place = (-123, 21);
target = up;
type = BottomGhost;
},
{
horizontal = 1;
place = (574, -20);
target = down;
type = TopGhost;
},
{
place = (-4, -72);
place = (-4, -72);
type = Stem;
}
);
layerId = m01;
shapes = (
{
closed = 1;
nodes = (
(487,0,o),
(480,13,qs),
(297,396,l),
(644,697,l),
(576,697,l),
(96,275,l),
(170,697,l),
(145,697,l),
(110,647,l),
(-4,0,l),
(47,0,l),
(83,206,l),
(256,360,l),
(427,0,l),
(471,0,ls)
);
}
);
width = 705;
}
);
note = K;
unicode = 75;
},
{
glyphname = uni0136;
kernLeft = B;
kernRight = K;
lastChange = "2022-12-26 08:50:41 +0000";
layers = (
{
hints = (
{
horizontal = 1;
place = (-123, 21);
target = up;
type = BottomGhost;
},
{
horizontal = 1;
place = (574, -20);
target = down;
type = TopGhost;
},
{
place = (-4, -72);
place = (-4, -72);
type = Stem;
}
);
layerId = m01;
shapes = (
{
closed = 1;
nodes = (
(356,446,l),
(644,697,l),
(576,697,l),
(96,275,l),
(170,697,l),
(119,697,l),
(-4,0,l),
(47,0,l),
(84,210,l),
(314,410,l),
(479,0,l),
(538,0,l)
);
},
{
closed = 1;
nodes = (
(67,-219,l),
(101,-219,l),
(246,-57,l),
(193,-57,l)
);
}
);
width = 705;
}
);
note = uni0136;
unicode = 310;
},
{
glyphname = L;
kernLeft = B;
kernRight = L;
lastChange = "2022-12-26 08:50:41 +0000";
layers = (
{
hints = (
{
horizontal = 1;
place = (-123, -76);
place = (-123, -76);
type = Stem;
},
{
horizontal = 1;
place = (574, -20);
target = down;
type = TopGhost;
},
{
place = (-4, -72);
place = (-4, -72);
type = Stem;
}
);
layerId = m01;
shapes = (
{
closed = 1;
nodes = (
(-4,0,l),
(372,0,l),
(380,47,l),
(55,47,l),
(170,697,l),
(119,697,l)
);
}
);
width = 534;
}
);
note = L;
unicode = 76;
},
{
glyphname = Lacute;
kernLeft = B;
kernRight = L;
lastChange = "2022-12-26 08:50:41 +0000";
layers = (
{
hints = (
{
horizontal = 1;
place = (-123, -76);
place = (-123, -76);
type = Stem;
},
{
horizontal = 1;
place = (574, -20);
target = down;
type = TopGhost;
},
{
horizontal = 1;
place = (638, 17);
place = (638, 17);
type = Stem;
},
{
place = (-4, -72);
place = (-4, -72);
type = Stem;
}
);
layerId = m01;
shapes = (
{
closed = 1;
nodes = (
(136,761,l),
(176,761,l),
(321,901,l),
(268,901,l)
);
},
{
closed = 1;
nodes = (
(-4,0,l),
(372,0,l),
(380,47,l),
(55,47,l),
(170,697,l),
(119,697,l)
);
}
);
width = 534;
}
);
note = Lacute;
unicode = 313;
},
{
glyphname = Lcaron;
kernLeft = B;
kernRight = L;
lastChange = "2022-12-26 08:50:41 +0000";
layers = (
{
hints = (
{
horizontal = 1;
place = (-123, -76);
place = (-123, -76);
type = Stem;
},
{
horizontal = 1;
place = (574, -20);
target = down;
type = TopGhost;
},
{
place = (-4, -72);
place = (-4, -72);
type = Stem;
}
);
layerId = m01;
shapes = (
{
closed = 1;
nodes = (
(-4,0,l),
(372,0,l),
(380,47,l),
(55,47,l),
(170,697,l),
(119,697,l)
);
},
{
closed = 1;
nodes = (
(315,495,l),
(346,495,l),
(461,697,l),
(409,697,l)
);
}
);
width = 534;
}
);
note = Lcaron;
unicode = 317;
},
{
glyphname = uni013B;
kernLeft = B;
kernRight = L;
lastChange = "2022-12-26 08:50:41 +0000";
layers = (
{
hints = (
{
horizontal = 1;
place = (-123, -76);
place = (-123, -76);
type = Stem;
},
{
horizontal = 1;
place = (574, -20);
target = down;
type = TopGhost;
},
{
place = (-4, -72);
place = (-4, -72);
type = Stem;
}
);
layerId = m01;
shapes = (
{
closed = 1;
nodes = (
(-4,0,l),
(372,0,l),
(380,47,l),
(55,47,l),
(170,697,l),
(119,697,l)
);
},
{
closed = 1;
nodes = (
(22,-219,l),
(56,-219,l),
(201,-57,l),
(148,-57,l)
);
}
);
width = 534;
}
);
note = uni013B;
unicode = 315;
},
{
glyphname = Lslash;
lastChange = "2022-12-26 08:50:41 +0000";
layers = (
{
hints = (
{
horizontal = 1;
place = (-123, -76);
place = (-123, -76);
type = Stem;
},
{
horizontal = 1;
place = (574, -20);
target = down;
type = TopGhost;
},
{
place = (-4, -72);
place = (-4, -72);
type = Stem;
}
);
layerId = m01;
shapes = (
{
closed = 1;
nodes = (
(55,47,l),
(102,312,l),
(311,456,l),
(320,508,l),
(111,364,l),
(170,697,l),
(119,697,l),
(53,323,l),
(-15,276,l),
(-24,224,l),
(44,271,l),
(-4,0,l),
(372,0,l),
(380,47,l)
);
}
);
width = 534;
}
);
note = Lslash;
unicode = 321;
},
{
glyphname = M;
kernLeft = B;
kernRight = H;
lastChange = "2022-12-26 08:50:41 +0000";
layers = (
{
hints = (
{
horizontal = 1;
place = (-123, 21);
target = up;
type = BottomGhost;
},
{
horizontal = 1;
place = (509, -58);
place = (509, -58);
type = Stem;
},
{
place = (-4, -72);
place = (-4, -72);
type = Stem;
},
{
place = (588, -71);
place = (588, -71);
type = Stem;
}
);
layerId = m01;
shapes = (
{
closed = 1;
nodes = (
(47,0,o),
(50,15,qs),
(159,632,l),
(303,57,l),
(353,57,l),
(700,632,l),
(591,15,ls),
(588,0,o),
(603,0,qs),
(640,0,l),
(763,697,l),
(687,697,l),
(339,116,l),
(194,697,l),
(119,697,l),
(-4,0,l),
(32,0,ls)
);
}
);
width = 882;
}
);
note = M;
unicode = 77;
},
{
glyphname = N;
kernLeft = B;
kernRight = H;
lastChange = "2022-12-26 08:50:41 +0000";
layers = (
{
hints = (
{
horizontal = 1;
place = (-123, 21);
target = up;
type = BottomGhost;
},
{
horizontal = 1;
place = (574, -20);
target = down;
type = TopGhost;
},
{
place = (-4, -72);
place = (-4, -72);
type = Stem;
},
{
place = (417, -73);
place = (417, -73);
type = Stem;
},
{
horizontal = 1;
place = (-123, -39);
place = (-123, -39);
type = Stem;
},
{
horizontal = 1;
place = (490, -39);
place = (490, -39);
type = Stem;
}
);
layerId = m01;
shapes = (
{
closed = 1;
nodes = (
(432,84,l),
(176,697,l),
(119,697,l),
(-4,0,l),
(22,0,l),
(56,50,l),
(155,613,l),
(409,0,l),
(467,0,l),
(590,697,l),
(540,697,l)
);
}
);
width = 709;
}
);
note = N;
unicode = 78;
},
{
glyphname = Nacute;
kernLeft = B;
kernRight = H;
lastChange = "2022-12-26 08:50:41 +0000";
layers = (
{
hints = (
{
horizontal = 1;
place = (-123, 21);
target = up;
type = BottomGhost;
},
{
horizontal = 1;
place = (574, -20);
target = down;
type = TopGhost;
},
{
horizontal = 1;
place = (638, 17);
place = (638, 17);
type = Stem;
},
{
place = (-4, -72);
place = (-4, -72);
type = Stem;
},
{
place = (417, -73);
place = (417, -73);
type = Stem;
},
{
horizontal = 1;
place = (-123, -39);
place = (-123, -39);
type = Stem;
},
{
horizontal = 1;
place = (490, -39);
place = (490, -39);
type = Stem;
}
);
layerId = m01;
shapes = (
{
closed = 1;
nodes = (
(531,901,l),
(478,901,l),
(346,761,l),
(386,761,l)
);
},
{
closed = 1;
nodes = (
(540,697,l),
(432,84,l),
(176,697,l),
(119,697,l),
(-4,0,l),
(47,0,l),
(155,613,l),
(409,0,l),
(467,0,l),
(590,697,l)
);
}
);
width = 709;
}
);
note = Nacute;
unicode = 323;
},
{
glyphname = Ncaron;
kernLeft = B;
kernRight = H;
lastChange = "2022-12-26 08:50:41 +0000";
layers = (
{
hints = (
{
horizontal = 1;
place = (-123, 21);
target = up;
type = BottomGhost;
},
{
horizontal = 1;
place = (574, -20);
target = down;
type = TopGhost;
},
{
place = (-4, -72);
place = (-4, -72);
type = Stem;
},
{
place = (417, -73);
place = (417, -73);
type = Stem;
},
{
horizontal = 1;
place = (-123, -39);
place = (-123, -39);
type = Stem;
},
{
horizontal = 1;
place = (490, -39);
place = (490, -39);
type = Stem;
}
);
layerId = m01;
shapes = (
{
closed = 1;
nodes = (
(537,901,l),
(494,901,l),
(372,796,l),
(288,901,l),
(244,901,l),
(365,752,l)
);
},
{
closed = 1;
nodes = (
(540,697,l),
(432,84,l),
(176,697,l),
(119,697,l),
(-4,0,l),
(47,0,l),
(155,613,l),
(409,0,l),
(467,0,l),
(590,697,l)
);
}
);
width = 709;
}
);
note = Ncaron;
unicode = 327;
},
{
glyphname = uni0145;
kernLeft = B;
kernRight = H;
lastChange = "2022-12-26 08:50:41 +0000";
layers = (
{
hints = (
{
horizontal = 1;
place = (-123, 21);
target = up;
type = BottomGhost;
},
{
horizontal = 1;
place = (574, -20);
target = down;
type = TopGhost;
},
{
place = (-4, -72);
place = (-4, -72);
type = Stem;
},
{
place = (417, -73);
place = (417, -73);
type = Stem;
},
{
horizontal = 1;
place = (-123, -39);
place = (-123, -39);
type = Stem;
},
{
horizontal = 1;
place = (490, -39);
place = (490, -39);
type = Stem;
}
);
layerId = m01;
shapes = (
{
closed = 1;
nodes = (
(540,697,l),
(432,84,l),
(176,697,l),
(119,697,l),
(-4,0,l),
(47,0,l),
(155,613,l),
(409,0,l),
(467,0,l),
(590,697,l)
);
},
{
closed = 1;
nodes = (
(69,-219,l),
(103,-219,l),
(248,-57,l),
(195,-57,l)
);
}
);
width = 709;
}
);
note = uni0145;
unicode = 325;
},
{
glyphname = Eng;
kernLeft = B;
kernRight = H;
lastChange = "2022-12-26 08:50:41 +0000";
layers = (
{
hints = (
{
horizontal = 1;
place = (-290, -86);
place = (-290, -86);
type = Stem;
},
{
horizontal = 1;
place = (-123, 21);
target = up;
type = BottomGhost;
},
{
horizontal = 1;
place = (574, -20);
target = down;
type = TopGhost;
},
{
place = (-4, -72);
place = (-4, -72);
type = Stem;
},
{
place = (417, -73);
place = (417, -73);
type = Stem;
},
{
horizontal = 1;
place = (490, -39);
place = (490, -39);
type = Stem;
},
{
place = (419, -75);
place = (419, -75);
type = Stem;
}
);
layerId = m01;
shapes = (
{
closed = 1;
nodes = (
(540,697,l),
(432,83,l),
(176,697,l),
(119,697,l),
(-4,0,l),
(47,0,l),
(155,613,l),
(409,0,ls),
(413,-9,o),
(415,-21,o),
(413,-36,cs),
(404,-85,o),
(369,-130,o),
(296,-130,cs),
(282,-130,o),
(259,-126,o),
(241,-119,c),
(232,-154,l),
(254,-162,o),
(282,-167,o),
(302,-167,cs),
(398,-167,o),
(449,-103,o),
(464,-18,cs),
(590,697,l)
);
}
);
width = 709;
}
);
note = Eng;
unicode = 330;
},
{
glyphname = Ntilde;
kernLeft = B;
kernRight = H;
lastChange = "2022-12-26 08:50:41 +0000";
layers = (
{
hints = (
{
horizontal = 1;
place = (-123, 21);
target = up;
type = BottomGhost;
},
{
horizontal = 1;
place = (574, -20);
target = down;
type = TopGhost;
},
{
horizontal = 1;
place = (657, -90);
place = (657, -90);
type = Stem;
},
{
horizontal = 1;
place = (750, -91);
place = (750, -91);
type = Stem;
},
{
place = (-4, -72);
place = (-4, -72);
type = Stem;
},
{
place = (76, -93);
place = (76, -93);
type = Stem;
},
{
place = (355, -91);
place = (355, -91);
type = Stem;
},
{
place = (417, -73);
place = (417, -73);
type = Stem;
},
{
horizontal = 1;
place = (-123, -39);
place = (-123, -39);
type = Stem;
},
{
horizontal = 1;
place = (490, -39);
place = (490, -39);
type = Stem;
}
);
layerId = m01;
shapes = (
{
closed = 1;
nodes = (
(376,873,o),
(356,780,o),
(441,780,cs),
(491,780,o),
(533,827,o),
(546,901,c),
(514,901,l),
(504,847,o),
(475,813,o),
(446,813,cs),
(384,813,o),
(401,905,o),
(324,905,cs),
(270,905,o),
(228,863,o),
(215,790,c),
(245,790,l),
(255,842,o),
(282,873,o),
(317,873,cs)
);
},
{
closed = 1;
nodes = (
(540,697,l),
(432,84,l),
(176,697,l),
(119,697,l),
(-4,0,l),
(47,0,l),
(155,613,l),
(409,0,l),
(467,0,l),
(590,697,l)
);
}
);
width = 709;
}
);
note = Ntilde;
unicode = 209;
},
{
glyphname = O;
kernLeft = C;
kernRight = D;
lastChange = "2022-12-26 08:50:41 +0000";
layers = (
{
hints = (
{
horizontal = 1;
place = (-131, -75);
place = (-131, -75);
type = Stem;
},
{
horizontal = 1;
place = (534, -75);
place = (534, -75);
type = Stem;
},
{
place = (-50, -72);
place = (-50, -72);
type = Stem;
},
{
place = (527, -72);
place = (527, -72);
type = Stem;
}
);
layerId = m01;
shapes = (
{
closed = 1;
nodes = (
(452,-8,o),
(602,133,o),
(639,348,cs),
(677,563,o),
(576,705,o),
(388,705,cs),
(199,705,o),
(50,564,o),
(11,348,cs),
(-26,133,o),
(74,-8,o),
(263,-8,cs)
);
},
{
closed = 1;
nodes = (
(108,29,o),
(29,160,o),
(62,348,cs),
(96,537,o),
(221,667,o),
(382,667,cs),
(542,667,o),
(622,537,o),
(588,348,cs),
(555,160,o),
(429,29,o),
(269,29,cs)
);
}
);
width = 774;
}
);
note = O;
unicode = 79;
},
{
glyphname = Oacute;
kernLeft = C;
kernRight = D;
lastChange = "2022-12-26 08:50:41 +0000";
layers = (
{
hints = (
{
horizontal = 1;
place = (-131, -75);
place = (-131, -75);
type = Stem;
},
{
horizontal = 1;
place = (534, -75);
place = (534, -75);
type = Stem;
},
{
horizontal = 1;
place = (638, 17);
place = (638, 17);
type = Stem;
},
{
place = (-50, -72);
place = (-50, -72);
type = Stem;
},
{
place = (527, -72);
place = (527, -72);
type = Stem;
}
);
layerId = m01;
shapes = (
{
closed = 1;
nodes = (
(378,761,l),
(418,761,l),
(563,901,l),
(510,901,l)
);
},
{
closed = 1;
nodes = (
(452,-8,o),
(602,133,o),
(639,348,cs),
(677,563,o),
(576,705,o),
(388,705,cs),
(199,705,o),
(50,564,o),
(11,348,cs),
(-26,133,o),
(74,-8,o),
(263,-8,cs)
);
},
{
closed = 1;
nodes = (
(110,40,o),
(29,160,o),
(62,348,cs),
(96,537,o),
(219,657,o),
(380,657,cs),
(540,657,o),
(622,537,o),
(588,348,cs),
(555,160,o),
(431,40,o),
(271,40,cs)
);
}
);
width = 774;
}
);
note = Oacute;
unicode = 211;
},
{
glyphname = uni01D1;
kernLeft = C;
kernRight = D;
lastChange = "2022-12-26 08:50:41 +0000";
layers = (
{
hints = (
{
horizontal = 1;
place = (-131, -75);
place = (-131, -75);
type = Stem;
},
{
horizontal = 1;
place = (534, -75);
place = (534, -75);
type = Stem;
},
{
place = (-50, -72);
place = (-50, -72);
type = Stem;
},
{
place = (527, -72);
place = (527, -72);
type = Stem;
}
);
layerId = m01;
shapes = (
{
closed = 1;
nodes = (
(397,752,l),
(569,901,l),
(526,901,l),
(404,796,l),
(320,901,l),
(276,901,l)
);
},
{
closed = 1;
nodes = (
(452,-8,o),
(602,133,o),
(639,348,cs),
(677,563,o),
(576,705,o),
(388,705,cs),
(199,705,o),
(50,564,o),
(11,348,cs),
(-26,133,o),
(74,-8,o),
(263,-8,cs)
);
},
{
closed = 1;
nodes = (
(110,40,o),
(29,160,o),
(62,348,cs),
(96,537,o),
(219,657,o),
(380,657,cs),
(540,657,o),
(622,537,o),
(588,348,cs),
(555,160,o),
(431,40,o),
(271,40,cs)
);
}
);
width = 774;
}
);
note = uni01D1;
unicode = 465;
},
{
glyphname = Ocircumflex;
kernLeft = C;
kernRight = D;
lastChange = "2022-12-26 08:50:41 +0000";
layers = (
{
hints = (
{
horizontal = 1;
place = (-131, -75);
place = (-131, -75);
type = Stem;
},
{
horizontal = 1;
place = (534, -75);
place = (534, -75);
type = Stem;
},
{
place = (-50, -72);
place = (-50, -72);
type = Stem;
},
{
place = (527, -72);
place = (527, -72);
type = Stem;
}
);
layerId = m01;
shapes = (
{
closed = 1;
nodes = (
(250,755,l),
(294,755,l),
(416,862,l),
(500,755,l),
(543,755,l),
(424,908,l)
);
},
{
closed = 1;
nodes = (
(452,-8,o),
(602,133,o),
(639,348,cs),
(677,563,o),
(576,705,o),
(388,705,cs),
(199,705,o),
(50,564,o),
(11,348,cs),
(-26,133,o),
(74,-8,o),
(263,-8,cs)
);
},
{
closed = 1;
nodes = (
(110,40,o),
(29,160,o),
(62,348,cs),
(96,537,o),
(219,657,o),
(380,657,cs),
(540,657,o),
(622,537,o),
(588,348,cs),
(555,160,o),
(431,40,o),
(271,40,cs)
);
}
);
width = 774;
}
);
note = Ocircumflex;
unicode = 212;
},
{
glyphname = uni1ED0;
kernLeft = C;
kernRight = D;
lastChange = "2022-12-26 08:50:41 +0000";
layers = (
{
hints = (
{
horizontal = 1;
place = (-131, -75);
place = (-131, -75);
type = Stem;
},
{
horizontal = 1;
place = (534, -75);
place = (534, -75);
type = Stem;
},
{
horizontal = 1;
place = (827, 17);
place = (827, 17);
type = Stem;
},
{
place = (-50, -72);
place = (-50, -72);
type = Stem;
},
{
place = (527, -72);
place = (527, -72);
type = Stem;
}
);
layerId = m01;
shapes = (
{
closed = 1;
nodes = (
(412,950,l),
(452,950,l),
(596,1090,l),
(543,1090,l)
);
},
{
closed = 1;
nodes = (
(250,755,l),
(294,755,l),
(416,862,l),
(500,755,l),
(543,755,l),
(424,908,l)
);
},
{
closed = 1;
nodes = (
(452,-8,o),
(602,133,o),
(639,348,cs),
(677,563,o),
(576,705,o),
(388,705,cs),
(199,705,o),
(50,564,o),
(11,348,cs),
(-26,133,o),
(74,-8,o),
(263,-8,cs)
);
},
{
closed = 1;
nodes = (
(110,40,o),
(29,160,o),
(62,348,cs),
(96,537,o),
(219,657,o),
(380,657,cs),
(540,657,o),
(622,537,o),
(588,348,cs),
(555,160,o),
(431,40,o),
(271,40,cs)
);
}
);
width = 774;
}
);
note = uni1ED0;
unicode = 7888;
},
{
glyphname = uni1ED8;
kernLeft = C;
kernRight = D;
lastChange = "2022-12-26 08:50:41 +0000";
layers = (
{
hints = (
{
horizontal = 1;
place = (-296, -26);
place = (-296, -26);
type = Stem;
},
{
horizontal = 1;
place = (-131, -75);
place = (-131, -75);
type = Stem;
},
{
horizontal = 1;
place = (534, -75);
place = (534, -75);
type = Stem;
},
{
place = (-50, -72);
place = (-50, -72);
type = Stem;
},
{
place = (236, -66);
place = (236, -66);
type = Stem;
},
{
place = (527, -72);
place = (527, -72);
type = Stem;
}
);
layerId = m01;
shapes = (
{
closed = 1;
nodes = (
(250,755,l),
(294,755,l),
(416,862,l),
(500,755,l),
(543,755,l),
(424,908,l)
);
},
{
closed = 1;
nodes = (
(452,-8,o),
(602,133,o),
(639,348,cs),
(677,563,o),
(576,705,o),
(388,705,cs),
(199,705,o),
(50,564,o),
(11,348,cs),
(-26,133,o),
(74,-8,o),
(263,-8,cs)
);
},
{
closed = 1;
nodes = (
(110,40,o),
(29,160,o),
(62,348,cs),
(96,537,o),
(219,657,o),
(380,657,cs),
(540,657,o),
(622,537,o),
(588,348,cs),
(555,160,o),
(431,40,o),
(271,40,cs)
);
},
{
closed = 1;
nodes = (
(206,-173,l),
(263,-173,l),
(280,-76,l),
(223,-76,l)
);
}
);
width = 774;
}
);
note = uni1ED8;
unicode = 7896;
},
{
glyphname = uni1ED2;
kernLeft = C;
kernRight = D;
lastChange = "2022-12-26 08:50:41 +0000";
layers = (
{
hints = (
{
horizontal = 1;
place = (-131, -75);
place = (-131, -75);
type = Stem;
},
{
horizontal = 1;
place = (534, -75);
place = (534, -75);
type = Stem;
},
{
horizontal = 1;
place = (827, 17);
place = (827, 17);
type = Stem;
},
{
place = (-50, -72);
place = (-50, -72);
type = Stem;
},
{
place = (527, -72);
place = (527, -72);
type = Stem;
}
);
layerId = m01;
shapes = (
{
closed = 1;
nodes = (
(412,950,l),
(452,950,l),
(372,1090,l),
(319,1090,l)
);
},
{
closed = 1;
nodes = (
(250,755,l),
(294,755,l),
(416,862,l),
(500,755,l),
(543,755,l),
(424,908,l)
);
},
{
closed = 1;
nodes = (
(452,-8,o),
(602,133,o),
(639,348,cs),
(677,563,o),
(576,705,o),
(388,705,cs),
(199,705,o),
(50,564,o),
(11,348,cs),
(-26,133,o),
(74,-8,o),
(263,-8,cs)
);
},
{
closed = 1;
nodes = (
(110,40,o),
(29,160,o),
(62,348,cs),
(96,537,o),
(219,657,o),
(380,657,cs),
(540,657,o),
(622,537,o),
(588,348,cs),
(555,160,o),
(431,40,o),
(271,40,cs)
);
}
);
width = 774;
}
);
note = uni1ED2;
unicode = 7890;
},
{
glyphname = uni1ED4;
kernLeft = C;
kernRight = D;
lastChange = "2022-12-26 08:50:41 +0000";
layers = (
{
hints = (
{
horizontal = 1;
place = (-131, -75);
place = (-131, -75);
type = Stem;
},
{
horizontal = 1;
place = (534, -75);
place = (534, -75);
type = Stem;
},
{
horizontal = 1;
place = (958, -93);
place = (958, -93);
type = Stem;
},
{
place = (-50, -72);
place = (-50, -72);
type = Stem;
},
{
place = (335, -87);
place = (335, -87);
type = Stem;
},
{
place = (527, -72);
place = (527, -72);
type = Stem;
}
);
layerId = m01;
shapes = (
{
closed = 1;
nodes = (
(422,925,l),
(472,936,o),
(538,945,o),
(550,1014,cs),
(561,1077,o),
(508,1111,o),
(432,1111,cs),
(417,1111,l),
(412,1081,l),
(427,1081,ls),
(478,1081,o),
(523,1063,o),
(514,1015,cs),
(506,969,o),
(459,962,o),
(418,955,c)
);
},
{
closed = 1;
nodes = (
(250,755,l),
(294,755,l),
(416,862,l),
(500,755,l),
(543,755,l),
(424,908,l)
);
},
{
closed = 1;
nodes = (
(452,-8,o),
(602,133,o),
(639,348,cs),
(677,563,o),
(576,705,o),
(388,705,cs),
(199,705,o),
(50,564,o),
(11,348,cs),
(-26,133,o),
(74,-8,o),
(263,-8,cs)
);
},
{
closed = 1;
nodes = (
(110,40,o),
(29,160,o),
(62,348,cs),
(96,537,o),
(219,657,o),
(380,657,cs),
(540,657,o),
(622,537,o),
(588,348,cs),
(555,160,o),
(431,40,o),
(271,40,cs)
);
}
);
width = 774;
}
);
note = uni1ED4;
unicode = 7892;
},
{
glyphname = uni1ED6;
kernLeft = C;
kernRight = D;
lastChange = "2022-12-26 08:50:41 +0000";
layers = (
{
hints = (
{
horizontal = 1;
place = (-131, -75);
place = (-131, -75);
type = Stem;
},
{
horizontal = 1;
place = (534, -75);
place = (534, -75);
type = Stem;
},
{
horizontal = 1;
place = (846, -90);
place = (846, -90);
type = Stem;
},
{
horizontal = 1;
place = (939, -91);
place = (939, -91);
type = Stem;
},
{
place = (-50, -72);
place = (-50, -72);
type = Stem;
},
{
place = (108, -93);
place = (108, -93);
type = Stem;
},
{
place = (387, -91);
place = (387, -91);
type = Stem;
},
{
place = (527, -72);
place = (527, -72);
type = Stem;
}
);
layerId = m01;
shapes = (
{
closed = 1;
nodes = (
(556,969,o),
(598,1016,o),
(611,1090,c),
(579,1090,l),
(570,1036,o),
(541,1002,o),
(512,1002,cs),
(450,1002,o),
(466,1094,o),
(389,1094,cs),
(335,1094,o),
(294,1052,o),
(281,979,c),
(311,979,l),
(320,1031,o),
(347,1062,o),
(382,1062,cs),
(441,1062,o),
(421,969,o),
(506,969,cs)
);
},
{
closed = 1;
nodes = (
(250,755,l),
(294,755,l),
(416,862,l),
(500,755,l),
(543,755,l),
(424,908,l)
);
},
{
closed = 1;
nodes = (
(452,-8,o),
(602,133,o),
(639,348,cs),
(677,563,o),
(576,705,o),
(388,705,cs),
(199,705,o),
(50,564,o),
(11,348,cs),
(-26,133,o),
(74,-8,o),
(263,-8,cs)
);
},
{
closed = 1;
nodes = (
(110,40,o),
(29,160,o),
(62,348,cs),
(96,537,o),
(219,657,o),
(380,657,cs),
(540,657,o),
(622,537,o),
(588,348,cs),
(555,160,o),
(431,40,o),
(271,40,cs)
);
}
);
width = 774;
}
);
note = uni1ED6;
unicode = 7894;
},
{
glyphname = Odieresis;
kernLeft = C;
kernRight = D;
lastChange = "2022-12-26 08:50:41 +0000";
layers = (
{
hints = (
{
horizontal = 1;
place = (-131, -75);
place = (-131, -75);
type = Stem;
},
{
horizontal = 1;
place = (534, -75);
place = (534, -75);
type = Stem;
},
{
horizontal = 1;
place = (680, -25);
place = (680, -25);
type = Stem;
},
{
place = (-50, -72);
place = (-50, -72);
type = Stem;
},
{
place = (148, -66);
place = (148, -66);
type = Stem;
},
{
place = (323, -67);
place = (323, -67);
type = Stem;
},
{
place = (527, -72);
place = (527, -72);
type = Stem;
}
);
layerId = m01;
shapes = (
{
closed = 1;
nodes = (
(290,803,l),
(347,803,l),
(364,901,l),
(307,901,l)
);
},
{
closed = 1;
nodes = (
(465,803,l),
(521,803,l),
(538,901,l),
(482,901,l)
);
},
{
closed = 1;
nodes = (
(452,-8,o),
(602,133,o),
(639,348,cs),
(677,563,o),
(576,705,o),
(388,705,cs),
(199,705,o),
(50,564,o),
(11,348,cs),
(-26,133,o),
(74,-8,o),
(263,-8,cs)
);
},
{
closed = 1;
nodes = (
(110,40,o),
(29,160,o),
(62,348,cs),
(96,537,o),
(219,657,o),
(380,657,cs),
(540,657,o),
(622,537,o),
(588,348,cs),
(555,160,o),
(431,40,o),
(271,40,cs)
);
}
);
width = 774;
}
);
note = Odieresis;
unicode = 214;
},
{
glyphname = uni1ECC;
kernLeft = C;
kernRight = D;
lastChange = "2022-12-26 08:50:41 +0000";
layers = (
{
hints = (
{
horizontal = 1;
place = (-296, -26);
place = (-296, -26);
type = Stem;
},
{
horizontal = 1;
place = (-131, -75);
place = (-131, -75);
type = Stem;
},
{
horizontal = 1;
place = (534, -75);
place = (534, -75);
type = Stem;
},
{
place = (-50, -72);
place = (-50, -72);
type = Stem;
},
{
place = (236, -66);
place = (236, -66);
type = Stem;
},
{
place = (527, -72);
place = (527, -72);
type = Stem;
}
);
layerId = m01;
shapes = (
{
closed = 1;
nodes = (
(452,-8,o),
(602,133,o),
(639,348,cs),
(677,563,o),
(576,705,o),
(388,705,cs),
(199,705,o),
(50,564,o),
(11,348,cs),
(-26,133,o),
(74,-8,o),
(263,-8,cs)
);
},
{
closed = 1;
nodes = (
(110,40,o),
(29,160,o),
(62,348,cs),
(96,537,o),
(219,657,o),
(380,657,cs),
(540,657,o),
(622,537,o),
(588,348,cs),
(555,160,o),
(431,40,o),
(271,40,cs)
);
},
{
closed = 1;
nodes = (
(206,-173,l),
(263,-173,l),
(280,-76,l),
(223,-76,l)
);
}
);
width = 774;
}
);
note = uni1ECC;
unicode = 7884;
},
{
glyphname = Ograve;
kernLeft = C;
kernRight = D;
lastChange = "2022-12-26 08:50:41 +0000";
layers = (
{
hints = (
{
horizontal = 1;
place = (-131, -75);
place = (-131, -75);
type = Stem;
},
{
horizontal = 1;
place = (534, -75);
place = (534, -75);
type = Stem;
},
{
horizontal = 1;
place = (638, 17);
place = (638, 17);
type = Stem;
},
{
place = (-50, -72);
place = (-50, -72);
type = Stem;
},
{
place = (527, -72);
place = (527, -72);
type = Stem;
}
);
layerId = m01;
shapes = (
{
closed = 1;
nodes = (
(378,761,l),
(418,761,l),
(339,901,l),
(286,901,l)
);
},
{
closed = 1;
nodes = (
(452,-8,o),
(602,133,o),
(639,348,cs),
(677,563,o),
(576,705,o),
(388,705,cs),
(199,705,o),
(50,564,o),
(11,348,cs),
(-26,133,o),
(74,-8,o),
(263,-8,cs)
);
},
{
closed = 1;
nodes = (
(110,40,o),
(29,160,o),
(62,348,cs),
(96,537,o),
(219,657,o),
(380,657,cs),
(540,657,o),
(622,537,o),
(588,348,cs),
(555,160,o),
(431,40,o),
(271,40,cs)
);
}
);
width = 774;
}
);
note = Ograve;
unicode = 210;
},
{
glyphname = uni1ECE;
kernLeft = C;
kernRight = D;
lastChange = "2022-12-26 08:50:41 +0000";
layers = (
{
hints = (
{
horizontal = 1;
place = (-131, -75);
place = (-131, -75);
type = Stem;
},
{
horizontal = 1;
place = (534, -75);
place = (534, -75);
type = Stem;
},
{
horizontal = 1;
place = (769, -93);
place = (769, -93);
type = Stem;
},
{
place = (-50, -72);
place = (-50, -72);
type = Stem;
},
{
place = (335, -87);
place = (335, -87);
type = Stem;
},
{
place = (527, -72);
place = (527, -72);
type = Stem;
}
);
layerId = m01;
shapes = (
{
closed = 1;
nodes = (
(389,736,l),
(439,747,o),
(504,756,o),
(517,825,cs),
(528,888,o),
(475,922,o),
(399,922,cs),
(384,922,l),
(378,892,l),
(393,892,ls),
(444,892,o),
(489,874,o),
(481,826,cs),
(473,780,o),
(425,773,o),
(385,766,c)
);
},
{
closed = 1;
nodes = (
(452,-8,o),
(602,133,o),
(639,348,cs),
(677,563,o),
(576,705,o),
(388,705,cs),
(199,705,o),
(50,564,o),
(11,348,cs),
(-26,133,o),
(74,-8,o),
(263,-8,cs)
);
},
{
closed = 1;
nodes = (
(110,40,o),
(29,160,o),
(62,348,cs),
(96,537,o),
(219,657,o),
(380,657,cs),
(540,657,o),
(622,537,o),
(588,348,cs),
(555,160,o),
(431,40,o),
(271,40,cs)
);
}
);
width = 774;
}
);
note = uni1ECE;
unicode = 7886;
},
{
glyphname = Ohorn;
kernLeft = C;
kernRight = D;
lastChange = "2022-12-26 08:50:41 +0000";
layers = (
{
hints = (
{
horizontal = 1;
place = (-131, -75);
place = (-131, -75);
type = Stem;
},
{
horizontal = 1;
place = (377, -20);
target = down;
type = TopGhost;
},
{
horizontal = 1;
place = (574, -20);
target = down;
type = TopGhost;
},
{
place = (-50, -72);
place = (-50, -72);
type = Stem;
},
{
place = (527, -72);
place = (527, -72);
type = Stem;
},
{
place = (615, -84);
place = (615, -84);
type = Stem;
},
{
horizontal = 1;
place = (534, -75);
place = (534, -75);
type = Stem;
}
);
layerId = m01;
shapes = (
{
closed = 1;
nodes = (
(738,697,l),
(728,642,ls),
(718,581,o),
(688,541,o),
(633,534,c),
(601,641,o),
(514,705,o),
(388,705,cs),
(199,705,o),
(50,564,o),
(11,348,cs),
(-26,133,o),
(74,-8,o),
(263,-8,cs),
(452,-8,o),
(602,133,o),
(639,348,cs),
(649,404,o),
(649,455,o),
(641,500,c),
(713,512,o),
(754,565,o),
(768,646,cs),
(777,697,l)
);
},
{
closed = 1;
nodes = (
(110,40,o),
(29,160,o),
(62,348,cs),
(96,537,o),
(219,657,o),
(380,657,cs),
(540,657,o),
(622,537,o),
(588,348,cs),
(555,160,o),
(431,40,o),
(271,40,cs)
);
}
);
width = 774;
}
);
note = Ohorn;
unicode = 416;
},
{
glyphname = uni1EDA;
kernLeft = C;
kernRight = D;
lastChange = "2022-12-26 08:50:41 +0000";
layers = (
{
hints = (
{
horizontal = 1;
place = (-131, -75);
place = (-131, -75);
type = Stem;
},
{
horizontal = 1;
place = (377, -20);
target = down;
type = TopGhost;
},
{
horizontal = 1;
place = (534, -75);
place = (534, -75);
type = Stem;
},
{
horizontal = 1;
place = (638, 17);
place = (638, 17);
type = Stem;
},
{
place = (-50, -72);
place = (-50, -72);
type = Stem;
},
{
place = (527, -72);
place = (527, -72);
type = Stem;
},
{
place = (615, -84);
place = (615, -84);
type = Stem;
},
{
horizontal = 1;
place = (574, -20);
target = down;
type = TopGhost;
}
);
layerId = m01;
shapes = (
{
closed = 1;
nodes = (
(563,901,l),
(510,901,l),
(378,761,l),
(418,761,l)
);
},
{
closed = 1;
nodes = (
(738,697,l),
(728,642,ls),
(718,581,o),
(688,541,o),
(633,534,c),
(601,641,o),
(514,705,o),
(388,705,cs),
(199,705,o),
(50,564,o),
(11,348,cs),
(-26,133,o),
(74,-8,o),
(263,-8,cs),
(452,-8,o),
(602,133,o),
(639,348,cs),
(649,404,o),
(649,455,o),
(641,500,c),
(713,512,o),
(754,565,o),
(768,646,cs),
(777,697,l)
);
},
{
closed = 1;
nodes = (
(110,40,o),
(29,160,o),
(62,348,cs),
(96,537,o),
(219,657,o),
(380,657,cs),
(540,657,o),
(622,537,o),
(588,348,cs),
(555,160,o),
(431,40,o),
(271,40,cs)
);
}
);
width = 774;
}
);
note = uni1EDA;
unicode = 7898;
},
{
glyphname = uni1EE2;
kernLeft = C;
kernRight = D;
lastChange = "2022-12-26 08:50:41 +0000";
layers = (
{
hints = (
{
horizontal = 1;
place = (-296, -26);
place = (-296, -26);
type = Stem;
},
{
horizontal = 1;
place = (-131, -75);
place = (-131, -75);
type = Stem;
},
{
horizontal = 1;
place = (377, -20);
target = down;
type = TopGhost;
},
{
horizontal = 1;
place = (574, -20);
target = down;
type = TopGhost;
},
{
place = (-50, -72);
place = (-50, -72);
type = Stem;
},
{
place = (236, -66);
place = (236, -66);
type = Stem;
},
{
place = (527, -72);
place = (527, -72);
type = Stem;
},
{
place = (615, -84);
place = (615, -84);
type = Stem;
},
{
horizontal = 1;
place = (534, -75);
place = (534, -75);
type = Stem;
}
);
layerId = m01;
shapes = (
{
closed = 1;
nodes = (
(738,697,l),
(728,642,ls),
(718,581,o),
(688,541,o),
(633,534,c),
(601,641,o),
(514,705,o),
(388,705,cs),
(199,705,o),
(50,564,o),
(11,348,cs),
(-26,133,o),
(74,-8,o),
(263,-8,cs),
(452,-8,o),
(602,133,o),
(639,348,cs),
(649,404,o),
(649,455,o),
(641,500,c),
(713,512,o),
(754,565,o),
(768,646,cs),
(777,697,l)
);
},
{
closed = 1;
nodes = (
(110,40,o),
(29,160,o),
(62,348,cs),
(96,537,o),
(219,657,o),
(380,657,cs),
(540,657,o),
(622,537,o),
(588,348,cs),
(555,160,o),
(431,40,o),
(271,40,cs)
);
},
{
closed = 1;
nodes = (
(206,-173,l),
(263,-173,l),
(280,-76,l),
(223,-76,l)
);
}
);
width = 774;
}
);
note = uni1EE2;
unicode = 7906;
},
{
glyphname = uni1EDC;
kernLeft = C;
kernRight = D;
lastChange = "2022-12-26 08:50:41 +0000";
layers = (
{
hints = (
{
horizontal = 1;
place = (-131, -75);
place = (-131, -75);
type = Stem;
},
{
horizontal = 1;
place = (377, -20);
target = down;
type = TopGhost;
},
{
horizontal = 1;
place = (534, -75);
place = (534, -75);
type = Stem;
},
{
horizontal = 1;
place = (638, 17);
place = (638, 17);
type = Stem;
},
{
place = (-50, -72);
place = (-50, -72);
type = Stem;
},
{
place = (527, -72);
place = (527, -72);
type = Stem;
},
{
place = (615, -84);
place = (615, -84);
type = Stem;
},
{
horizontal = 1;
place = (574, -20);
target = down;
type = TopGhost;
}
);
layerId = m01;
shapes = (
{
closed = 1;
nodes = (
(418,761,l),
(339,901,l),
(286,901,l),
(378,761,l)
);
},
{
closed = 1;
nodes = (
(738,697,l),
(728,642,ls),
(718,581,o),
(688,541,o),
(633,534,c),
(601,641,o),
(514,705,o),
(388,705,cs),
(199,705,o),
(50,564,o),
(11,348,cs),
(-26,133,o),
(74,-8,o),
(263,-8,cs),
(452,-8,o),
(602,133,o),
(639,348,cs),
(649,404,o),
(649,455,o),
(641,500,c),
(713,512,o),
(754,565,o),
(768,646,cs),
(777,697,l)
);
},
{
closed = 1;
nodes = (
(110,40,o),
(29,160,o),
(62,348,cs),
(96,537,o),
(219,657,o),
(380,657,cs),
(540,657,o),
(622,537,o),
(588,348,cs),
(555,160,o),
(431,40,o),
(271,40,cs)
);
}
);
width = 774;
}
);
note = uni1EDC;
unicode = 7900;
},
{
glyphname = uni1EDE;
kernLeft = C;
kernRight = D;
lastChange = "2022-12-26 08:50:41 +0000";
layers = (
{
hints = (
{
horizontal = 1;
place = (-131, -75);
place = (-131, -75);
type = Stem;
},
{
horizontal = 1;
place = (377, -20);
target = down;
type = TopGhost;
},
{
horizontal = 1;
place = (534, -75);
place = (534, -75);
type = Stem;
},
{
horizontal = 1;
place = (769, -93);
place = (769, -93);
type = Stem;
},
{
place = (-50, -72);
place = (-50, -72);
type = Stem;
},
{
place = (335, -87);
place = (335, -87);
type = Stem;
},
{
place = (527, -72);
place = (527, -72);
type = Stem;
},
{
place = (615, -84);
place = (615, -84);
type = Stem;
},
{
horizontal = 1;
place = (574, -20);
target = down;
type = TopGhost;
}
);
layerId = m01;
shapes = (
{
closed = 1;
nodes = (
(473,780,o),
(425,773,o),
(385,766,c),
(389,736,l),
(439,747,o),
(504,756,o),
(517,825,cs),
(528,888,o),
(475,922,o),
(399,922,cs),
(384,922,l),
(378,892,l),
(393,892,ls),
(444,892,o),
(489,874,o),
(481,826,cs)
);
},
{
closed = 1;
nodes = (
(738,697,l),
(728,642,ls),
(718,581,o),
(688,541,o),
(633,534,c),
(601,641,o),
(514,705,o),
(388,705,cs),
(199,705,o),
(50,564,o),
(11,348,cs),
(-26,133,o),
(74,-8,o),
(263,-8,cs),
(452,-8,o),
(602,133,o),
(639,348,cs),
(649,404,o),
(649,455,o),
(641,500,c),
(713,512,o),
(754,565,o),
(768,646,cs),
(777,697,l)
);
},
{
closed = 1;
nodes = (
(110,40,o),
(29,160,o),
(62,348,cs),
(96,537,o),
(219,657,o),
(380,657,cs),
(540,657,o),
(622,537,o),
(588,348,cs),
(555,160,o),
(431,40,o),
(271,40,cs)
);
}
);
width = 774;
}
);
note = uni1EDE;
unicode = 7902;
},
{
glyphname = uni1EE0;
kernLeft = C;
kernRight = D;
lastChange = "2022-12-26 08:50:41 +0000";
layers = (
{
hints = (
{
horizontal = 1;
place = (-131, -75);
place = (-131, -75);
type = Stem;
},
{
horizontal = 1;
place = (377, -20);
target = down;
type = TopGhost;
},
{
horizontal = 1;
place = (534, -75);
place = (534, -75);
type = Stem;
},
{
horizontal = 1;
place = (657, -90);
place = (657, -90);
type = Stem;
},
{
horizontal = 1;
place = (750, -91);
place = (750, -91);
type = Stem;
},
{
place = (-50, -72);
place = (-50, -72);
type = Stem;
},
{
place = (108, -93);
place = (108, -93);
type = Stem;
},
{
place = (387, -91);
place = (387, -91);
type = Stem;
},
{
place = (527, -72);
place = (527, -72);
type = Stem;
},
{
place = (615, -84);
place = (615, -84);
type = Stem;
},
{
horizontal = 1;
place = (574, -20);
target = down;
type = TopGhost;
}
);
layerId = m01;
shapes = (
{
closed = 1;
nodes = (
(408,873,o),
(388,780,o),
(473,780,cs),
(523,780,o),
(565,827,o),
(578,901,c),
(546,901,l),
(536,847,o),
(507,813,o),
(478,813,cs),
(416,813,o),
(433,905,o),
(356,905,cs),
(302,905,o),
(260,863,o),
(247,790,c),
(277,790,l),
(287,842,o),
(314,873,o),
(349,873,cs)
);
},
{
closed = 1;
nodes = (
(738,697,l),
(728,642,ls),
(718,581,o),
(688,541,o),
(633,534,c),
(601,641,o),
(514,705,o),
(388,705,cs),
(199,705,o),
(50,564,o),
(11,348,cs),
(-26,133,o),
(74,-8,o),
(263,-8,cs),
(452,-8,o),
(602,133,o),
(639,348,cs),
(649,404,o),
(649,455,o),
(641,500,c),
(713,512,o),
(754,565,o),
(768,646,cs),
(777,697,l)
);
},
{
closed = 1;
nodes = (
(110,40,o),
(29,160,o),
(62,348,cs),
(96,537,o),
(219,657,o),
(380,657,cs),
(540,657,o),
(622,537,o),
(588,348,cs),
(555,160,o),
(431,40,o),
(271,40,cs)
);
}
);
width = 774;
}
);
note = uni1EE0;
unicode = 7904;
},
{
glyphname = Ohungarumlaut;
kernLeft = C;
kernRight = D;
lastChange = "2022-12-26 08:50:41 +0000";
layers = (
{
hints = (
{
horizontal = 1;
place = (-131, -75);
place = (-131, -75);
type = Stem;
},
{
horizontal = 1;
place = (534, -75);
place = (534, -75);
type = Stem;
},
{
horizontal = 1;
place = (630, 25);
place = (630, 25);
type = Stem;
},
{
place = (-50, -72);
place = (-50, -72);
type = Stem;
},
{
place = (527, -72);
place = (527, -72);
type = Stem;
}
);
layerId = m01;
shapes = (
{
closed = 1;
nodes = (
(296,753,l),
(336,753,l),
(475,901,l),
(429,901,l)
);
},
{
closed = 1;
nodes = (
(458,753,l),
(497,753,l),
(644,901,l),
(591,901,l)
);
},
{
closed = 1;
nodes = (
(452,-8,o),
(602,133,o),
(639,348,cs),
(677,563,o),
(576,705,o),
(388,705,cs),
(199,705,o),
(50,564,o),
(11,348,cs),
(-26,133,o),
(74,-8,o),
(263,-8,cs)
);
},
{
closed = 1;
nodes = (
(110,40,o),
(29,160,o),
(62,348,cs),
(96,537,o),
(219,657,o),
(380,657,cs),
(540,657,o),
(622,537,o),
(588,348,cs),
(555,160,o),
(431,40,o),
(271,40,cs)
);
}
);
width = 774;
}
);
note = Ohungarumlaut;
unicode = 336;
},
{
glyphname = Omacron;
kernLeft = C;
kernRight = D;
lastChange = "2022-12-26 08:50:41 +0000";
layers = (
{
hints = (
{
horizontal = 1;
place = (-131, -75);
place = (-131, -75);
type = Stem;
},
{
horizontal = 1;
place = (534, -75);
place = (534, -75);
type = Stem;
},
{
horizontal = 1;
place = (693, -92);
place = (693, -92);
type = Stem;
},
{
place = (-50, -72);
place = (-50, -72);
type = Stem;
},
{
place = (527, -72);
place = (527, -72);
type = Stem;
}
);
layerId = m01;
shapes = (
{
closed = 1;
nodes = (
(273,816,l),
(541,816,l),
(546,847,l),
(278,847,l)
);
},
{
closed = 1;
nodes = (
(452,-8,o),
(602,133,o),
(639,348,cs),
(677,563,o),
(576,705,o),
(388,705,cs),
(199,705,o),
(50,564,o),
(11,348,cs),
(-26,133,o),
(74,-8,o),
(263,-8,cs)
);
},
{
closed = 1;
nodes = (
(110,40,o),
(29,160,o),
(62,348,cs),
(96,537,o),
(219,657,o),
(380,657,cs),
(540,657,o),
(622,537,o),
(588,348,cs),
(555,160,o),
(431,40,o),
(271,40,cs)
);
}
);
width = 774;
}
);
note = Omacron;
unicode = 332;
},
{
glyphname = Oslash;
kernLeft = C;
kernRight = D;
lastChange = "2022-12-26 08:50:41 +0000";
layers = (
{
hints = (
{
horizontal = 1;
place = (-131, -75);
place = (-131, -75);
type = Stem;
},
{
horizontal = 1;
place = (506, -55);
place = (506, -55);
type = Stem;
},
{
place = (-50, -72);
place = (-50, -72);
type = Stem;
},
{
place = (527, -72);
place = (527, -72);
type = Stem;
},
{
horizontal = 1;
place = (-123, -56);
place = (-123, -56);
type = Stem;
},
{
horizontal = 1;
place = (534, -75);
place = (534, -75);
type = Stem;
}
);
layerId = m01;
shapes = (
{
closed = 1;
nodes = (
(636,697,l),
(586,697,l),
(552,655,l),
(509,687,o),
(454,705,o),
(388,705,cs),
(199,705,o),
(50,564,o),
(11,348,cs),
(-10,227,o),
(13,129,o),
(71,67,c),
(16,0,l),
(65,0,l),
(98,41,l),
(141,9,o),
(197,-8,o),
(263,-8,cs),
(452,-8,o),
(602,133,o),
(639,348,cs),
(661,469,o),
(638,567,o),
(581,629,c)
);
},
{
closed = 1;
nodes = (
(96,537,o),
(219,657,o),
(380,657,cs),
(436,657,o),
(483,642,o),
(518,614,c),
(105,109,l),
(61,162,o),
(44,245,o),
(62,348,cs)
);
},
{
closed = 1;
nodes = (
(214,40,o),
(168,55,o),
(133,82,c),
(547,587,l),
(590,534,o),
(607,451,o),
(588,348,cs),
(555,160,o),
(431,40,o),
(271,40,cs)
);
}
);
width = 774;
}
);
note = Oslash;
unicode = 216;
},
{
glyphname = Otilde;
kernLeft = C;
kernRight = D;
lastChange = "2022-12-26 08:50:41 +0000";
layers = (
{
hints = (
{
horizontal = 1;
place = (-131, -75);
place = (-131, -75);
type = Stem;
},
{
horizontal = 1;
place = (534, -75);
place = (534, -75);
type = Stem;
},
{
horizontal = 1;
place = (657, -90);
place = (657, -90);
type = Stem;
},
{
horizontal = 1;
place = (750, -91);
place = (750, -91);
type = Stem;
},
{
place = (-50, -72);
place = (-50, -72);
type = Stem;
},
{
place = (108, -93);
place = (108, -93);
type = Stem;
},
{
place = (387, -91);
place = (387, -91);
type = Stem;
},
{
place = (527, -72);
place = (527, -72);
type = Stem;
}
);
layerId = m01;
shapes = (
{
closed = 1;
nodes = (
(523,780,o),
(565,827,o),
(578,901,c),
(546,901,l),
(536,847,o),
(507,813,o),
(478,813,cs),
(416,813,o),
(433,905,o),
(356,905,cs),
(302,905,o),
(260,863,o),
(247,790,c),
(277,790,l),
(287,842,o),
(314,873,o),
(349,873,cs),
(408,873,o),
(388,780,o),
(473,780,cs)
);
},
{
closed = 1;
nodes = (
(452,-8,o),
(602,133,o),
(639,348,cs),
(677,563,o),
(576,705,o),
(388,705,cs),
(199,705,o),
(50,564,o),
(11,348,cs),
(-26,133,o),
(74,-8,o),
(263,-8,cs)
);
},
{
closed = 1;
nodes = (
(110,40,o),
(29,160,o),
(62,348,cs),
(96,537,o),
(219,657,o),
(380,657,cs),
(540,657,o),
(622,537,o),
(588,348,cs),
(555,160,o),
(431,40,o),
(271,40,cs)
);
}
);
width = 774;
}
);
note = Otilde;
unicode = 213;
},
{
glyphname = OE;
kernLeft = C;
lastChange = "2022-12-26 08:50:41 +0000";
layers = (
{
hints = (
{
horizontal = 1;
place = (-123, -76);
place = (-123, -76);
type = Stem;
},
{
horizontal = 1;
place = (207, -75);
place = (207, -75);
type = Stem;
},
{
horizontal = 1;
place = (527, -76);
place = (527, -76);
type = Stem;
},
{
place = (-50, -72);
place = (-50, -72);
type = Stem;
},
{
place = (528, -72);
place = (528, -72);
type = Stem;
},
{
horizontal = 1;
place = (-131, -75);
place = (-131, -75);
type = Stem;
},
{
horizontal = 1;
place = (534, -75);
place = (534, -75);
type = Stem;
},
{
place = (527, -71);
place = (527, -71);
type = Stem;
}
);
layerId = m01;
shapes = (
{
closed = 1;
nodes = (
(1097,650,l),
(1105,697,l),
(651,697,l),
(626,556,l),
(590,650,o),
(505,705,o),
(388,705,cs),
(199,705,o),
(50,564,o),
(11,348,cs),
(-26,133,o),
(74,-8,o),
(263,-8,cs),
(381,-8,o),
(483,47,o),
(553,140,c),
(528,0,l),
(982,0,l),
(990,47,l),
(587,47,l),
(637,330,l),
(996,330,l),
(1005,378,l),
(646,378,l),
(694,650,l)
);
},
{
closed = 1;
nodes = (
(110,40,o),
(29,160,o),
(62,348,cs),
(96,537,o),
(219,657,o),
(380,657,cs),
(540,657,o),
(622,537,o),
(588,348,cs),
(555,160,o),
(431,40,o),
(271,40,cs)
);
}
);
width = 1166;
}
);
note = OE;
unicode = 338;
},
{
glyphname = P;
kernLeft = B;
kernRight = P;
lastChange = "2022-12-26 08:50:41 +0000";
layers = (
{
hints = (
{
horizontal = 1;
place = (-123, 21);
target = up;
type = BottomGhost;
},
{
horizontal = 1;
place = (187, -76);
place = (187, -76);
type = Stem;
},
{
horizontal = 1;
place = (527, -76);
place = (527, -76);
type = Stem;
},
{
place = (-4, -72);
place = (-4, -72);
type = Stem;
},
{
place = (360, -72);
place = (360, -72);
type = Stem;
}
);
layerId = m01;
shapes = (
{
closed = 1;
nodes = (
(22,0,l),
(56,50,l),
(102,310,l),
(239,310,ls),
(348,310,o),
(483,410,o),
(500,504,qs),
(516,597,o),
(416,697,o),
(307,697,qs),
(119,697,l),
(-4,0,l)
);
},
{
closed = 1;
nodes = (
(162,650,l),
(294,650,ls),
(382,650,o),
(461,575,o),
(449,503,qs),
(436,432,o),
(330,357,o),
(242,357,qs),
(110,357,l)
);
}
);
width = 590;
}
);
note = P;
unicode = 80;
},
{
glyphname = Thorn;
kernLeft = B;
kernRight = Thorn;
lastChange = "2022-12-26 08:50:41 +0000";
layers = (
{
hints = (
{
horizontal = 1;
place = (-123, 21);
target = up;
type = BottomGhost;
},
{
horizontal = 1;
place = (86, -80);
place = (86, -80);
type = Stem;
},
{
horizontal = 1;
place = (431, -82);
place = (431, -82);
type = Stem;
},
{
place = (-4, -76);
place = (-4, -76);
type = Stem;
},
{
place = (360, -76);
place = (360, -76);
type = Stem;
},
{
horizontal = 1;
place = (431, 20);
place = (431, 20);
type = Stem;
}
);
layerId = m01;
shapes = (
{
closed = 1;
nodes = (
(-4,0,l),
(43,0,l),
(80,209,l),
(215,209,ls),
(359,209,o),
(457,281,o),
(478,404,cs),
(499,524,o),
(430,595,o),
(293,595,cs),
(148,595,l),
(166,697,l),
(119,697,l)
);
},
{
closed = 1;
nodes = (
(88,252,l),
(141,554,l),
(276,554,ls),
(392,554,o),
(448,499,o),
(431,402,cs),
(414,306,o),
(340,252,o),
(223,252,cs)
);
}
);
width = 586;
}
);
note = Thorn;
unicode = 222;
},
{
glyphname = Q;
kernLeft = C;
kernRight = Q;
lastChange = "2022-12-26 08:50:41 +0000";
layers = (
{
hints = (
{
horizontal = 1;
place = (-131, -75);
place = (-131, -75);
type = Stem;
},
{
horizontal = 1;
place = (534, -75);
place = (534, -75);
type = Stem;
},
{
place = (-50, -73);
place = (-50, -73);
type = Stem;
},
{
place = (526, -72);
place = (526, -72);
type = Stem;
}
);
layerId = m01;
shapes = (
{
closed = 1;
nodes = (
(567,-27,l),
(571,2,l),
(502,85,l),
(570,147,o),
(619,238,o),
(638,348,cs),
(676,563,o),
(576,705,o),
(387,705,cs),
(199,705,o),
(50,564,o),
(11,348,cs),
(-26,133,o),
(74,-8,o),
(262,-8,cs),
(337,-8,o),
(405,14,o),
(463,54,c),
(550,-42,l)
);
},
{
closed = 1;
nodes = (
(109,31,o),
(28,160,o),
(61,348,cs),
(95,537,o),
(220,662,o),
(380,662,cs),
(541,662,o),
(621,537,o),
(587,348,cs),
(571,252,o),
(530,173,o),
(472,120,c),
(372,239,l),
(333,208,l),
(434,89,l),
(386,57,o),
(330,31,o),
(269,31,cs)
);
}
);
width = 785;
}
);
note = Q;
unicode = 81;
},
{
glyphname = R;
kernLeft = B;
kernRight = R;
lastChange = "2022-12-26 08:50:41 +0000";
layers = (
{
hints = (
{
horizontal = 1;
place = (-123, 21);
target = up;
type = BottomGhost;
},
{
horizontal = 1;
place = (193, -75);
place = (193, -75);
type = Stem;
},
{
horizontal = 1;
place = (527, -76);
place = (527, -76);
type = Stem;
},
{
place = (-4, -72);
place = (-4, -72);
type = Stem;
},
{
place = (360, -72);
place = (360, -72);
type = Stem;
}
);
layerId = m01;
shapes = (
{
closed = 1;
nodes = (
(410,0,o),
(405,13,qs),
(277,316,l),
(324,316,o),
(400,347,o),
(457,398,o),
(493,466,o),
(500,503,qs),
(517,598,o),
(418,697,o),
(307,697,qs),
(119,697,l),
(-4,0,l),
(22,0,l),
(56,50,l),
(103,316,l),
(187,316,l),
(225,316,l),
(352,0,l),
(396,0,ls)
);
},
{
closed = 1;
nodes = (
(162,650,l),
(294,650,ls),
(384,650,o),
(462,577,o),
(449,506,qs),
(424,364,o),
(243,364,qs),
(111,364,l)
);
}
);
width = 628;
}
);
note = R;
unicode = 82;
},
{
glyphname = Racute;
kernLeft = B;
kernRight = R;
lastChange = "2022-12-26 08:50:41 +0000";
layers = (
{
hints = (
{
horizontal = 1;
place = (-123, 21);
target = up;
type = BottomGhost;
},
{
horizontal = 1;
place = (193, -75);
place = (193, -75);
type = Stem;
},
{
horizontal = 1;
place = (527, -76);
place = (527, -76);
type = Stem;
},
{
horizontal = 1;
place = (638, 17);
place = (638, 17);
type = Stem;
},
{
place = (-4, -72);
place = (-4, -72);
type = Stem;
},
{
place = (360, -72);
place = (360, -72);
type = Stem;
}
);
layerId = m01;
shapes = (
{
closed = 1;
nodes = (
(491,901,l),
(438,901,l),
(306,761,l),
(346,761,l)
);
},
{
closed = 1;
nodes = (
(454,0,l),
(320,324,l),
(422,346,o),
(483,410,o),
(500,507,cs),
(522,630,o),
(454,697,o),
(307,697,cs),
(119,697,l),
(-4,0,l),
(47,0,l),
(103,316,l),
(219,316,ls),
(242,316,o),
(257,316,o),
(268,317,c),
(395,0,l)
);
},
{
closed = 1;
nodes = (
(111,364,l),
(162,650,l),
(294,650,ls),
(413,650,o),
(466,600,o),
(449,506,cs),
(433,413,o),
(362,364,o),
(243,364,cs)
);
}
);
width = 628;
}
);
note = Racute;
unicode = 340;
},
{
glyphname = Rcaron;
kernLeft = B;
kernRight = R;
lastChange = "2022-12-26 08:50:41 +0000";
layers = (
{
hints = (
{
horizontal = 1;
place = (-123, 21);
target = up;
type = BottomGhost;
},
{
horizontal = 1;
place = (193, -75);
place = (193, -75);
type = Stem;
},
{
horizontal = 1;
place = (527, -76);
place = (527, -76);
type = Stem;
},
{
place = (-4, -72);
place = (-4, -72);
type = Stem;
},
{
place = (360, -72);
place = (360, -72);
type = Stem;
}
);
layerId = m01;
shapes = (
{
closed = 1;
nodes = (
(497,901,l),
(454,901,l),
(332,796,l),
(248,901,l),
(204,901,l),
(325,752,l)
);
},
{
closed = 1;
nodes = (
(454,0,l),
(320,324,l),
(422,346,o),
(483,410,o),
(500,507,cs),
(522,630,o),
(454,697,o),
(307,697,cs),
(119,697,l),
(-4,0,l),
(47,0,l),
(103,316,l),
(219,316,ls),
(242,316,o),
(257,316,o),
(268,317,c),
(395,0,l)
);
},
{
closed = 1;
nodes = (
(111,364,l),
(162,650,l),
(294,650,ls),
(413,650,o),
(466,600,o),
(449,506,cs),
(433,413,o),
(362,364,o),
(243,364,cs)
);
}
);
width = 628;
}
);
note = Rcaron;
unicode = 344;
},
{
glyphname = uni0156;
kernLeft = B;
kernRight = R;
lastChange = "2022-12-26 08:50:41 +0000";
layers = (
{
hints = (
{
horizontal = 1;
place = (-123, 21);
target = up;
type = BottomGhost;
},
{
horizontal = 1;
place = (193, -75);
place = (193, -75);
type = Stem;
},
{
horizontal = 1;
place = (527, -76);
place = (527, -76);
type = Stem;
},
{
place = (-4, -72);
place = (-4, -72);
type = Stem;
},
{
place = (360, -72);
place = (360, -72);
type = Stem;
}
);
layerId = m01;
shapes = (
{
closed = 1;
nodes = (
(320,324,l),
(422,346,o),
(483,410,o),
(500,507,cs),
(522,630,o),
(454,697,o),
(307,697,cs),
(119,697,l),
(-4,0,l),
(47,0,l),
(103,316,l),
(219,316,ls),
(242,316,o),
(257,316,o),
(268,317,c),
(395,0,l),
(454,0,l)
);
},
{
closed = 1;
nodes = (
(111,364,l),
(162,650,l),
(294,650,ls),
(413,650,o),
(466,600,o),
(449,506,cs),
(433,413,o),
(362,364,o),
(243,364,cs)
);
},
{
closed = 1;
nodes = (
(29,-219,l),
(63,-219,l),
(208,-57,l),
(155,-57,l)
);
}
);
width = 628;
}
);
note = uni0156;
unicode = 342;
},
{
glyphname = S;
kernLeft = S;
kernRight = S;
lastChange = "2022-12-26 08:50:41 +0000";
layers = (
{
hints = (
{
horizontal = 1;
place = (-131, -77);
place = (-131, -77);
type = Stem;
},
{
horizontal = 1;
place = (536, -77);
place = (536, -77);
type = Stem;
},
{
place = (-27, -73);
place = (-27, -73);
type = Stem;
},
{
place = (336, -71);
place = (336, -71);
type = Stem;
}
);
layerId = m01;
shapes = (
{
closed = 1;
nodes = (
(304,-8,o),
(400,68,o),
(420,182,cs),
(438,285,o),
(384,335,o),
(257,387,cs),
(160,427,o),
(104,460,o),
(118,536,cs),
(130,604,o),
(197,659,o),
(281,659,cs),
(346,659,o),
(393,627,o),
(415,569,c),
(462,596,l),
(435,667,o),
(375,705,o),
(290,705,cs),
(175,705,o),
(85,635,o),
(67,534,cs),
(51,439,o),
(105,394,o),
(221,347,cs),
(328,303,o),
(383,265,o),
(367,177,cs),
(353,98,o),
(282,38,o),
(176,38,cs),
(77,38,o),
(15,97,o),
(17,192,c),
(-35,180,l),
(-36,66,o),
(43,-8,o),
(167,-8,cs)
);
}
);
width = 572;
}
);
note = S;
unicode = 83;
},
{
glyphname = Sacute;
kernLeft = S;
kernRight = S;
lastChange = "2022-12-26 08:50:41 +0000";
layers = (
{
hints = (
{
horizontal = 1;
place = (-131, -77);
place = (-131, -77);
type = Stem;
},
{
horizontal = 1;
place = (536, -77);
place = (536, -77);
type = Stem;
},
{
horizontal = 1;
place = (638, 17);
place = (638, 17);
type = Stem;
},
{
place = (-27, -73);
place = (-27, -73);
type = Stem;
},
{
place = (336, -71);
place = (336, -71);
type = Stem;
}
);
layerId = m01;
shapes = (
{
closed = 1;
nodes = (
(277,761,l),
(317,761,l),
(462,901,l),
(409,901,l)
);
},
{
closed = 1;
nodes = (
(304,-8,o),
(400,68,o),
(420,182,cs),
(438,285,o),
(384,335,o),
(257,387,cs),
(160,427,o),
(104,460,o),
(118,536,cs),
(130,604,o),
(197,659,o),
(281,659,cs),
(346,659,o),
(393,627,o),
(415,569,c),
(462,596,l),
(435,667,o),
(375,705,o),
(290,705,cs),
(175,705,o),
(85,635,o),
(67,534,cs),
(51,439,o),
(105,394,o),
(221,347,cs),
(328,303,o),
(383,265,o),
(367,177,cs),
(353,98,o),
(282,38,o),
(176,38,cs),
(77,38,o),
(15,97,o),
(17,192,c),
(-35,180,l),
(-36,66,o),
(43,-8,o),
(167,-8,cs)
);
}
);
width = 572;
}
);
note = Sacute;
unicode = 346;
},
{
glyphname = Scaron;
kernLeft = S;
kernRight = S;
lastChange = "2022-12-26 08:50:41 +0000";
layers = (
{
hints = (
{
horizontal = 1;
place = (-131, -77);
place = (-131, -77);
type = Stem;
},
{
horizontal = 1;
place = (536, -77);
place = (536, -77);
type = Stem;
},
{
place = (-27, -73);
place = (-27, -73);
type = Stem;
},
{
place = (336, -71);
place = (336, -71);
type = Stem;
}
);
layerId = m01;
shapes = (
{
closed = 1;
nodes = (
(296,752,l),
(468,901,l),
(425,901,l),
(303,796,l),
(219,901,l),
(175,901,l)
);
},
{
closed = 1;
nodes = (
(304,-8,o),
(400,68,o),
(420,182,cs),
(438,285,o),
(384,335,o),
(257,387,cs),
(160,427,o),
(104,460,o),
(118,536,cs),
(130,604,o),
(197,659,o),
(281,659,cs),
(346,659,o),
(393,627,o),
(415,569,c),
(462,596,l),
(435,667,o),
(375,705,o),
(290,705,cs),
(175,705,o),
(85,635,o),
(67,534,cs),
(51,439,o),
(105,394,o),
(221,347,cs),
(328,303,o),
(383,265,o),
(367,177,cs),
(353,98,o),
(282,38,o),
(176,38,cs),
(77,38,o),
(15,97,o),
(17,192,c),
(-35,180,l),
(-36,66,o),
(43,-8,o),
(167,-8,cs)
);
}
);
width = 572;
}
);
note = Scaron;
unicode = 352;
},
{
glyphname = Scedilla;
kernLeft = S;
kernRight = S;
lastChange = "2022-12-26 08:50:41 +0000";
layers = (
{
hints = (
{
horizontal = 1;
place = (-377, -91);
place = (-377, -91);
type = Stem;
},
{
horizontal = 1;
place = (-216, -100);
place = (-216, -100);
type = Stem;
},
{
horizontal = 1;
place = (-130, -78);
place = (-130, -78);
type = Stem;
},
{
horizontal = 1;
place = (536, -77);
place = (536, -77);
type = Stem;
},
{
place = (-27, -73);
place = (-27, -73);
type = Stem;
},
{
place = (230, -91);
place = (230, -91);
type = Stem;
},
{
place = (336, -71);
place = (336, -71);
type = Stem;
}
);
layerId = m01;
shapes = (
{
closed = 1;
nodes = (
(438,285,o),
(384,335,o),
(257,387,cs),
(160,427,o),
(104,460,o),
(118,536,cs),
(130,604,o),
(197,659,o),
(281,659,cs),
(346,659,o),
(393,627,o),
(415,569,c),
(462,596,l),
(435,667,o),
(375,705,o),
(290,705,cs),
(175,705,o),
(85,635,o),
(67,534,cs),
(51,439,o),
(105,394,o),
(221,347,cs),
(328,303,o),
(383,265,o),
(367,177,cs),
(353,98,o),
(282,38,o),
(176,38,cs),
(77,38,o),
(15,97,o),
(17,192,c),
(-35,180,l),
(-36,74,o),
(32,3,o),
(141,-7,c),
(78,-93,l),
(109,-93,o),
(136,-95,o),
(157,-101,cs),
(188,-110,o),
(208,-127,o),
(202,-162,cs),
(195,-201,o),
(167,-222,o),
(125,-222,cs),
(96,-222,o),
(71,-207,o),
(61,-178,c),
(37,-201,l),
(51,-234,o),
(83,-254,o),
(118,-254,cs),
(178,-254,o),
(224,-216,o),
(234,-161,cs),
(241,-122,o),
(224,-99,o),
(192,-85,cs),
(175,-77,o),
(152,-73,o),
(125,-70,c),
(172,-8,l),
(306,-6,o),
(400,69,o),
(420,182,cs)
);
}
);
width = 572;
}
);
note = Scedilla;
unicode = 350;
},
{
glyphname = uni0218;
kernLeft = S;
kernRight = S;
lastChange = "2022-12-26 08:50:41 +0000";
layers = (
{
hints = (
{
horizontal = 1;
place = (-131, -77);
place = (-131, -77);
type = Stem;
},
{
horizontal = 1;
place = (536, -77);
place = (536, -77);
type = Stem;
},
{
place = (-27, -73);
place = (-27, -73);
type = Stem;
},
{
place = (336, -71);
place = (336, -71);
type = Stem;
}
);
layerId = m01;
shapes = (
{
closed = 1;
nodes = (
(304,-8,o),
(400,68,o),
(420,182,cs),
(438,285,o),
(384,335,o),
(257,387,cs),
(160,427,o),
(104,460,o),
(118,536,cs),
(130,604,o),
(197,659,o),
(281,659,cs),
(346,659,o),
(393,627,o),
(415,569,c),
(462,596,l),
(435,667,o),
(375,705,o),
(290,705,cs),
(175,705,o),
(85,635,o),
(67,534,cs),
(51,439,o),
(105,394,o),
(221,347,cs),
(328,303,o),
(383,265,o),
(367,177,cs),
(353,98,o),
(282,38,o),
(176,38,cs),
(77,38,o),
(15,97,o),
(17,192,c),
(-35,180,l),
(-36,66,o),
(43,-8,o),
(167,-8,cs)
);
},
{
closed = 1;
nodes = (
(0,-219,l),
(34,-219,l),
(179,-57,l),
(126,-57,l)
);
}
);
width = 572;
}
);
note = uni0218;
unicode = 536;
},
{
glyphname = uni1E9E;
lastChange = "2022-12-26 08:50:41 +0000";
layers = (
{
hints = (
{
horizontal = 1;
place = (-130, -75);
place = (-130, -75);
type = Stem;
},
{
horizontal = 1;
place = (525, -74);
place = (525, -74);
type = Stem;
},
{
place = (-17, -72);
place = (-17, -72);
type = Stem;
},
{
place = (164, -72);
place = (164, -72);
type = Stem;
},
{
place = (458, -69);
place = (458, -69);
type = Stem;
},
{
horizontal = 1;
place = (-123, 21);
target = up;
type = BottomGhost;
}
);
layerId = m01;
shapes = (
{
closed = 1;
nodes = (
(442,-7,o),
(521,51,o),
(536,137,cs),
(570,326,o),
(258,242,o),
(281,372,cs),
(286,401,o),
(304,419,o),
(322,436,cs),
(570,666,l),
(575,697,l),
(321,697,ls),
(126,697,o),
(81,556,o),
(62,447,cs),
(-17,0,l),
(34,0,l),
(113,447,ls),
(134,568,o),
(182,648,o),
(312,648,cs),
(489,648,l),
(292,467,ls),
(266,442,o),
(238,418,o),
(229,368,cs),
(199,198,o),
(508,283,o),
(482,134,cs),
(472,76,o),
(419,41,o),
(348,41,cs),
(268,41,o),
(220,84,o),
(208,143,c),
(160,120,l),
(172,46,o),
(239,-7,o),
(338,-7,cs)
);
}
);
width = 689;
}
);
note = uni1E9E;
unicode = 7838;
},
{
glyphname = T;
kernLeft = T;
kernRight = T;
lastChange = "2022-12-26 08:50:41 +0000";
layers = (
{
hints = (
{
horizontal = 1;
place = (-123, 21);
target = up;
type = BottomGhost;
},
{
horizontal = 1;
place = (527, -76);
place = (527, -76);
type = Stem;
},
{
place = (166, -71);
place = (166, -71);
type = Stem;
}
);
layerId = m01;
shapes = (
{
closed = 1;
nodes = (
(192,0,l),
(227,50,l),
(333,650,l),
(583,650,l),
(591,697,l),
(39,697,l),
(31,650,l),
(281,650,l),
(166,0,l)
);
}
);
width = 631;
}
);
note = T;
unicode = 84;
},
{
glyphname = Tbar;
kernLeft = T;
kernRight = T;
lastChange = "2022-12-26 08:50:41 +0000";
layers = (
{
hints = (
{
horizontal = 1;
place = (-123, 21);
target = up;
type = BottomGhost;
},
{
horizontal = 1;
place = (209, -89);
place = (209, -89);
type = Stem;
},
{
horizontal = 1;
place = (527, -76);
place = (527, -76);
type = Stem;
},
{
place = (166, -71);
place = (166, -71);
type = Stem;
}
);
layerId = m01;
shapes = (
{
closed = 1;
nodes = (
(583,650,l),
(591,697,l),
(39,697,l),
(31,650,l),
(281,650,l),
(231,366,l),
(132,366,l),
(126,332,l),
(225,332,l),
(166,0,l),
(218,0,l),
(277,332,l),
(376,332,l),
(382,366,l),
(283,366,l),
(333,650,l)
);
}
);
width = 631;
}
);
note = Tbar;
unicode = 358;
},
{
glyphname = Tcaron;
kernLeft = T;
kernRight = T;
lastChange = "2022-12-26 08:50:41 +0000";
layers = (
{
hints = (
{
horizontal = 1;
place = (-123, 21);
target = up;
type = BottomGhost;
},
{
horizontal = 1;
place = (527, -76);
place = (527, -76);
type = Stem;
},
{
place = (166, -71);
place = (166, -71);
type = Stem;
}
);
layerId = m01;
shapes = (
{
closed = 1;
nodes = (
(325,752,l),
(497,901,l),
(454,901,l),
(332,796,l),
(248,901,l),
(204,901,l)
);
},
{
closed = 1;
nodes = (
(166,0,l),
(218,0,l),
(333,650,l),
(583,650,l),
(591,697,l),
(39,697,l),
(31,650,l),
(281,650,l)
);
}
);
width = 631;
}
);
note = Tcaron;
unicode = 356;
},
{
glyphname = uni0162;
kernLeft = T;
kernRight = T;
lastChange = "2022-12-26 08:50:41 +0000";
layers = (
{
hints = (
{
horizontal = 1;
place = (-377, -91);
place = (-377, -91);
type = Stem;
},
{
horizontal = 1;
place = (-216, -100);
place = (-216, -100);
type = Stem;
},
{
horizontal = 1;
place = (-123, 21);
target = up;
type = BottomGhost;
},
{
horizontal = 1;
place = (527, -76);
place = (527, -76);
type = Stem;
},
{
place = (166, -71);
place = (166, -71);
type = Stem;
},
{
place = (259, -91);
place = (259, -91);
type = Stem;
}
);
layerId = m01;
shapes = (
{
closed = 1;
nodes = (
(218,0,l),
(333,650,l),
(583,650,l),
(591,697,l),
(39,697,l),
(31,650,l),
(281,650,l),
(166,0,l),
(175,0,l),
(107,-93,l),
(138,-93,o),
(165,-95,o),
(186,-101,cs),
(217,-110,o),
(237,-127,o),
(231,-162,cs),
(224,-201,o),
(196,-222,o),
(154,-222,cs),
(125,-222,o),
(100,-207,o),
(90,-178,c),
(66,-201,l),
(80,-234,o),
(112,-254,o),
(147,-254,cs),
(207,-254,o),
(253,-216,o),
(263,-161,cs),
(270,-122,o),
(253,-99,o),
(221,-85,cs),
(204,-77,o),
(181,-73,o),
(154,-70,c),
(207,0,l)
);
}
);
width = 631;
}
);
note = uni0162;
unicode = 354;
},
{
glyphname = uni021A;
kernLeft = T;
kernRight = T;
lastChange = "2022-12-26 08:50:41 +0000";
layers = (
{
hints = (
{
horizontal = 1;
place = (-123, 21);
target = up;
type = BottomGhost;
},
{
horizontal = 1;
place = (527, -76);
place = (527, -76);
type = Stem;
},
{
place = (166, -71);
place = (166, -71);
type = Stem;
}
);
layerId = m01;
shapes = (
{
closed = 1;
nodes = (
(166,0,l),
(218,0,l),
(333,650,l),
(583,650,l),
(591,697,l),
(39,697,l),
(31,650,l),
(281,650,l)
);
},
{
closed = 1;
nodes = (
(29,-219,l),
(63,-219,l),
(208,-57,l),
(155,-57,l)
);
}
);
width = 631;
}
);
note = uni021A;
unicode = 538;
},
{
glyphname = U;
kernLeft = U;
kernRight = J;
lastChange = "2022-12-26 08:50:41 +0000";
layers = (
{
hints = (
{
horizontal = 1;
place = (-131, -73);
place = (-131, -73);
type = Stem;
},
{
horizontal = 1;
place = (574, -20);
target = down;
type = TopGhost;
},
{
place = (-18, -73);
place = (-18, -73);
type = Stem;
},
{
place = (420, -72);
place = (420, -72);
type = Stem;
}
);
layerId = m01;
shapes = (
{
closed = 1;
nodes = (
(155,697,o),
(140,697,qs),
(105,697,l),
(27,252,ls),
(4,124,o),
(106,-8,o),
(224,-8,qs),
(344,-8,o),
(493,126,o),
(516,257,qs),
(594,697,l),
(543,697,l),
(466,260,ls),
(428,42,o),
(233,42,qs),
(40,42,o),
(77,257,qs),
(152,682,ls)
);
}
);
width = 698;
}
);
note = U;
unicode = 85;
},
{
glyphname = Uacute;
kernLeft = U;
kernRight = J;
lastChange = "2022-12-26 08:50:41 +0000";
layers = (
{
hints = (
{
horizontal = 1;
place = (-131, -73);
place = (-131, -73);
type = Stem;
},
{
horizontal = 1;
place = (574, -20);
target = down;
type = TopGhost;
},
{
horizontal = 1;
place = (638, 17);
place = (638, 17);
type = Stem;
},
{
place = (-18, -73);
place = (-18, -73);
type = Stem;
},
{
place = (420, -72);
place = (420, -72);
type = Stem;
}
);
layerId = m01;
shapes = (
{
closed = 1;
nodes = (
(341,761,l),
(381,761,l),
(526,901,l),
(473,901,l)
);
},
{
closed = 1;
nodes = (
(383,-8,o),
(486,84,o),
(516,257,cs),
(594,697,l),
(543,697,l),
(466,260,ls),
(440,115,o),
(363,42,o),
(233,42,cs),
(105,42,o),
(52,114,o),
(77,257,cs),
(155,697,l),
(105,697,l),
(27,252,ls),
(-3,83,o),
(67,-8,o),
(224,-8,cs)
);
}
);
width = 698;
}
);
note = Uacute;
unicode = 218;
},
{
glyphname = uni01D3;
kernLeft = U;
kernRight = J;
lastChange = "2022-12-26 08:50:41 +0000";
layers = (
{
hints = (
{
horizontal = 1;
place = (-131, -73);
place = (-131, -73);
type = Stem;
},
{
horizontal = 1;
place = (574, -20);
target = down;
type = TopGhost;
},
{
place = (-18, -73);
place = (-18, -73);
type = Stem;
},
{
place = (420, -72);
place = (420, -72);
type = Stem;
}
);
layerId = m01;
shapes = (
{
closed = 1;
nodes = (
(360,752,l),
(532,901,l),
(489,901,l),
(367,796,l),
(283,901,l),
(239,901,l)
);
},
{
closed = 1;
nodes = (
(383,-8,o),
(486,84,o),
(516,257,cs),
(594,697,l),
(543,697,l),
(466,260,ls),
(440,115,o),
(363,42,o),
(233,42,cs),
(105,42,o),
(52,114,o),
(77,257,cs),
(155,697,l),
(105,697,l),
(27,252,ls),
(-3,83,o),
(67,-8,o),
(224,-8,cs)
);
}
);
width = 698;
}
);
note = uni01D3;
unicode = 467;
},
{
glyphname = Ucircumflex;
kernLeft = U;
kernRight = J;
lastChange = "2022-12-26 08:50:41 +0000";
layers = (
{
hints = (
{
horizontal = 1;
place = (-131, -73);
place = (-131, -73);
type = Stem;
},
{
horizontal = 1;
place = (574, -20);
target = down;
type = TopGhost;
},
{
place = (-18, -73);
place = (-18, -73);
type = Stem;
},
{
place = (420, -72);
place = (420, -72);
type = Stem;
}
);
layerId = m01;
shapes = (
{
closed = 1;
nodes = (
(213,755,l),
(257,755,l),
(379,862,l),
(463,755,l),
(506,755,l),
(387,908,l)
);
},
{
closed = 1;
nodes = (
(383,-8,o),
(486,84,o),
(516,257,cs),
(594,697,l),
(543,697,l),
(466,260,ls),
(440,115,o),
(363,42,o),
(233,42,cs),
(105,42,o),
(52,114,o),
(77,257,cs),
(155,697,l),
(105,697,l),
(27,252,ls),
(-3,83,o),
(67,-8,o),
(224,-8,cs)
);
}
);
width = 698;
}
);
note = Ucircumflex;
unicode = 219;
},
{
glyphname = Udieresis;
kernLeft = U;
kernRight = J;
lastChange = "2022-12-26 08:50:41 +0000";
layers = (
{
hints = (
{
horizontal = 1;
place = (-131, -73);
place = (-131, -73);
type = Stem;
},
{
horizontal = 1;
place = (574, -20);
target = down;
type = TopGhost;
},
{
horizontal = 1;
place = (680, -25);
place = (680, -25);
type = Stem;
},
{
place = (-18, -73);
place = (-18, -73);
type = Stem;
},
{
place = (111, -66);
place = (111, -66);
type = Stem;
},
{
place = (286, -67);
place = (286, -67);
type = Stem;
},
{
place = (420, -72);
place = (420, -72);
type = Stem;
}
);
layerId = m01;
shapes = (
{
closed = 1;
nodes = (
(253,803,l),
(310,803,l),
(327,901,l),
(270,901,l)
);
},
{
closed = 1;
nodes = (
(428,803,l),
(484,803,l),
(501,901,l),
(445,901,l)
);
},
{
closed = 1;
nodes = (
(383,-8,o),
(486,84,o),
(516,257,cs),
(594,697,l),
(543,697,l),
(466,260,ls),
(440,115,o),
(363,42,o),
(233,42,cs),
(105,42,o),
(52,114,o),
(77,257,cs),
(155,697,l),
(105,697,l),
(27,252,ls),
(-3,83,o),
(67,-8,o),
(224,-8,cs)
);
}
);
width = 698;
}
);
note = Udieresis;
unicode = 220;
},
{
glyphname = uni01D7;
kernLeft = U;
kernRight = J;
lastChange = "2022-12-26 08:50:41 +0000";
layers = (
{
hints = (
{
horizontal = 1;
place = (-131, -73);
place = (-131, -73);
type = Stem;
},
{
horizontal = 1;
place = (574, -20);
target = down;
type = TopGhost;
},
{
horizontal = 1;
place = (680, -25);
place = (680, -25);
type = Stem;
},
{
horizontal = 1;
place = (842, 17);
place = (842, 17);
type = Stem;
},
{
place = (-18, -73);
place = (-18, -73);
type = Stem;
},
{
place = (111, -66);
place = (111, -66);
type = Stem;
},
{
place = (286, -67);
place = (286, -67);
type = Stem;
},
{
place = (420, -72);
place = (420, -72);
type = Stem;
}
);
layerId = m01;
shapes = (
{
closed = 1;
nodes = (
(377,965,l),
(417,965,l),
(562,1105,l),
(509,1105,l)
);
},
{
closed = 1;
nodes = (
(253,803,l),
(310,803,l),
(327,901,l),
(270,901,l)
);
},
{
closed = 1;
nodes = (
(428,803,l),
(484,803,l),
(501,901,l),
(445,901,l)
);
},
{
closed = 1;
nodes = (
(383,-8,o),
(486,84,o),
(516,257,cs),
(594,697,l),
(543,697,l),
(466,260,ls),
(440,115,o),
(363,42,o),
(233,42,cs),
(105,42,o),
(52,114,o),
(77,257,cs),
(155,697,l),
(105,697,l),
(27,252,ls),
(-3,83,o),
(67,-8,o),
(224,-8,cs)
);
}
);
width = 698;
}
);
note = uni01D7;
unicode = 471;
},
{
glyphname = uni01D9;
kernLeft = U;
kernRight = J;
lastChange = "2022-12-26 08:50:41 +0000";
layers = (
{
hints = (
{
horizontal = 1;
place = (-131, -73);
place = (-131, -73);
type = Stem;
},
{
horizontal = 1;
place = (574, -20);
target = down;
type = TopGhost;
},
{
horizontal = 1;
place = (680, -25);
place = (680, -25);
type = Stem;
},
{
place = (-18, -73);
place = (-18, -73);
type = Stem;
},
{
place = (111, -66);
place = (111, -66);
type = Stem;
},
{
place = (286, -67);
place = (286, -67);
type = Stem;
},
{
place = (420, -72);
place = (420, -72);
type = Stem;
}
);
layerId = m01;
shapes = (
{
closed = 1;
nodes = (
(396,956,l),
(568,1105,l),
(525,1105,l),
(403,1000,l),
(319,1105,l),
(275,1105,l)
);
},
{
closed = 1;
nodes = (
(253,803,l),
(310,803,l),
(327,901,l),
(270,901,l)
);
},
{
closed = 1;
nodes = (
(428,803,l),
(484,803,l),
(501,901,l),
(445,901,l)
);
},
{
closed = 1;
nodes = (
(383,-8,o),
(486,84,o),
(516,257,cs),
(594,697,l),
(543,697,l),
(466,260,ls),
(440,115,o),
(363,42,o),
(233,42,cs),
(105,42,o),
(52,114,o),
(77,257,cs),
(155,697,l),
(105,697,l),
(27,252,ls),
(-3,83,o),
(67,-8,o),
(224,-8,cs)
);
}
);
width = 698;
}
);
note = uni01D9;
unicode = 473;
},
{
glyphname = uni01DB;
kernLeft = U;
kernRight = J;
lastChange = "2022-12-26 08:50:41 +0000";
layers = (
{
hints = (
{
horizontal = 1;
place = (-131, -73);
place = (-131, -73);
type = Stem;
},
{
horizontal = 1;
place = (574, -20);
target = down;
type = TopGhost;
},
{
horizontal = 1;
place = (680, -25);
place = (680, -25);
type = Stem;
},
{
horizontal = 1;
place = (842, 17);
place = (842, 17);
type = Stem;
},
{
place = (-18, -73);
place = (-18, -73);
type = Stem;
},
{
place = (111, -66);
place = (111, -66);
type = Stem;
},
{
place = (286, -67);
place = (286, -67);
type = Stem;
},
{
place = (420, -72);
place = (420, -72);
type = Stem;
}
);
layerId = m01;
shapes = (
{
closed = 1;
nodes = (
(376,965,l),
(416,965,l),
(337,1105,l),
(284,1105,l)
);
},
{
closed = 1;
nodes = (
(253,803,l),
(310,803,l),
(327,901,l),
(270,901,l)
);
},
{
closed = 1;
nodes = (
(428,803,l),
(484,803,l),
(501,901,l),
(445,901,l)
);
},
{
closed = 1;
nodes = (
(383,-8,o),
(486,84,o),
(516,257,cs),
(594,697,l),
(543,697,l),
(466,260,ls),
(440,115,o),
(363,42,o),
(233,42,cs),
(105,42,o),
(52,114,o),
(77,257,cs),
(155,697,l),
(105,697,l),
(27,252,ls),
(-3,83,o),
(67,-8,o),
(224,-8,cs)
);
}
);
width = 698;
}
);
note = uni01DB;
unicode = 475;
},
{
glyphname = uni01D5;
kernLeft = U;
kernRight = J;
lastChange = "2022-12-26 08:50:41 +0000";
layers = (
{
hints = (
{
horizontal = 1;
place = (-131, -73);
place = (-131, -73);
type = Stem;
},
{
horizontal = 1;
place = (574, -20);
target = down;
type = TopGhost;
},
{
horizontal = 1;
place = (680, -25);
place = (680, -25);
type = Stem;
},
{
horizontal = 1;
place = (897, -92);
place = (897, -92);
type = Stem;
},
{
place = (-18, -73);
place = (-18, -73);
type = Stem;
},
{
place = (111, -66);
place = (111, -66);
type = Stem;
},
{
place = (286, -67);
place = (286, -67);
type = Stem;
},
{
place = (420, -72);
place = (420, -72);
type = Stem;
}
);
layerId = m01;
shapes = (
{
closed = 1;
nodes = (
(272,1020,l),
(540,1020,l),
(545,1051,l),
(277,1051,l)
);
},
{
closed = 1;
nodes = (
(253,803,l),
(310,803,l),
(327,901,l),
(270,901,l)
);
},
{
closed = 1;
nodes = (
(428,803,l),
(484,803,l),
(501,901,l),
(445,901,l)
);
},
{
closed = 1;
nodes = (
(383,-8,o),
(486,84,o),
(516,257,cs),
(594,697,l),
(543,697,l),
(466,260,ls),
(440,115,o),
(363,42,o),
(233,42,cs),
(105,42,o),
(52,114,o),
(77,257,cs),
(155,697,l),
(105,697,l),
(27,252,ls),
(-3,83,o),
(67,-8,o),
(224,-8,cs)
);
}
);
width = 698;
}
);
note = uni01D5;
unicode = 469;
},
{
glyphname = uni1EE4;
kernLeft = U;
kernRight = J;
lastChange = "2022-12-26 08:50:41 +0000";
layers = (
{
hints = (
{
horizontal = 1;
place = (-296, -26);
place = (-296, -26);
type = Stem;
},
{
horizontal = 1;
place = (-131, -73);
place = (-131, -73);
type = Stem;
},
{
horizontal = 1;
place = (574, -20);
target = down;
type = TopGhost;
},
{
place = (-18, -73);
place = (-18, -73);
type = Stem;
},
{
place = (198, -66);
place = (198, -66);
type = Stem;
},
{
place = (420, -72);
place = (420, -72);
type = Stem;
}
);
layerId = m01;
shapes = (
{
closed = 1;
nodes = (
(383,-8,o),
(486,84,o),
(516,257,cs),
(594,697,l),
(543,697,l),
(466,260,ls),
(440,115,o),
(363,42,o),
(233,42,cs),
(105,42,o),
(52,114,o),
(77,257,cs),
(155,697,l),
(105,697,l),
(27,252,ls),
(-3,83,o),
(67,-8,o),
(224,-8,cs)
);
},
{
closed = 1;
nodes = (
(168,-173,l),
(225,-173,l),
(242,-76,l),
(185,-76,l)
);
}
);
width = 698;
}
);
note = uni1EE4;
unicode = 7908;
},
{
glyphname = Ugrave;
kernLeft = U;
kernRight = J;
lastChange = "2022-12-26 08:50:41 +0000";
layers = (
{
hints = (
{
horizontal = 1;
place = (-131, -73);
place = (-131, -73);
type = Stem;
},
{
horizontal = 1;
place = (574, -20);
target = down;
type = TopGhost;
},
{
horizontal = 1;
place = (638, 17);
place = (638, 17);
type = Stem;
},
{
place = (-18, -73);
place = (-18, -73);
type = Stem;
},
{
place = (420, -72);
place = (420, -72);
type = Stem;
}
);
layerId = m01;
shapes = (
{
closed = 1;
nodes = (
(340,761,l),
(380,761,l),
(301,901,l),
(248,901,l)
);
},
{
closed = 1;
nodes = (
(383,-8,o),
(486,84,o),
(516,257,cs),
(594,697,l),
(543,697,l),
(466,260,ls),
(440,115,o),
(363,42,o),
(233,42,cs),
(105,42,o),
(52,114,o),
(77,257,cs),
(155,697,l),
(105,697,l),
(27,252,ls),
(-3,83,o),
(67,-8,o),
(224,-8,cs)
);
}
);
width = 698;
}
);
note = Ugrave;
unicode = 217;
},
{
glyphname = uni1EE6;
kernLeft = U;
kernRight = J;
lastChange = "2022-12-26 08:50:41 +0000";
layers = (
{
hints = (
{
horizontal = 1;
place = (-131, -73);
place = (-131, -73);
type = Stem;
},
{
horizontal = 1;
place = (574, -20);
target = down;
type = TopGhost;
},
{
horizontal = 1;
place = (769, -93);
place = (769, -93);
type = Stem;
},
{
place = (-18, -73);
place = (-18, -73);
type = Stem;
},
{
place = (298, -87);
place = (298, -87);
type = Stem;
},
{
place = (420, -72);
place = (420, -72);
type = Stem;
}
);
layerId = m01;
shapes = (
{
closed = 1;
nodes = (
(352,736,l),
(402,747,o),
(467,756,o),
(480,825,cs),
(491,888,o),
(438,922,o),
(362,922,cs),
(347,922,l),
(341,892,l),
(356,892,ls),
(407,892,o),
(452,874,o),
(444,826,cs),
(436,780,o),
(388,773,o),
(348,766,c)
);
},
{
closed = 1;
nodes = (
(383,-8,o),
(486,84,o),
(516,257,cs),
(594,697,l),
(543,697,l),
(466,260,ls),
(440,115,o),
(363,42,o),
(233,42,cs),
(105,42,o),
(52,114,o),
(77,257,cs),
(155,697,l),
(105,697,l),
(27,252,ls),
(-3,83,o),
(67,-8,o),
(224,-8,cs)
);
}
);
width = 698;
}
);
note = uni1EE6;
unicode = 7910;
},
{
glyphname = Uhorn;
kernLeft = U;
kernRight = J;
lastChange = "2022-12-26 08:50:41 +0000";
layers = (
{
hints = (
{
horizontal = 1;
place = (-131, -73);
place = (-131, -73);
type = Stem;
},
{
horizontal = 1;
place = (375, -88);
place = (375, -88);
type = Stem;
},
{
horizontal = 1;
place = (574, -20);
target = down;
type = TopGhost;
},
{
place = (-18, -73);
place = (-18, -73);
type = Stem;
},
{
place = (420, -72);
place = (420, -72);
type = Stem;
},
{
place = (558, -84);
place = (558, -84);
type = Stem;
}
);
layerId = m01;
shapes = (
{
closed = 1;
nodes = (
(681,697,l),
(671,642,ls),
(660,577,o),
(627,535,o),
(565,533,c),
(594,697,l),
(543,697,l),
(466,260,ls),
(440,115,o),
(363,42,o),
(233,42,cs),
(105,42,o),
(52,114,o),
(77,257,cs),
(155,697,l),
(105,697,l),
(27,252,ls),
(-3,83,o),
(67,-8,o),
(224,-8,cs),
(383,-8,o),
(486,84,o),
(516,257,cs),
(559,498,l),
(646,500,o),
(695,556,o),
(711,646,cs),
(720,697,l)
);
}
);
width = 698;
}
);
note = Uhorn;
unicode = 431;
},
{
glyphname = uni1EE8;
kernLeft = U;
kernRight = J;
lastChange = "2022-12-26 08:50:41 +0000";
layers = (
{
hints = (
{
horizontal = 1;
place = (-131, -73);
place = (-131, -73);
type = Stem;
},
{
horizontal = 1;
place = (375, -88);
place = (375, -88);
type = Stem;
},
{
horizontal = 1;
place = (574, -20);
target = down;
type = TopGhost;
},
{
horizontal = 1;
place = (638, 17);
place = (638, 17);
type = Stem;
},
{
place = (-18, -73);
place = (-18, -73);
type = Stem;
},
{
place = (420, -72);
place = (420, -72);
type = Stem;
},
{
place = (558, -84);
place = (558, -84);
type = Stem;
}
);
layerId = m01;
shapes = (
{
closed = 1;
nodes = (
(526,901,l),
(473,901,l),
(341,761,l),
(381,761,l)
);
},
{
closed = 1;
nodes = (
(681,697,l),
(671,642,ls),
(660,577,o),
(627,535,o),
(565,533,c),
(594,697,l),
(543,697,l),
(466,260,ls),
(440,115,o),
(363,42,o),
(233,42,cs),
(105,42,o),
(52,114,o),
(77,257,cs),
(155,697,l),
(105,697,l),
(27,252,ls),
(-3,83,o),
(67,-8,o),
(224,-8,cs),
(383,-8,o),
(486,84,o),
(516,257,cs),
(559,498,l),
(646,500,o),
(695,556,o),
(711,646,cs),
(720,697,l)
);
}
);
width = 698;
}
);
note = uni1EE8;
unicode = 7912;
},
{
glyphname = uni1EF0;
kernLeft = U;
kernRight = J;
lastChange = "2022-12-26 08:50:41 +0000";
layers = (
{
hints = (
{
horizontal = 1;
place = (-296, -26);
place = (-296, -26);
type = Stem;
},
{
horizontal = 1;
place = (-131, -73);
place = (-131, -73);
type = Stem;
},
{
horizontal = 1;
place = (375, -88);
place = (375, -88);
type = Stem;
},
{
horizontal = 1;
place = (574, -20);
target = down;
type = TopGhost;
},
{
place = (-18, -73);
place = (-18, -73);
type = Stem;
},
{
place = (198, -66);
place = (198, -66);
type = Stem;
},
{
place = (420, -72);
place = (420, -72);
type = Stem;
},
{
place = (558, -84);
place = (558, -84);
type = Stem;
}
);
layerId = m01;
shapes = (
{
closed = 1;
nodes = (
(681,697,l),
(671,642,ls),
(660,577,o),
(627,535,o),
(565,533,c),
(594,697,l),
(543,697,l),
(466,260,ls),
(440,115,o),
(363,42,o),
(233,42,cs),
(105,42,o),
(52,114,o),
(77,257,cs),
(155,697,l),
(105,697,l),
(27,252,ls),
(-3,83,o),
(67,-8,o),
(224,-8,cs),
(383,-8,o),
(486,84,o),
(516,257,cs),
(559,498,l),
(646,500,o),
(695,556,o),
(711,646,cs),
(720,697,l)
);
},
{
closed = 1;
nodes = (
(168,-173,l),
(225,-173,l),
(242,-76,l),
(185,-76,l)
);
}
);
width = 698;
}
);
note = uni1EF0;
unicode = 7920;
},
{
glyphname = uni1EEA;
kernLeft = U;
kernRight = J;
lastChange = "2022-12-26 08:50:41 +0000";
layers = (
{
hints = (
{
horizontal = 1;
place = (-131, -73);
place = (-131, -73);
type = Stem;
},
{
horizontal = 1;
place = (375, -88);
place = (375, -88);
type = Stem;
},
{
horizontal = 1;
place = (574, -20);
target = down;
type = TopGhost;
},
{
horizontal = 1;
place = (638, 17);
place = (638, 17);
type = Stem;
},
{
place = (-18, -73);
place = (-18, -73);
type = Stem;
},
{
place = (420, -72);
place = (420, -72);
type = Stem;
},
{
place = (558, -84);
place = (558, -84);
type = Stem;
}
);
layerId = m01;
shapes = (
{
closed = 1;
nodes = (
(380,761,l),
(301,901,l),
(248,901,l),
(340,761,l)
);
},
{
closed = 1;
nodes = (
(681,697,l),
(671,642,ls),
(660,577,o),
(627,535,o),
(565,533,c),
(594,697,l),
(543,697,l),
(466,260,ls),
(440,115,o),
(363,42,o),
(233,42,cs),
(105,42,o),
(52,114,o),
(77,257,cs),
(155,697,l),
(105,697,l),
(27,252,ls),
(-3,83,o),
(67,-8,o),
(224,-8,cs),
(383,-8,o),
(486,84,o),
(516,257,cs),
(559,498,l),
(646,500,o),
(695,556,o),
(711,646,cs),
(720,697,l)
);
}
);
width = 698;
}
);
note = uni1EEA;
unicode = 7914;
},
{
glyphname = uni1EEC;
kernLeft = U;
kernRight = J;
lastChange = "2022-12-26 08:50:41 +0000";
layers = (
{
hints = (
{
horizontal = 1;
place = (-131, -73);
place = (-131, -73);
type = Stem;
},
{
horizontal = 1;
place = (375, -88);
place = (375, -88);
type = Stem;
},
{
horizontal = 1;
place = (574, -20);
target = down;
type = TopGhost;
},
{
horizontal = 1;
place = (769, -93);
place = (769, -93);
type = Stem;
},
{
place = (-18, -73);
place = (-18, -73);
type = Stem;
},
{
place = (298, -87);
place = (298, -87);
type = Stem;
},
{
place = (420, -72);
place = (420, -72);
type = Stem;
},
{
place = (558, -84);
place = (558, -84);
type = Stem;
}
);
layerId = m01;
shapes = (
{
closed = 1;
nodes = (
(436,780,o),
(388,773,o),
(348,766,c),
(352,736,l),
(402,747,o),
(467,756,o),
(480,825,cs),
(491,888,o),
(438,922,o),
(362,922,cs),
(347,922,l),
(341,892,l),
(356,892,ls),
(407,892,o),
(452,874,o),
(444,826,cs)
);
},
{
closed = 1;
nodes = (
(681,697,l),
(671,642,ls),
(660,577,o),
(627,535,o),
(565,533,c),
(594,697,l),
(543,697,l),
(466,260,ls),
(440,115,o),
(363,42,o),
(233,42,cs),
(105,42,o),
(52,114,o),
(77,257,cs),
(155,697,l),
(105,697,l),
(27,252,ls),
(-3,83,o),
(67,-8,o),
(224,-8,cs),
(383,-8,o),
(486,84,o),
(516,257,cs),
(559,498,l),
(646,500,o),
(695,556,o),
(711,646,cs),
(720,697,l)
);
}
);
width = 698;
}
);
note = uni1EEC;
unicode = 7916;
},
{
glyphname = uni1EEE;
kernLeft = U;
kernRight = J;
lastChange = "2022-12-26 08:50:41 +0000";
layers = (
{
hints = (
{
horizontal = 1;
place = (-131, -73);
place = (-131, -73);
type = Stem;
},
{
horizontal = 1;
place = (375, -88);
place = (375, -88);
type = Stem;
},
{
horizontal = 1;
place = (574, -20);
target = down;
type = TopGhost;
},
{
horizontal = 1;
place = (657, -90);
place = (657, -90);
type = Stem;
},
{
horizontal = 1;
place = (750, -91);
place = (750, -91);
type = Stem;
},
{
place = (-18, -73);
place = (-18, -73);
type = Stem;
},
{
place = (71, -93);
place = (71, -93);
type = Stem;
},
{
place = (350, -91);
place = (350, -91);
type = Stem;
},
{
place = (420, -72);
place = (420, -72);
type = Stem;
},
{
place = (558, -84);
place = (558, -84);
type = Stem;
}
);
layerId = m01;
shapes = (
{
closed = 1;
nodes = (
(371,873,o),
(351,780,o),
(436,780,cs),
(486,780,o),
(528,827,o),
(541,901,c),
(509,901,l),
(499,847,o),
(470,813,o),
(441,813,cs),
(379,813,o),
(396,905,o),
(319,905,cs),
(265,905,o),
(223,863,o),
(210,790,c),
(240,790,l),
(250,842,o),
(277,873,o),
(312,873,cs)
);
},
{
closed = 1;
nodes = (
(681,697,l),
(671,642,ls),
(660,577,o),
(627,535,o),
(565,533,c),
(594,697,l),
(543,697,l),
(466,260,ls),
(440,115,o),
(363,42,o),
(233,42,cs),
(105,42,o),
(52,114,o),
(77,257,cs),
(155,697,l),
(105,697,l),
(27,252,ls),
(-3,83,o),
(67,-8,o),
(224,-8,cs),
(383,-8,o),
(486,84,o),
(516,257,cs),
(559,498,l),
(646,500,o),
(695,556,o),
(711,646,cs),
(720,697,l)
);
}
);
width = 698;
}
);
note = uni1EEE;
unicode = 7918;
},
{
glyphname = Uhungarumlaut;
kernLeft = U;
kernRight = J;
lastChange = "2022-12-26 08:50:41 +0000";
layers = (
{
hints = (
{
horizontal = 1;
place = (-131, -73);
place = (-131, -73);
type = Stem;
},
{
horizontal = 1;
place = (574, -20);
target = down;
type = TopGhost;
},
{
horizontal = 1;
place = (630, 25);
place = (630, 25);
type = Stem;
},
{
place = (-18, -73);
place = (-18, -73);
type = Stem;
},
{
place = (420, -72);
place = (420, -72);
type = Stem;
}
);
layerId = m01;
shapes = (
{
closed = 1;
nodes = (
(258,753,l),
(298,753,l),
(437,901,l),
(391,901,l)
);
},
{
closed = 1;
nodes = (
(420,753,l),
(459,753,l),
(606,901,l),
(553,901,l)
);
},
{
closed = 1;
nodes = (
(383,-8,o),
(486,84,o),
(516,257,cs),
(594,697,l),
(543,697,l),
(466,260,ls),
(440,115,o),
(363,42,o),
(233,42,cs),
(105,42,o),
(52,114,o),
(77,257,cs),
(155,697,l),
(105,697,l),
(27,252,ls),
(-3,83,o),
(67,-8,o),
(224,-8,cs)
);
}
);
width = 698;
}
);
note = Uhungarumlaut;
unicode = 368;
},
{
glyphname = Umacron;
kernLeft = U;
kernRight = J;
lastChange = "2022-12-26 08:50:41 +0000";
layers = (
{
hints = (
{
horizontal = 1;
place = (-131, -73);
place = (-131, -73);
type = Stem;
},
{
horizontal = 1;
place = (574, -20);
target = down;
type = TopGhost;
},
{
horizontal = 1;
place = (693, -92);
place = (693, -92);
type = Stem;
},
{
place = (-18, -73);
place = (-18, -73);
type = Stem;
},
{
place = (420, -72);
place = (420, -72);
type = Stem;
}
);
layerId = m01;
shapes = (
{
closed = 1;
nodes = (
(236,816,l),
(504,816,l),
(509,847,l),
(241,847,l)
);
},
{
closed = 1;
nodes = (
(383,-8,o),
(486,84,o),
(516,257,cs),
(594,697,l),
(543,697,l),
(466,260,ls),
(440,115,o),
(363,42,o),
(233,42,cs),
(105,42,o),
(52,114,o),
(77,257,cs),
(155,697,l),
(105,697,l),
(27,252,ls),
(-3,83,o),
(67,-8,o),
(224,-8,cs)
);
}
);
width = 698;
}
);
note = Umacron;
unicode = 362;
},
{
glyphname = Uogonek;
kernLeft = U;
kernRight = J;
lastChange = "2022-12-26 08:50:41 +0000";
layers = (
{
hints = (
{
horizontal = 1;
place = (-334, -89);
place = (-334, -89);
type = Stem;
},
{
horizontal = 1;
place = (-131, -73);
place = (-131, -73);
type = Stem;
},
{
horizontal = 1;
place = (574, -20);
target = down;
type = TopGhost;
},
{
place = (-18, -73);
place = (-18, -73);
type = Stem;
},
{
place = (158, -91);
place = (158, -91);
type = Stem;
},
{
place = (420, -72);
place = (420, -72);
type = Stem;
}
);
layerId = m01;
shapes = (
{
closed = 1;
nodes = (
(543,697,l),
(466,260,ls),
(440,115,o),
(363,42,o),
(233,42,cs),
(105,42,o),
(52,114,o),
(77,257,cs),
(155,697,l),
(105,697,l),
(27,252,ls),
(-3,83,o),
(67,-8,o),
(224,-8,cs),
(233,-8,l),
(188,-38,o),
(143,-83,o),
(134,-134,cs),
(126,-182,o),
(158,-211,o),
(204,-211,cs),
(237,-211,o),
(270,-195,o),
(298,-171,c),
(278,-150,l),
(256,-167,o),
(231,-177,o),
(208,-177,cs),
(182,-177,o),
(161,-164,o),
(167,-130,cs),
(177,-74,o),
(237,-30,o),
(285,-3,c),
(409,18,o),
(490,107,o),
(516,257,cs),
(594,697,l)
);
}
);
width = 698;
}
);
note = Uogonek;
unicode = 370;
},
{
glyphname = Uring;
kernLeft = U;
kernRight = J;
lastChange = "2022-12-26 08:50:41 +0000";
layers = (
{
hints = (
{
horizontal = 1;
place = (-131, -73);
place = (-131, -73);
type = Stem;
},
{
horizontal = 1;
place = (561, -94);
place = (561, -94);
type = Stem;
},
{
horizontal = 1;
place = (712, -93);
place = (712, -93);
type = Stem;
},
{
place = (-18, -73);
place = (-18, -73);
type = Stem;
},
{
place = (135, -93);
place = (135, -93);
type = Stem;
},
{
place = (287, -94);
place = (287, -94);
type = Stem;
},
{
place = (420, -72);
place = (420, -72);
type = Stem;
},
{
horizontal = 1;
place = (574, -20);
target = down;
type = TopGhost;
}
);
layerId = m01;
shapes = (
{
closed = 1;
nodes = (
(397,684,o),
(444,724,o),
(453,774,cs),
(461,824,o),
(428,865,o),
(379,865,cs),
(329,865,o),
(281,825,o),
(272,774,cs),
(263,724,o),
(296,684,o),
(347,684,cs)
);
},
{
closed = 1;
nodes = (
(317,713,o),
(296,740,o),
(302,774,cs),
(308,809,o),
(338,835,o),
(373,835,cs),
(408,835,o),
(430,809,o),
(424,774,cs),
(418,740,o),
(386,713,o),
(352,713,cs)
);
},
{
closed = 1;
nodes = (
(383,-8,o),
(486,84,o),
(516,257,cs),
(594,697,l),
(543,697,l),
(466,260,ls),
(440,115,o),
(363,42,o),
(233,42,cs),
(105,42,o),
(52,114,o),
(77,257,cs),
(155,697,l),
(105,697,l),
(27,252,ls),
(-3,83,o),
(67,-8,o),
(224,-8,cs)
);
}
);
width = 698;
}
);
note = Uring;
unicode = 366;
},
{
glyphname = Utilde;
kernLeft = U;
kernRight = J;
lastChange = "2022-12-26 08:50:41 +0000";
layers = (
{
hints = (
{
horizontal = 1;
place = (-131, -73);
place = (-131, -73);
type = Stem;
},
{
horizontal = 1;
place = (574, -20);
target = down;
type = TopGhost;
},
{
horizontal = 1;
place = (657, -90);
place = (657, -90);
type = Stem;
},
{
horizontal = 1;
place = (750, -91);
place = (750, -91);
type = Stem;
},
{
place = (-18, -73);
place = (-18, -73);
type = Stem;
},
{
place = (71, -93);
place = (71, -93);
type = Stem;
},
{
place = (350, -91);
place = (350, -91);
type = Stem;
},
{
place = (420, -72);
place = (420, -72);
type = Stem;
}
);
layerId = m01;
shapes = (
{
closed = 1;
nodes = (
(486,780,o),
(528,827,o),
(541,901,c),
(509,901,l),
(499,847,o),
(470,813,o),
(441,813,cs),
(379,813,o),
(396,905,o),
(319,905,cs),
(265,905,o),
(223,863,o),
(210,790,c),
(240,790,l),
(250,842,o),
(277,873,o),
(312,873,cs),
(371,873,o),
(351,780,o),
(436,780,cs)
);
},
{
closed = 1;
nodes = (
(383,-8,o),
(486,84,o),
(516,257,cs),
(594,697,l),
(543,697,l),
(466,260,ls),
(440,115,o),
(363,42,o),
(233,42,cs),
(105,42,o),
(52,114,o),
(77,257,cs),
(155,697,l),
(105,697,l),
(27,252,ls),
(-3,83,o),
(67,-8,o),
(224,-8,cs)
);
}
);
width = 698;
}
);
note = Utilde;
unicode = 360;
},
{
glyphname = V;
kernLeft = V;
kernRight = V;
lastChange = "2022-12-26 08:50:41 +0000";
layers = (
{
hints = (
{
horizontal = 1;
place = (-123, 21);
target = up;
type = BottomGhost;
},
{
horizontal = 1;
place = (574, -20);
target = down;
type = TopGhost;
},
{
place = (-80, 471);
place = (-80, 471);
type = Stem;
},
{
horizontal = 1;
place = (-123, -48);
place = (-123, -48);
type = Stem;
}
);
layerId = m01;
shapes = (
{
closed = 1;
nodes = (
(581,697,o),
(573,683,qs),
(231,75,l),
(100,697,l),
(43,697,l),
(195,0,l),
(239,0,l),
(637,697,l),
(596,697,ls)
);
}
);
width = 680;
}
);
note = V;
unicode = 86;
},
{
glyphname = W;
kernLeft = W;
kernRight = W;
lastChange = "2022-12-26 08:50:41 +0000";
layers = (
{
hints = (
{
horizontal = 1;
place = (-123, 21);
target = up;
type = BottomGhost;
},
{
horizontal = 1;
place = (574, -20);
target = down;
type = TopGhost;
},
{
place = (-74, 757);
place = (-74, 757);
type = Stem;
},
{
horizontal = 1;
place = (-123, -49);
place = (-123, -49);
type = Stem;
}
);
layerId = m01;
shapes = (
{
closed = 1;
nodes = (
(876,697,o),
(868,682,qs),
(590,74,l),
(506,661,l),
(475,661,ls),
(460,661,o),
(452,646,qs),
(167,74,l),
(102,697,l),
(49,697,l),
(125,0,l),
(178,0,l),
(468,580,l),
(553,0,l),
(607,0,l),
(929,697,l),
(890,697,ls)
);
}
);
width = 978;
}
);
note = W;
unicode = 87;
},
{
glyphname = Wacute;
kernLeft = W;
kernRight = W;
lastChange = "2022-12-26 08:50:41 +0000";
layers = (
{
hints = (
{
horizontal = 1;
place = (-123, 21);
target = up;
type = BottomGhost;
},
{
horizontal = 1;
place = (574, -20);
target = down;
type = TopGhost;
},
{
horizontal = 1;
place = (638, 17);
place = (638, 17);
type = Stem;
},
{
place = (-74, 757);
place = (-74, 757);
type = Stem;
},
{
horizontal = 1;
place = (-123, -49);
place = (-123, -49);
type = Stem;
}
);
layerId = m01;
shapes = (
{
closed = 1;
nodes = (
(481,761,l),
(521,761,l),
(666,901,l),
(613,901,l)
);
},
{
closed = 1;
nodes = (
(125,0,l),
(178,0,l),
(468,580,l),
(553,0,l),
(607,0,l),
(929,697,l),
(875,697,l),
(590,74,l),
(506,661,l),
(460,661,l),
(167,74,l),
(102,697,l),
(49,697,l)
);
}
);
width = 978;
}
);
note = Wacute;
unicode = 7810;
},
{
glyphname = Wcircumflex;
kernLeft = W;
kernRight = W;
lastChange = "2022-12-26 08:50:41 +0000";
layers = (
{
hints = (
{
horizontal = 1;
place = (-123, 21);
target = up;
type = BottomGhost;
},
{
horizontal = 1;
place = (574, -20);
target = down;
type = TopGhost;
},
{
place = (-74, 757);
place = (-74, 757);
type = Stem;
},
{
horizontal = 1;
place = (-123, -49);
place = (-123, -49);
type = Stem;
}
);
layerId = m01;
shapes = (
{
closed = 1;
nodes = (
(353,755,l),
(397,755,l),
(519,862,l),
(603,755,l),
(646,755,l),
(527,908,l)
);
},
{
closed = 1;
nodes = (
(125,0,l),
(178,0,l),
(468,580,l),
(553,0,l),
(607,0,l),
(929,697,l),
(875,697,l),
(590,74,l),
(506,661,l),
(460,661,l),
(167,74,l),
(102,697,l),
(49,697,l)
);
}
);
width = 978;
}
);
note = Wcircumflex;
unicode = 372;
},
{
glyphname = Wdieresis;
kernLeft = W;
kernRight = W;
lastChange = "2022-12-26 08:50:41 +0000";
layers = (
{
hints = (
{
horizontal = 1;
place = (-123, 21);
target = up;
type = BottomGhost;
},
{
horizontal = 1;
place = (574, -20);
target = down;
type = TopGhost;
},
{
horizontal = 1;
place = (680, -25);
place = (680, -25);
type = Stem;
},
{
place = (251, -66);
place = (251, -66);
type = Stem;
},
{
place = (426, -67);
place = (426, -67);
type = Stem;
},
{
horizontal = 1;
place = (-123, -49);
place = (-123, -49);
type = Stem;
}
);
layerId = m01;
shapes = (
{
closed = 1;
nodes = (
(393,803,l),
(450,803,l),
(467,901,l),
(410,901,l)
);
},
{
closed = 1;
nodes = (
(568,803,l),
(624,803,l),
(641,901,l),
(585,901,l)
);
},
{
closed = 1;
nodes = (
(125,0,l),
(178,0,l),
(468,580,l),
(553,0,l),
(607,0,l),
(929,697,l),
(875,697,l),
(590,74,l),
(506,661,l),
(460,661,l),
(167,74,l),
(102,697,l),
(49,697,l)
);
}
);
width = 978;
}
);
note = Wdieresis;
unicode = 7812;
},
{
glyphname = Wgrave;
kernLeft = W;
kernRight = W;
lastChange = "2022-12-26 08:50:41 +0000";
layers = (
{
hints = (
{
horizontal = 1;
place = (-123, 21);
target = up;
type = BottomGhost;
},
{
horizontal = 1;
place = (574, -20);
target = down;
type = TopGhost;
},
{
horizontal = 1;
place = (638, 17);
place = (638, 17);
type = Stem;
},
{
place = (-74, 757);
place = (-74, 757);
type = Stem;
},
{
horizontal = 1;
place = (-123, -49);
place = (-123, -49);
type = Stem;
}
);
layerId = m01;
shapes = (
{
closed = 1;
nodes = (
(480,761,l),
(520,761,l),
(441,901,l),
(388,901,l)
);
},
{
closed = 1;
nodes = (
(125,0,l),
(178,0,l),
(468,580,l),
(553,0,l),
(607,0,l),
(929,697,l),
(875,697,l),
(590,74,l),
(506,661,l),
(460,661,l),
(167,74,l),
(102,697,l),
(49,697,l)
);
}
);
width = 978;
}
);
note = Wgrave;
unicode = 7808;
},
{
glyphname = X;
kernLeft = X;
kernRight = X;
lastChange = "2022-12-26 08:50:41 +0000";
layers = (
{
hints = (
{
horizontal = 1;
place = (-123, 21);
target = up;
type = BottomGhost;
},
{
horizontal = 1;
place = (574, -20);
target = down;
type = TopGhost;
},
{
place = (-77, 439);
place = (-77, 439);
type = Stem;
}
);
layerId = m01;
shapes = (
{
closed = 1;
nodes = (
(425,0,o),
(439,0,qs),
(485,0,l),
(300,352,l),
(602,697,l),
(541,697,l),
(273,388,l),
(120,684,ls),
(112,697,o),
(98,697,qs),
(52,697,l),
(231,352,l),
(-77,0,l),
(-15,0,l),
(258,314,l),
(417,13,ls)
);
}
);
width = 654;
}
);
note = X;
unicode = 88;
},
{
glyphname = Y;
kernLeft = Y;
kernRight = Y;
lastChange = "2022-12-26 08:50:41 +0000";
layers = (
{
hints = (
{
horizontal = 1;
place = (-123, 21);
target = up;
type = BottomGhost;
},
{
horizontal = 1;
place = (574, -20);
target = down;
type = TopGhost;
},
{
place = (181, -71);
place = (181, -71);
type = Stem;
}
);
layerId = m01;
shapes = (
{
closed = 1;
nodes = (
(181,0,l),
(233,0,l),
(280,265,l),
(623,697,l),
(562,697,l),
(262,315,l),
(98,697,l),
(38,697,l),
(228,265,l)
);
}
);
width = 661;
}
);
note = Y;
unicode = 89;
},
{
glyphname = Yacute;
kernLeft = Y;
kernRight = Y;
lastChange = "2022-12-26 08:50:41 +0000";
layers = (
{
hints = (
{
horizontal = 1;
place = (-123, 21);
target = up;
type = BottomGhost;
},
{
horizontal = 1;
place = (574, -20);
target = down;
type = TopGhost;
},
{
horizontal = 1;
place = (638, 17);
place = (638, 17);
type = Stem;
},
{
place = (181, -71);
place = (181, -71);
type = Stem;
}
);
layerId = m01;
shapes = (
{
closed = 1;
nodes = (
(322,761,l),
(362,761,l),
(507,901,l),
(454,901,l)
);
},
{
closed = 1;
nodes = (
(181,0,l),
(233,0,l),
(280,265,l),
(623,697,l),
(562,697,l),
(262,315,l),
(98,697,l),
(38,697,l),
(228,265,l)
);
}
);
width = 661;
}
);
note = Yacute;
unicode = 221;
},
{
glyphname = Ycircumflex;
kernLeft = Y;
kernRight = Y;
lastChange = "2022-12-26 08:50:41 +0000";
layers = (
{
hints = (
{
horizontal = 1;
place = (-123, 21);
target = up;
type = BottomGhost;
},
{
horizontal = 1;
place = (574, -20);
target = down;
type = TopGhost;
},
{
place = (181, -71);
place = (181, -71);
type = Stem;
}
);
layerId = m01;
shapes = (
{
closed = 1;
nodes = (
(194,755,l),
(238,755,l),
(360,862,l),
(444,755,l),
(487,755,l),
(368,908,l)
);
},
{
closed = 1;
nodes = (
(181,0,l),
(233,0,l),
(280,265,l),
(623,697,l),
(562,697,l),
(262,315,l),
(98,697,l),
(38,697,l),
(228,265,l)
);
}
);
width = 661;
}
);
note = Ycircumflex;
unicode = 374;
},
{
glyphname = Ydieresis;
kernLeft = Y;
kernRight = Y;
lastChange = "2022-12-26 08:50:41 +0000";
layers = (
{
hints = (
{
horizontal = 1;
place = (-123, 21);
target = up;
type = BottomGhost;
},
{
horizontal = 1;
place = (574, -20);
target = down;
type = TopGhost;
},
{
horizontal = 1;
place = (680, -25);
place = (680, -25);
type = Stem;
},
{
place = (92, -66);
place = (92, -66);
type = Stem;
},
{
place = (181, -71);
place = (181, -71);
type = Stem;
},
{
place = (267, -67);
place = (267, -67);
type = Stem;
}
);
layerId = m01;
shapes = (
{
closed = 1;
nodes = (
(234,803,l),
(291,803,l),
(308,901,l),
(251,901,l)
);
},
{
closed = 1;
nodes = (
(409,803,l),
(465,803,l),
(482,901,l),
(426,901,l)
);
},
{
closed = 1;
nodes = (
(181,0,l),
(233,0,l),
(280,265,l),
(623,697,l),
(562,697,l),
(262,315,l),
(98,697,l),
(38,697,l),
(228,265,l)
);
}
);
width = 661;
}
);
note = Ydieresis;
unicode = 376;
},
{
glyphname = uni1EF4;
kernLeft = Y;
kernRight = Y;
lastChange = "2022-12-26 08:50:41 +0000";
layers = (
{
hints = (
{
horizontal = 1;
place = (-296, -26);
place = (-296, -26);
type = Stem;
},
{
horizontal = 1;
place = (-123, 21);
target = up;
type = BottomGhost;
},
{
horizontal = 1;
place = (574, -20);
target = down;
type = TopGhost;
},
{
place = (181, -71);
place = (181, -71);
type = Stem;
},
{
place = (179, -66);
place = (179, -66);
type = Stem;
}
);
layerId = m01;
shapes = (
{
closed = 1;
nodes = (
(181,0,l),
(233,0,l),
(280,265,l),
(623,697,l),
(562,697,l),
(262,315,l),
(98,697,l),
(38,697,l),
(228,265,l)
);
},
{
closed = 1;
nodes = (
(149,-173,l),
(206,-173,l),
(223,-76,l),
(166,-76,l)
);
}
);
width = 661;
}
);
note = uni1EF4;
unicode = 7924;
},
{
glyphname = Ygrave;
kernLeft = Y;
kernRight = Y;
lastChange = "2022-12-26 08:50:41 +0000";
layers = (
{
hints = (
{
horizontal = 1;
place = (-123, 21);
target = up;
type = BottomGhost;
},
{
horizontal = 1;
place = (574, -20);
target = down;
type = TopGhost;
},
{
horizontal = 1;
place = (638, 17);
place = (638, 17);
type = Stem;
},
{
place = (181, -71);
place = (181, -71);
type = Stem;
}
);
layerId = m01;
shapes = (
{
closed = 1;
nodes = (
(321,761,l),
(361,761,l),
(282,901,l),
(229,901,l)
);
},
{
closed = 1;
nodes = (
(181,0,l),
(233,0,l),
(280,265,l),
(623,697,l),
(562,697,l),
(262,315,l),
(98,697,l),
(38,697,l),
(228,265,l)
);
}
);
width = 661;
}
);
note = Ygrave;
unicode = 7922;
},
{
glyphname = uni1EF6;
kernLeft = Y;
kernRight = Y;
lastChange = "2022-12-26 08:50:41 +0000";
layers = (
{
hints = (
{
horizontal = 1;
place = (-123, 21);
target = up;
type = BottomGhost;
},
{
horizontal = 1;
place = (574, -20);
target = down;
type = TopGhost;
},
{
horizontal = 1;
place = (769, -93);
place = (769, -93);
type = Stem;
},
{
place = (181, -71);
place = (181, -71);
type = Stem;
},
{
place = (279, -87);
place = (279, -87);
type = Stem;
}
);
layerId = m01;
shapes = (
{
closed = 1;
nodes = (
(333,736,l),
(383,747,o),
(448,756,o),
(461,825,cs),
(472,888,o),
(419,922,o),
(343,922,cs),
(328,922,l),
(322,892,l),
(337,892,ls),
(388,892,o),
(433,874,o),
(425,826,cs),
(417,780,o),
(369,773,o),
(329,766,c)
);
},
{
closed = 1;
nodes = (
(181,0,l),
(233,0,l),
(280,265,l),
(623,697,l),
(562,697,l),
(262,315,l),
(98,697,l),
(38,697,l),
(228,265,l)
);
}
);
width = 661;
}
);
note = uni1EF6;
unicode = 7926;
},
{
glyphname = uni1EF8;
kernLeft = Y;
kernRight = Y;
lastChange = "2022-12-26 08:50:41 +0000";
layers = (
{
hints = (
{
horizontal = 1;
place = (-123, 21);
target = up;
type = BottomGhost;
},
{
horizontal = 1;
place = (574, -20);
target = down;
type = TopGhost;
},
{
horizontal = 1;
place = (657, -90);
place = (657, -90);
type = Stem;
},
{
horizontal = 1;
place = (750, -91);
place = (750, -91);
type = Stem;
},
{
place = (52, -93);
place = (52, -93);
type = Stem;
},
{
place = (181, -71);
place = (181, -71);
type = Stem;
},
{
place = (331, -91);
place = (331, -91);
type = Stem;
}
);
layerId = m01;
shapes = (
{
closed = 1;
nodes = (
(467,780,o),
(509,827,o),
(522,901,c),
(490,901,l),
(480,847,o),
(451,813,o),
(422,813,cs),
(360,813,o),
(377,905,o),
(300,905,cs),
(246,905,o),
(204,863,o),
(191,790,c),
(221,790,l),
(231,842,o),
(258,873,o),
(293,873,cs),
(352,873,o),
(332,780,o),
(417,780,cs)
);
},
{
closed = 1;
nodes = (
(181,0,l),
(233,0,l),
(280,265,l),
(623,697,l),
(562,697,l),
(262,315,l),
(98,697,l),
(38,697,l),
(228,265,l)
);
}
);
width = 661;
}
);
note = uni1EF8;
unicode = 7928;
},
{
glyphname = Z;
kernLeft = Z;
kernRight = Z;
lastChange = "2022-12-26 08:50:41 +0000";
layers = (
{
hints = (
{
horizontal = 1;
place = (-123, -76);
place = (-123, -76);
type = Stem;
},
{
horizontal = 1;
place = (527, -76);
place = (527, -76);
type = Stem;
},
{
place = (-73, 422);
place = (-73, 422);
type = Stem;
}
);
layerId = m01;
shapes = (
{
closed = 1;
nodes = (
(478,47,o),
(463,47,qs),
(0,47,l),
(588,655,l),
(595,697,l),
(73,697,l),
(65,650,l),
(523,650,l),
(-66,41,l),
(-73,0,l),
(470,0,l),
(476,32,ls)
);
}
);
width = 650;
}
);
note = Z;
unicode = 90;
},
{
glyphname = Zacute;
kernLeft = Z;
kernRight = Z;
lastChange = "2022-12-26 08:50:41 +0000";
layers = (
{
hints = (
{
horizontal = 1;
place = (-123, -76);
place = (-123, -76);
type = Stem;
},
{
horizontal = 1;
place = (527, -76);
place = (527, -76);
type = Stem;
},
{
horizontal = 1;
place = (638, 17);
place = (638, 17);
type = Stem;
},
{
place = (-73, 422);
place = (-73, 422);
type = Stem;
}
);
layerId = m01;
shapes = (
{
closed = 1;
nodes = (
(501,901,l),
(448,901,l),
(316,761,l),
(356,761,l)
);
},
{
closed = 1;
nodes = (
(595,697,l),
(73,697,l),
(65,650,l),
(523,650,l),
(-66,41,l),
(-73,0,l),
(470,0,l),
(478,47,l),
(0,47,l),
(588,655,l)
);
}
);
width = 650;
}
);
note = Zacute;
unicode = 377;
},
{
glyphname = Zcaron;
kernLeft = Z;
kernRight = Z;
lastChange = "2022-12-26 08:50:41 +0000";
layers = (
{
hints = (
{
horizontal = 1;
place = (-123, -76);
place = (-123, -76);
type = Stem;
},
{
horizontal = 1;
place = (527, -76);
place = (527, -76);
type = Stem;
},
{
place = (-73, 422);
place = (-73, 422);
type = Stem;
}
);
layerId = m01;
shapes = (
{
closed = 1;
nodes = (
(507,901,l),
(464,901,l),
(342,796,l),
(258,901,l),
(214,901,l),
(335,752,l)
);
},
{
closed = 1;
nodes = (
(595,697,l),
(73,697,l),
(65,650,l),
(523,650,l),
(-66,41,l),
(-73,0,l),
(470,0,l),
(478,47,l),
(0,47,l),
(588,655,l)
);
}
);
width = 650;
}
);
note = Zcaron;
unicode = 381;
},
{
glyphname = Zdotaccent;
kernLeft = Z;
kernRight = Z;
lastChange = "2022-12-26 08:50:41 +0000";
layers = (
{
hints = (
{
horizontal = 1;
place = (-123, -76);
place = (-123, -76);
type = Stem;
},
{
horizontal = 1;
place = (527, -76);
place = (527, -76);
type = Stem;
},
{
horizontal = 1;
place = (680, -25);
place = (680, -25);
type = Stem;
},
{
place = (174, -66);
place = (174, -66);
type = Stem;
}
);
layerId = m01;
shapes = (
{
closed = 1;
nodes = (
(390,901,l),
(333,901,l),
(316,803,l),
(373,803,l)
);
},
{
closed = 1;
nodes = (
(595,697,l),
(73,697,l),
(65,650,l),
(523,650,l),
(-66,41,l),
(-73,0,l),
(470,0,l),
(478,47,l),
(0,47,l),
(588,655,l)
);
}
);
width = 650;
}
);
note = Zdotaccent;
unicode = 379;
},
{
glyphname = uni1EB6.ss03;
kernLeft = A;
kernRight = A;
lastChange = "2022-12-26 08:50:41 +0000";
layers = (
{
hints = (
{
horizontal = 1;
place = (-289, -39);
place = (-289, -39);
type = Stem;
},
{
horizontal = 1;
place = (-123, 21);
target = up;
type = BottomGhost;
},
{
horizontal = 1;
place = (73, -79);
place = (73, -79);
type = Stem;
},
{
horizontal = 1;
place = (574, -20);
target = down;
type = TopGhost;
},
{
horizontal = 1;
place = (648, -92);
place = (648, -92);
type = Stem;
},
{
place = (48, -86);
place = (48, -86);
type = Stem;
},
{
place = (310, -87);
place = (310, -87);
type = Stem;
},
{
horizontal = 1;
place = (505, -54);
place = (505, -54);
type = Stem;
},
{
place = (155, -39);
place = (155, -39);
type = Stem;
}
);
layerId = m01;
shapes = (
{
closed = 1;
nodes = (
(429,771,o),
(490,815,o),
(505,901,c),
(469,901,l),
(458,837,o),
(411,802,o),
(339,802,cs),
(269,802,o),
(233,836,o),
(244,901,c),
(207,901,l),
(192,817,o),
(235,771,o),
(333,771,cs)
);
},
{
closed = 1;
nodes = (
(473,0,l),
(342,697,l),
(297,697,l),
(-79,0,l),
(-23,0,l),
(81,196,l),
(383,196,l),
(417,0,l)
);
},
{
closed = 1;
nodes = (
(103,240,l),
(308,628,l),
(375,240,l)
);
},
{
closed = 1;
nodes = (
(159,-82,o),
(137,-100,o),
(133,-124,cs),
(129,-147,o),
(145,-166,o),
(168,-166,cs),
(191,-166,o),
(213,-147,o),
(217,-124,cs),
(221,-100,o),
(206,-82,o),
(183,-82,cs)
);
}
);
width = 640;
}
);
note = uni1EB6.ss03;
},
{
glyphname = uni1EAC.ss03;
kernLeft = A;
kernRight = A;
lastChange = "2022-12-26 08:50:41 +0000";
layers = (
{
hints = (
{
horizontal = 1;
place = (-289, -39);
place = (-289, -39);
type = Stem;
},
{
horizontal = 1;
place = (-123, 21);
target = up;
type = BottomGhost;
},
{
horizontal = 1;
place = (73, -79);
place = (73, -79);
type = Stem;
},
{
horizontal = 1;
place = (574, -20);
target = down;
type = TopGhost;
},
{
place = (155, -39);
place = (155, -39);
type = Stem;
},
{
horizontal = 1;
place = (505, -54);
place = (505, -54);
type = Stem;
}
);
layerId = m01;
shapes = (
{
closed = 1;
nodes = (
(349,862,l),
(433,755,l),
(476,755,l),
(357,908,l),
(183,755,l),
(227,755,l)
);
},
{
closed = 1;
nodes = (
(473,0,l),
(342,697,l),
(297,697,l),
(-79,0,l),
(-23,0,l),
(81,196,l),
(383,196,l),
(417,0,l)
);
},
{
closed = 1;
nodes = (
(103,240,l),
(308,628,l),
(375,240,l)
);
},
{
closed = 1;
nodes = (
(159,-82,o),
(137,-100,o),
(133,-124,cs),
(129,-147,o),
(145,-166,o),
(168,-166,cs),
(191,-166,o),
(213,-147,o),
(217,-124,cs),
(221,-100,o),
(206,-82,o),
(183,-82,cs)
);
}
);
width = 640;
}
);
note = uni1EAC.ss03;
},
{
glyphname = Adieresis.ss03;
kernLeft = A;
kernRight = A;
lastChange = "2022-12-26 08:50:41 +0000";
layers = (
{
hints = (
{
horizontal = 1;
place = (-123, 21);
target = up;
type = BottomGhost;
},
{
horizontal = 1;
place = (73, -79);
place = (73, -79);
type = Stem;
},
{
horizontal = 1;
place = (574, -20);
target = down;
type = TopGhost;
},
{
horizontal = 1;
place = (700, -39);
place = (700, -39);
type = Stem;
},
{
place = (65, -39);
place = (65, -39);
type = Stem;
},
{
place = (246, -39);
place = (246, -39);
type = Stem;
},
{
horizontal = 1;
place = (505, -54);
place = (505, -54);
type = Stem;
}
);
layerId = m01;
shapes = (
{
closed = 1;
nodes = (
(275,823,o),
(298,842,o),
(302,865,cs),
(306,889,o),
(290,907,o),
(267,907,cs),
(243,907,o),
(222,889,o),
(218,865,cs),
(214,842,o),
(229,823,o),
(252,823,cs)
);
},
{
closed = 1;
nodes = (
(457,823,o),
(479,842,o),
(483,865,cs),
(487,889,o),
(472,907,o),
(448,907,cs),
(424,907,o),
(403,889,o),
(399,865,cs),
(395,842,o),
(410,823,o),
(433,823,cs)
);
},
{
closed = 1;
nodes = (
(417,0,l),
(473,0,l),
(342,697,l),
(297,697,l),
(-79,0,l),
(-23,0,l),
(81,196,l),
(383,196,l)
);
},
{
closed = 1;
nodes = (
(103,240,l),
(308,628,l),
(375,240,l)
);
}
);
width = 640;
}
);
note = Adieresis.ss03;
},
{
glyphname = uni1EA0.ss03;
kernLeft = A;
kernRight = A;
lastChange = "2022-12-26 08:50:41 +0000";
layers = (
{
hints = (
{
horizontal = 1;
place = (-289, -39);
place = (-289, -39);
type = Stem;
},
{
horizontal = 1;
place = (-123, 21);
target = up;
type = BottomGhost;
},
{
horizontal = 1;
place = (73, -79);
place = (73, -79);
type = Stem;
},
{
horizontal = 1;
place = (574, -20);
target = down;
type = TopGhost;
},
{
place = (155, -39);
place = (155, -39);
type = Stem;
},
{
horizontal = 1;
place = (505, -54);
place = (505, -54);
type = Stem;
}
);
layerId = m01;
shapes = (
{
closed = 1;
nodes = (
(473,0,l),
(342,697,l),
(297,697,l),
(-79,0,l),
(-23,0,l),
(81,196,l),
(383,196,l),
(417,0,l)
);
},
{
closed = 1;
nodes = (
(103,240,l),
(308,628,l),
(375,240,l)
);
},
{
closed = 1;
nodes = (
(159,-82,o),
(137,-100,o),
(133,-124,cs),
(129,-147,o),
(145,-166,o),
(168,-166,cs),
(191,-166,o),
(213,-147,o),
(217,-124,cs),
(221,-100,o),
(206,-82,o),
(183,-82,cs)
);
}
);
width = 640;
}
);
note = uni1EA0.ss03;
},
{
glyphname = Cdotaccent.ss03;
kernLeft = C;
kernRight = C;
lastChange = "2022-12-26 08:50:41 +0000";
layers = (
{
hints = (
{
horizontal = 1;
place = (-131, -75);
place = (-131, -75);
type = Stem;
},
{
horizontal = 1;
place = (534, -75);
place = (534, -75);
type = Stem;
},
{
horizontal = 1;
place = (700, -39);
place = (700, -39);
type = Stem;
},
{
place = (-48, -73);
place = (-48, -73);
type = Stem;
},
{
place = (228, -39);
place = (228, -39);
type = Stem;
}
);
layerId = m01;
shapes = (
{
closed = 1;
nodes = (
(438,823,o),
(461,842,o),
(465,865,cs),
(469,889,o),
(453,907,o),
(430,907,cs),
(406,907,o),
(385,889,o),
(381,865,cs),
(377,842,o),
(392,823,o),
(415,823,cs)
);
},
{
closed = 1;
nodes = (
(395,-8,o),
(505,56,o),
(580,181,c),
(534,199,l),
(474,94,o),
(382,40,o),
(268,40,cs),
(103,40,o),
(29,153,o),
(64,350,cs),
(99,547,o),
(213,657,o),
(383,657,cs),
(499,657,o),
(567,607,o),
(587,501,c),
(638,519,l),
(612,644,o),
(529,705,o),
(391,705,cs),
(192,705,o),
(53,575,o),
(14,350,cs),
(-26,125,o),
(65,-8,o),
(260,-8,cs)
);
}
);
width = 727;
}
);
note = Cdotaccent.ss03;
},
{
glyphname = uni1EC6.ss03;
lastChange = "2022-12-26 08:50:41 +0000";
layers = (
{
hints = (
{
horizontal = 1;
place = (-289, -39);
place = (-289, -39);
type = Stem;
},
{
horizontal = 1;
place = (-123, -76);
place = (-123, -76);
type = Stem;
},
{
horizontal = 1;
place = (207, -75);
place = (207, -75);
type = Stem;
},
{
horizontal = 1;
place = (527, -76);
place = (527, -76);
type = Stem;
},
{
place = (-4, -72);
place = (-4, -72);
type = Stem;
},
{
place = (181, -39);
place = (181, -39);
type = Stem;
}
);
layerId = m01;
shapes = (
{
closed = 1;
nodes = (
(209,755,l),
(253,755,l),
(375,862,l),
(459,755,l),
(502,755,l),
(383,908,l)
);
},
{
closed = 1;
nodes = (
(-4,0,l),
(450,0,l),
(458,47,l),
(55,47,l),
(105,330,l),
(464,330,l),
(473,378,l),
(114,378,l),
(162,650,l),
(565,650,l),
(573,697,l),
(119,697,l)
);
},
{
closed = 1;
nodes = (
(217,-166,o),
(239,-147,o),
(243,-124,cs),
(247,-100,o),
(232,-82,o),
(209,-82,cs),
(185,-82,o),
(163,-100,o),
(159,-124,cs),
(155,-147,o),
(171,-166,o),
(194,-166,cs)
);
}
);
width = 634;
}
);
note = uni1EC6.ss03;
},
{
glyphname = Edieresis.ss03;
lastChange = "2022-12-26 08:50:41 +0000";
layers = (
{
hints = (
{
horizontal = 1;
place = (-123, -76);
place = (-123, -76);
type = Stem;
},
{
horizontal = 1;
place = (207, -75);
place = (207, -75);
type = Stem;
},
{
horizontal = 1;
place = (527, -76);
place = (527, -76);
type = Stem;
},
{
horizontal = 1;
place = (700, -39);
place = (700, -39);
type = Stem;
},
{
place = (-4, -72);
place = (-4, -72);
type = Stem;
},
{
place = (90, -39);
place = (90, -39);
type = Stem;
},
{
place = (271, -39);
place = (271, -39);
type = Stem;
}
);
layerId = m01;
shapes = (
{
closed = 1;
nodes = (
(300,823,o),
(323,842,o),
(327,865,cs),
(331,889,o),
(315,907,o),
(292,907,cs),
(268,907,o),
(247,889,o),
(243,865,cs),
(239,842,o),
(254,823,o),
(277,823,cs)
);
},
{
closed = 1;
nodes = (
(482,823,o),
(504,842,o),
(508,865,cs),
(512,889,o),
(497,907,o),
(473,907,cs),
(449,907,o),
(428,889,o),
(424,865,cs),
(420,842,o),
(435,823,o),
(458,823,cs)
);
},
{
closed = 1;
nodes = (
(-4,0,l),
(450,0,l),
(458,47,l),
(55,47,l),
(105,330,l),
(464,330,l),
(473,378,l),
(114,378,l),
(162,650,l),
(565,650,l),
(573,697,l),
(119,697,l)
);
}
);
width = 634;
}
);
note = Edieresis.ss03;
},
{
glyphname = Edotaccent.ss03;
lastChange = "2022-12-26 08:50:41 +0000";
layers = (
{
hints = (
{
horizontal = 1;
place = (-123, -76);
place = (-123, -76);
type = Stem;
},
{
horizontal = 1;
place = (207, -75);
place = (207, -75);
type = Stem;
},
{
horizontal = 1;
place = (527, -76);
place = (527, -76);
type = Stem;
},
{
horizontal = 1;
place = (700, -39);
place = (700, -39);
type = Stem;
},
{
place = (-4, -72);
place = (-4, -72);
type = Stem;
},
{
place = (181, -39);
place = (181, -39);
type = Stem;
}
);
layerId = m01;
shapes = (
{
closed = 1;
nodes = (
(391,823,o),
(414,842,o),
(418,865,cs),
(422,889,o),
(406,907,o),
(383,907,cs),
(359,907,o),
(338,889,o),
(334,865,cs),
(330,842,o),
(345,823,o),
(368,823,cs)
);
},
{
closed = 1;
nodes = (
(-4,0,l),
(450,0,l),
(458,47,l),
(55,47,l),
(105,330,l),
(464,330,l),
(473,378,l),
(114,378,l),
(162,650,l),
(565,650,l),
(573,697,l),
(119,697,l)
);
}
);
width = 634;
}
);
note = Edotaccent.ss03;
},
{
glyphname = uni1EB8.ss03;
lastChange = "2022-12-26 08:50:41 +0000";
layers = (
{
hints = (
{
horizontal = 1;
place = (-289, -39);
place = (-289, -39);
type = Stem;
},
{
horizontal = 1;
place = (-123, -76);
place = (-123, -76);
type = Stem;
},
{
horizontal = 1;
place = (207, -75);
place = (207, -75);
type = Stem;
},
{
horizontal = 1;
place = (527, -76);
place = (527, -76);
type = Stem;
},
{
place = (-4, -72);
place = (-4, -72);
type = Stem;
},
{
place = (181, -39);
place = (181, -39);
type = Stem;
}
);
layerId = m01;
shapes = (
{
closed = 1;
nodes = (
(-4,0,l),
(450,0,l),
(458,47,l),
(55,47,l),
(105,330,l),
(464,330,l),
(473,378,l),
(114,378,l),
(162,650,l),
(565,650,l),
(573,697,l),
(119,697,l)
);
},
{
closed = 1;
nodes = (
(217,-166,o),
(239,-147,o),
(243,-124,cs),
(247,-100,o),
(232,-82,o),
(209,-82,cs),
(185,-82,o),
(163,-100,o),
(159,-124,cs),
(155,-147,o),
(171,-166,o),
(194,-166,cs)
);
}
);
width = 634;
}
);
note = uni1EB8.ss03;
},
{
glyphname = Gdotaccent.ss03;
kernRight = G;
lastChange = "2022-12-26 08:50:41 +0000";
layers = (
{
hints = (
{
horizontal = 1;
place = (-131, -75);
place = (-131, -75);
type = Stem;
},
{
horizontal = 1;
place = (189, -81);
place = (189, -81);
type = Stem;
},
{
horizontal = 1;
place = (534, -75);
place = (534, -75);
type = Stem;
},
{
horizontal = 1;
place = (700, -39);
place = (700, -39);
type = Stem;
},
{
place = (-48, -73);
place = (-48, -73);
type = Stem;
},
{
place = (219, -39);
place = (219, -39);
type = Stem;
},
{
place = (498, -74);
place = (498, -74);
type = Stem;
},
{
horizontal = 1;
place = (-123, 21);
target = up;
type = BottomGhost;
},
{
place = (502, -77);
place = (502, -77);
type = Stem;
}
);
layerId = m01;
shapes = (
{
closed = 1;
nodes = (
(429,823,o),
(452,842,o),
(456,865,cs),
(460,889,o),
(444,907,o),
(421,907,cs),
(397,907,o),
(376,889,o),
(372,865,cs),
(368,842,o),
(383,823,o),
(406,823,cs)
);
},
{
closed = 1;
nodes = (
(388,354,l),
(380,312,l),
(553,312,l),
(546,271,ls),
(517,105,o),
(391,40,o),
(268,40,cs),
(86,40,o),
(33,177,o),
(64,352,cs),
(97,540,o),
(208,657,o),
(384,657,cs),
(505,657,o),
(567,603,o),
(587,501,c),
(638,519,l),
(613,639,o),
(535,705,o),
(392,705,cs),
(184,705,o),
(51,563,o),
(14,350,cs),
(-24,137,o),
(59,-8,o),
(257,-8,cs),
(369,-8,o),
(471,39,o),
(521,132,c),
(505,0,l),
(547,0,l),
(610,354,l)
);
}
);
width = 764;
}
);
note = Gdotaccent.ss03;
},
{
glyphname = Idieresis.ss03;
lastChange = "2022-12-26 08:50:41 +0000";
layers = (
{
hints = (
{
horizontal = 1;
place = (-123, 21);
target = up;
type = BottomGhost;
},
{
horizontal = 1;
place = (574, -20);
target = down;
type = TopGhost;
},
{
horizontal = 1;
place = (700, -39);
place = (700, -39);
type = Stem;
},
{
place = (-111, -39);
place = (-111, -39);
type = Stem;
},
{
place = (-4, -72);
place = (-4, -72);
type = Stem;
},
{
place = (70, -39);
place = (70, -39);
type = Stem;
}
);
layerId = m01;
shapes = (
{
closed = 1;
nodes = (
(99,823,o),
(122,842,o),
(126,865,cs),
(130,889,o),
(114,907,o),
(91,907,cs),
(67,907,o),
(46,889,o),
(42,865,cs),
(38,842,o),
(53,823,o),
(76,823,cs)
);
},
{
closed = 1;
nodes = (
(281,823,o),
(303,842,o),
(307,865,cs),
(311,889,o),
(296,907,o),
(272,907,cs),
(248,907,o),
(227,889,o),
(223,865,cs),
(219,842,o),
(234,823,o),
(257,823,cs)
);
},
{
closed = 1;
nodes = (
(-4,0,l),
(47,0,l),
(170,697,l),
(119,697,l)
);
}
);
width = 289;
}
);
note = Idieresis.ss03;
},
{
glyphname = uni1ECA.ss03;
lastChange = "2022-12-26 08:50:41 +0000";
layers = (
{
hints = (
{
horizontal = 1;
place = (-289, -39);
place = (-289, -39);
type = Stem;
},
{
horizontal = 1;
place = (-123, 21);
target = up;
type = BottomGhost;
},
{
horizontal = 1;
place = (574, -20);
target = down;
type = TopGhost;
},
{
place = (-4, -72);
place = (-4, -72);
type = Stem;
},
{
place = (-20, -39);
place = (-20, -39);
type = Stem;
}
);
layerId = m01;
shapes = (
{
closed = 1;
nodes = (
(-4,0,l),
(47,0,l),
(170,697,l),
(119,697,l)
);
},
{
closed = 1;
nodes = (
(16,-166,o),
(38,-147,o),
(42,-124,cs),
(46,-100,o),
(31,-82,o),
(8,-82,cs),
(-16,-82,o),
(-38,-100,o),
(-42,-124,cs),
(-46,-147,o),
(-30,-166,o),
(-7,-166,cs)
);
}
);
width = 289;
}
);
note = uni1ECA.ss03;
},
{
glyphname = uni1ED8.ss03;
lastChange = "2022-12-26 08:50:41 +0000";
layers = (
{
hints = (
{
horizontal = 1;
place = (-289, -39);
place = (-289, -39);
type = Stem;
},
{
horizontal = 1;
place = (-131, -75);
place = (-131, -75);
type = Stem;
},
{
horizontal = 1;
place = (534, -75);
place = (534, -75);
type = Stem;
},
{
place = (-50, -72);
place = (-50, -72);
type = Stem;
},
{
place = (222, -39);
place = (222, -39);
type = Stem;
},
{
place = (527, -72);
place = (527, -72);
type = Stem;
}
);
layerId = m01;
shapes = (
{
closed = 1;
nodes = (
(250,755,l),
(294,755,l),
(416,862,l),
(500,755,l),
(543,755,l),
(424,908,l)
);
},
{
closed = 1;
nodes = (
(452,-8,o),
(602,133,o),
(639,348,cs),
(677,563,o),
(576,705,o),
(388,705,cs),
(199,705,o),
(50,564,o),
(11,348,cs),
(-26,133,o),
(74,-8,o),
(263,-8,cs)
);
},
{
closed = 1;
nodes = (
(110,40,o),
(29,160,o),
(62,348,cs),
(96,537,o),
(219,657,o),
(380,657,cs),
(540,657,o),
(622,537,o),
(588,348,cs),
(555,160,o),
(431,40,o),
(271,40,cs)
);
},
{
closed = 1;
nodes = (
(258,-166,o),
(280,-147,o),
(284,-124,cs),
(288,-100,o),
(273,-82,o),
(250,-82,cs),
(226,-82,o),
(204,-100,o),
(200,-124,cs),
(196,-147,o),
(212,-166,o),
(235,-166,cs)
);
}
);
width = 774;
}
);
note = uni1ED8.ss03;
},
{
glyphname = Odieresis.ss03;
lastChange = "2022-12-26 08:50:41 +0000";
layers = (
{
hints = (
{
horizontal = 1;
place = (-131, -75);
place = (-131, -75);
type = Stem;
},
{
horizontal = 1;
place = (534, -75);
place = (534, -75);
type = Stem;
},
{
horizontal = 1;
place = (700, -39);
place = (700, -39);
type = Stem;
},
{
place = (-50, -72);
place = (-50, -72);
type = Stem;
},
{
place = (132, -39);
place = (132, -39);
type = Stem;
},
{
place = (313, -39);
place = (313, -39);
type = Stem;
},
{
place = (527, -72);
place = (527, -72);
type = Stem;
}
);
layerId = m01;
shapes = (
{
closed = 1;
nodes = (
(342,823,o),
(365,842,o),
(369,865,cs),
(373,889,o),
(357,907,o),
(334,907,cs),
(310,907,o),
(289,889,o),
(285,865,cs),
(281,842,o),
(296,823,o),
(319,823,cs)
);
},
{
closed = 1;
nodes = (
(524,823,o),
(546,842,o),
(550,865,cs),
(554,889,o),
(539,907,o),
(515,907,cs),
(491,907,o),
(470,889,o),
(466,865,cs),
(462,842,o),
(477,823,o),
(500,823,cs)
);
},
{
closed = 1;
nodes = (
(452,-8,o),
(602,133,o),
(639,348,cs),
(677,563,o),
(576,705,o),
(388,705,cs),
(199,705,o),
(50,564,o),
(11,348,cs),
(-26,133,o),
(74,-8,o),
(263,-8,cs)
);
},
{
closed = 1;
nodes = (
(110,40,o),
(29,160,o),
(62,348,cs),
(96,537,o),
(219,657,o),
(380,657,cs),
(540,657,o),
(622,537,o),
(588,348,cs),
(555,160,o),
(431,40,o),
(271,40,cs)
);
}
);
width = 774;
}
);
note = Odieresis.ss03;
},
{
glyphname = uni1ECC.ss03;
lastChange = "2022-12-26 08:50:41 +0000";
layers = (
{
hints = (
{
horizontal = 1;
place = (-289, -39);
place = (-289, -39);
type = Stem;
},
{
horizontal = 1;
place = (-131, -75);
place = (-131, -75);
type = Stem;
},
{
horizontal = 1;
place = (534, -75);
place = (534, -75);
type = Stem;
},
{
place = (-50, -72);
place = (-50, -72);
type = Stem;
},
{
place = (222, -39);
place = (222, -39);
type = Stem;
},
{
place = (527, -72);
place = (527, -72);
type = Stem;
}
);
layerId = m01;
shapes = (
{
closed = 1;
nodes = (
(452,-8,o),
(602,133,o),
(639,348,cs),
(677,563,o),
(576,705,o),
(388,705,cs),
(199,705,o),
(50,564,o),
(11,348,cs),
(-26,133,o),
(74,-8,o),
(263,-8,cs)
);
},
{
closed = 1;
nodes = (
(110,40,o),
(29,160,o),
(62,348,cs),
(96,537,o),
(219,657,o),
(380,657,cs),
(540,657,o),
(622,537,o),
(588,348,cs),
(555,160,o),
(431,40,o),
(271,40,cs)
);
},
{
closed = 1;
nodes = (
(258,-166,o),
(280,-147,o),
(284,-124,cs),
(288,-100,o),
(273,-82,o),
(250,-82,cs),
(226,-82,o),
(204,-100,o),
(200,-124,cs),
(196,-147,o),
(212,-166,o),
(235,-166,cs)
);
}
);
width = 774;
}
);
note = uni1ECC.ss03;
},
{
glyphname = uni1EE2.ss03;
lastChange = "2022-12-26 08:50:41 +0000";
layers = (
{
hints = (
{
horizontal = 1;
place = (-289, -39);
place = (-289, -39);
type = Stem;
},
{
horizontal = 1;
place = (-131, -75);
place = (-131, -75);
type = Stem;
},
{
horizontal = 1;
place = (377, -20);
target = down;
type = TopGhost;
},
{
horizontal = 1;
place = (574, -20);
target = down;
type = TopGhost;
},
{
place = (-50, -72);
place = (-50, -72);
type = Stem;
},
{
place = (527, -72);
place = (527, -72);
type = Stem;
},
{
place = (615, -84);
place = (615, -84);
type = Stem;
},
{
horizontal = 1;
place = (534, -75);
place = (534, -75);
type = Stem;
},
{
place = (222, -39);
place = (222, -39);
type = Stem;
}
);
layerId = m01;
shapes = (
{
closed = 1;
nodes = (
(738,697,l),
(728,642,ls),
(718,581,o),
(688,541,o),
(633,534,c),
(601,641,o),
(514,705,o),
(388,705,cs),
(199,705,o),
(50,564,o),
(11,348,cs),
(-26,133,o),
(74,-8,o),
(263,-8,cs),
(452,-8,o),
(602,133,o),
(639,348,cs),
(649,404,o),
(649,455,o),
(641,500,c),
(713,512,o),
(754,565,o),
(768,646,cs),
(777,697,l)
);
},
{
closed = 1;
nodes = (
(110,40,o),
(29,160,o),
(62,348,cs),
(96,537,o),
(219,657,o),
(380,657,cs),
(540,657,o),
(622,537,o),
(588,348,cs),
(555,160,o),
(431,40,o),
(271,40,cs)
);
},
{
closed = 1;
nodes = (
(226,-82,o),
(204,-100,o),
(200,-124,cs),
(196,-147,o),
(212,-166,o),
(235,-166,cs),
(258,-166,o),
(280,-147,o),
(284,-124,cs),
(288,-100,o),
(273,-82,o),
(250,-82,cs)
);
}
);
width = 774;
}
);
note = uni1EE2.ss03;
},
{
glyphname = Udieresis.ss03;
kernLeft = U;
lastChange = "2022-12-26 08:50:41 +0000";
layers = (
{
hints = (
{
horizontal = 1;
place = (-131, -73);
place = (-131, -73);
type = Stem;
},
{
horizontal = 1;
place = (574, -20);
target = down;
type = TopGhost;
},
{
horizontal = 1;
place = (700, -39);
place = (700, -39);
type = Stem;
},
{
place = (-18, -73);
place = (-18, -73);
type = Stem;
},
{
place = (94, -39);
place = (94, -39);
type = Stem;
},
{
place = (275, -39);
place = (275, -39);
type = Stem;
},
{
place = (420, -72);
place = (420, -72);
type = Stem;
}
);
layerId = m01;
shapes = (
{
closed = 1;
nodes = (
(304,823,o),
(327,842,o),
(331,865,cs),
(335,889,o),
(319,907,o),
(296,907,cs),
(272,907,o),
(251,889,o),
(247,865,cs),
(243,842,o),
(258,823,o),
(281,823,cs)
);
},
{
closed = 1;
nodes = (
(486,823,o),
(508,842,o),
(512,865,cs),
(516,889,o),
(501,907,o),
(477,907,cs),
(453,907,o),
(432,889,o),
(428,865,cs),
(424,842,o),
(439,823,o),
(462,823,cs)
);
},
{
closed = 1;
nodes = (
(383,-8,o),
(486,84,o),
(516,257,cs),
(594,697,l),
(543,697,l),
(466,260,ls),
(440,115,o),
(363,42,o),
(233,42,cs),
(105,42,o),
(52,114,o),
(77,257,cs),
(155,697,l),
(105,697,l),
(27,252,ls),
(-3,83,o),
(67,-8,o),
(224,-8,cs)
);
}
);
width = 698;
}
);
note = Udieresis.ss03;
},
{
glyphname = uni01D7.ss03;
kernLeft = U;
lastChange = "2022-12-26 08:50:41 +0000";
layers = (
{
hints = (
{
horizontal = 1;
place = (-131, -73);
place = (-131, -73);
type = Stem;
},
{
horizontal = 1;
place = (574, -20);
target = down;
type = TopGhost;
},
{
horizontal = 1;
place = (700, -39);
place = (700, -39);
type = Stem;
},
{
horizontal = 1;
place = (848, 17);
place = (848, 17);
type = Stem;
},
{
place = (-18, -73);
place = (-18, -73);
type = Stem;
},
{
place = (94, -39);
place = (94, -39);
type = Stem;
},
{
place = (275, -39);
place = (275, -39);
type = Stem;
},
{
place = (420, -72);
place = (420, -72);
type = Stem;
}
);
layerId = m01;
shapes = (
{
closed = 1;
nodes = (
(378,971,l),
(418,971,l),
(563,1111,l),
(510,1111,l)
);
},
{
closed = 1;
nodes = (
(304,823,o),
(327,842,o),
(331,865,cs),
(335,889,o),
(319,907,o),
(296,907,cs),
(272,907,o),
(251,889,o),
(247,865,cs),
(243,842,o),
(258,823,o),
(281,823,cs)
);
},
{
closed = 1;
nodes = (
(486,823,o),
(508,842,o),
(512,865,cs),
(516,889,o),
(501,907,o),
(477,907,cs),
(453,907,o),
(432,889,o),
(428,865,cs),
(424,842,o),
(439,823,o),
(462,823,cs)
);
},
{
closed = 1;
nodes = (
(383,-8,o),
(486,84,o),
(516,257,cs),
(594,697,l),
(543,697,l),
(466,260,ls),
(440,115,o),
(363,42,o),
(233,42,cs),
(105,42,o),
(52,114,o),
(77,257,cs),
(155,697,l),
(105,697,l),
(27,252,ls),
(-3,83,o),
(67,-8,o),
(224,-8,cs)
);
}
);
width = 698;
}
);
note = uni01D7.ss03;
},
{
glyphname = uni01D9.ss03;
kernLeft = U;
lastChange = "2022-12-26 08:50:41 +0000";
layers = (
{
hints = (
{
horizontal = 1;
place = (-131, -73);
place = (-131, -73);
type = Stem;
},
{
horizontal = 1;
place = (574, -20);
target = down;
type = TopGhost;
},
{
horizontal = 1;
place = (700, -39);
place = (700, -39);
type = Stem;
},
{
place = (-18, -73);
place = (-18, -73);
type = Stem;
},
{
place = (94, -39);
place = (94, -39);
type = Stem;
},
{
place = (275, -39);
place = (275, -39);
type = Stem;
},
{
place = (420, -72);
place = (420, -72);
type = Stem;
}
);
layerId = m01;
shapes = (
{
closed = 1;
nodes = (
(397,962,l),
(569,1111,l),
(526,1111,l),
(404,1006,l),
(320,1111,l),
(276,1111,l)
);
},
{
closed = 1;
nodes = (
(304,823,o),
(327,842,o),
(331,865,cs),
(335,889,o),
(319,907,o),
(296,907,cs),
(272,907,o),
(251,889,o),
(247,865,cs),
(243,842,o),
(258,823,o),
(281,823,cs)
);
},
{
closed = 1;
nodes = (
(486,823,o),
(508,842,o),
(512,865,cs),
(516,889,o),
(501,907,o),
(477,907,cs),
(453,907,o),
(432,889,o),
(428,865,cs),
(424,842,o),
(439,823,o),
(462,823,cs)
);
},
{
closed = 1;
nodes = (
(383,-8,o),
(486,84,o),
(516,257,cs),
(594,697,l),
(543,697,l),
(466,260,ls),
(440,115,o),
(363,42,o),
(233,42,cs),
(105,42,o),
(52,114,o),
(77,257,cs),
(155,697,l),
(105,697,l),
(27,252,ls),
(-3,83,o),
(67,-8,o),
(224,-8,cs)
);
}
);
width = 698;
}
);
note = uni01D9.ss03;
},
{
glyphname = uni01DB.ss03;
kernLeft = U;
lastChange = "2022-12-26 08:50:41 +0000";
layers = (
{
hints = (
{
horizontal = 1;
place = (-131, -73);
place = (-131, -73);
type = Stem;
},
{
horizontal = 1;
place = (574, -20);
target = down;
type = TopGhost;
},
{
horizontal = 1;
place = (700, -39);
place = (700, -39);
type = Stem;
},
{
horizontal = 1;
place = (848, 17);
place = (848, 17);
type = Stem;
},
{
place = (-18, -73);
place = (-18, -73);
type = Stem;
},
{
place = (94, -39);
place = (94, -39);
type = Stem;
},
{
place = (275, -39);
place = (275, -39);
type = Stem;
},
{
place = (420, -72);
place = (420, -72);
type = Stem;
}
);
layerId = m01;
shapes = (
{
closed = 1;
nodes = (
(377,971,l),
(417,971,l),
(338,1111,l),
(285,1111,l)
);
},
{
closed = 1;
nodes = (
(304,823,o),
(327,842,o),
(331,865,cs),
(335,889,o),
(319,907,o),
(296,907,cs),
(272,907,o),
(251,889,o),
(247,865,cs),
(243,842,o),
(258,823,o),
(281,823,cs)
);
},
{
closed = 1;
nodes = (
(486,823,o),
(508,842,o),
(512,865,cs),
(516,889,o),
(501,907,o),
(477,907,cs),
(453,907,o),
(432,889,o),
(428,865,cs),
(424,842,o),
(439,823,o),
(462,823,cs)
);
},
{
closed = 1;
nodes = (
(383,-8,o),
(486,84,o),
(516,257,cs),
(594,697,l),
(543,697,l),
(466,260,ls),
(440,115,o),
(363,42,o),
(233,42,cs),
(105,42,o),
(52,114,o),
(77,257,cs),
(155,697,l),
(105,697,l),
(27,252,ls),
(-3,83,o),
(67,-8,o),
(224,-8,cs)
);
}
);
width = 698;
}
);
note = uni01DB.ss03;
},
{
glyphname = uni01D5.ss03;
kernLeft = U;
lastChange = "2022-12-26 08:50:41 +0000";
layers = (
{
hints = (
{
horizontal = 1;
place = (-131, -73);
place = (-131, -73);
type = Stem;
},
{
horizontal = 1;
place = (574, -20);
target = down;
type = TopGhost;
},
{
horizontal = 1;
place = (700, -39);
place = (700, -39);
type = Stem;
},
{
horizontal = 1;
place = (903, -92);
place = (903, -92);
type = Stem;
},
{
place = (-18, -73);
place = (-18, -73);
type = Stem;
},
{
place = (94, -39);
place = (94, -39);
type = Stem;
},
{
place = (275, -39);
place = (275, -39);
type = Stem;
},
{
place = (420, -72);
place = (420, -72);
type = Stem;
}
);
layerId = m01;
shapes = (
{
closed = 1;
nodes = (
(273,1026,l),
(541,1026,l),
(546,1057,l),
(278,1057,l)
);
},
{
closed = 1;
nodes = (
(304,823,o),
(327,842,o),
(331,865,cs),
(335,889,o),
(319,907,o),
(296,907,cs),
(272,907,o),
(251,889,o),
(247,865,cs),
(243,842,o),
(258,823,o),
(281,823,cs)
);
},
{
closed = 1;
nodes = (
(486,823,o),
(508,842,o),
(512,865,cs),
(516,889,o),
(501,907,o),
(477,907,cs),
(453,907,o),
(432,889,o),
(428,865,cs),
(424,842,o),
(439,823,o),
(462,823,cs)
);
},
{
closed = 1;
nodes = (
(383,-8,o),
(486,84,o),
(516,257,cs),
(594,697,l),
(543,697,l),
(466,260,ls),
(440,115,o),
(363,42,o),
(233,42,cs),
(105,42,o),
(52,114,o),
(77,257,cs),
(155,697,l),
(105,697,l),
(27,252,ls),
(-3,83,o),
(67,-8,o),
(224,-8,cs)
);
}
);
width = 698;
}
);
note = uni01D5.ss03;
},
{
glyphname = uni1EE4.ss03;
kernLeft = U;
lastChange = "2022-12-26 08:50:41 +0000";
layers = (
{
hints = (
{
horizontal = 1;
place = (-289, -39);
place = (-289, -39);
type = Stem;
},
{
horizontal = 1;
place = (-131, -73);
place = (-131, -73);
type = Stem;
},
{
horizontal = 1;
place = (574, -20);
target = down;
type = TopGhost;
},
{
place = (-18, -73);
place = (-18, -73);
type = Stem;
},
{
place = (185, -39);
place = (185, -39);
type = Stem;
},
{
place = (420, -72);
place = (420, -72);
type = Stem;
}
);
layerId = m01;
shapes = (
{
closed = 1;
nodes = (
(383,-8,o),
(486,84,o),
(516,257,cs),
(594,697,l),
(543,697,l),
(466,260,ls),
(440,115,o),
(363,42,o),
(233,42,cs),
(105,42,o),
(52,114,o),
(77,257,cs),
(155,697,l),
(105,697,l),
(27,252,ls),
(-3,83,o),
(67,-8,o),
(224,-8,cs)
);
},
{
closed = 1;
nodes = (
(221,-166,o),
(243,-147,o),
(247,-124,cs),
(251,-100,o),
(236,-82,o),
(213,-82,cs),
(189,-82,o),
(167,-100,o),
(163,-124,cs),
(159,-147,o),
(175,-166,o),
(198,-166,cs)
);
}
);
width = 698;
}
);
note = uni1EE4.ss03;
},
{
glyphname = uni1EF0.ss03;
kernLeft = U;
lastChange = "2022-12-26 08:50:41 +0000";
layers = (
{
hints = (
{
horizontal = 1;
place = (-289, -39);
place = (-289, -39);
type = Stem;
},
{
horizontal = 1;
place = (-131, -73);
place = (-131, -73);
type = Stem;
},
{
horizontal = 1;
place = (375, -88);
place = (375, -88);
type = Stem;
},
{
horizontal = 1;
place = (574, -20);
target = down;
type = TopGhost;
},
{
place = (-18, -73);
place = (-18, -73);
type = Stem;
},
{
place = (185, -39);
place = (185, -39);
type = Stem;
},
{
place = (420, -72);
place = (420, -72);
type = Stem;
},
{
place = (558, -84);
place = (558, -84);
type = Stem;
}
);
layerId = m01;
shapes = (
{
closed = 1;
nodes = (
(681,697,l),
(671,642,ls),
(660,577,o),
(627,535,o),
(565,533,c),
(594,697,l),
(543,697,l),
(466,260,ls),
(440,115,o),
(363,42,o),
(233,42,cs),
(105,42,o),
(52,114,o),
(77,257,cs),
(155,697,l),
(105,697,l),
(27,252,ls),
(-3,83,o),
(67,-8,o),
(224,-8,cs),
(383,-8,o),
(486,84,o),
(516,257,cs),
(559,498,l),
(646,500,o),
(695,556,o),
(711,646,cs),
(720,697,l)
);
},
{
closed = 1;
nodes = (
(189,-82,o),
(167,-100,o),
(163,-124,cs),
(159,-147,o),
(175,-166,o),
(198,-166,cs),
(221,-166,o),
(243,-147,o),
(247,-124,cs),
(251,-100,o),
(236,-82,o),
(213,-82,cs)
);
}
);
width = 698;
}
);
note = uni1EF0.ss03;
},
{
glyphname = Wdieresis.ss03;
kernLeft = W;
kernRight = W;
lastChange = "2022-12-26 08:50:41 +0000";
layers = (
{
hints = (
{
horizontal = 1;
place = (-123, 21);
target = up;
type = BottomGhost;
},
{
horizontal = 1;
place = (574, -20);
target = down;
type = TopGhost;
},
{
horizontal = 1;
place = (700, -39);
place = (700, -39);
type = Stem;
},
{
place = (234, -39);
place = (234, -39);
type = Stem;
},
{
place = (415, -39);
place = (415, -39);
type = Stem;
},
{
horizontal = 1;
place = (-123, -49);
place = (-123, -49);
type = Stem;
}
);
layerId = m01;
shapes = (
{
closed = 1;
nodes = (
(444,823,o),
(467,842,o),
(471,865,cs),
(475,889,o),
(459,907,o),
(436,907,cs),
(412,907,o),
(391,889,o),
(387,865,cs),
(383,842,o),
(398,823,o),
(421,823,cs)
);
},
{
closed = 1;
nodes = (
(626,823,o),
(648,842,o),
(652,865,cs),
(656,889,o),
(641,907,o),
(617,907,cs),
(593,907,o),
(572,889,o),
(568,865,cs),
(564,842,o),
(579,823,o),
(602,823,cs)
);
},
{
closed = 1;
nodes = (
(125,0,l),
(178,0,l),
(468,580,l),
(553,0,l),
(607,0,l),
(929,697,l),
(875,697,l),
(590,74,l),
(506,661,l),
(460,661,l),
(167,74,l),
(102,697,l),
(49,697,l)
);
}
);
width = 978;
}
);
note = Wdieresis.ss03;
},
{
glyphname = Ydieresis.ss03;
kernLeft = Y;
kernRight = Y;
lastChange = "2022-12-26 08:50:41 +0000";
layers = (
{
hints = (
{
horizontal = 1;
place = (-123, 21);
target = up;
type = BottomGhost;
},
{
horizontal = 1;
place = (574, -20);
target = down;
type = TopGhost;
},
{
horizontal = 1;
place = (700, -39);
place = (700, -39);
type = Stem;
},
{
place = (75, -39);
place = (75, -39);
type = Stem;
},
{
place = (181, -71);
place = (181, -71);
type = Stem;
},
{
place = (256, -39);
place = (256, -39);
type = Stem;
}
);
layerId = m01;
shapes = (
{
closed = 1;
nodes = (
(285,823,o),
(308,842,o),
(312,865,cs),
(316,889,o),
(300,907,o),
(277,907,cs),
(253,907,o),
(232,889,o),
(228,865,cs),
(224,842,o),
(239,823,o),
(262,823,cs)
);
},
{
closed = 1;
nodes = (
(467,823,o),
(489,842,o),
(493,865,cs),
(497,889,o),
(482,907,o),
(458,907,cs),
(434,907,o),
(413,889,o),
(409,865,cs),
(405,842,o),
(420,823,o),
(443,823,cs)
);
},
{
closed = 1;
nodes = (
(181,0,l),
(233,0,l),
(280,265,l),
(623,697,l),
(562,697,l),
(262,315,l),
(98,697,l),
(38,697,l),
(228,265,l)
);
}
);
width = 661;
}
);
note = Ydieresis.ss03;
},
{
glyphname = uni1EF4.ss03;
kernLeft = Y;
kernRight = Y;
lastChange = "2022-12-26 08:50:41 +0000";
layers = (
{
hints = (
{
horizontal = 1;
place = (-289, -39);
place = (-289, -39);
type = Stem;
},
{
horizontal = 1;
place = (-123, 21);
target = up;
type = BottomGhost;
},
{
horizontal = 1;
place = (574, -20);
target = down;
type = TopGhost;
},
{
place = (181, -71);
place = (181, -71);
type = Stem;
},
{
place = (166, -39);
place = (166, -39);
type = Stem;
}
);
layerId = m01;
shapes = (
{
closed = 1;
nodes = (
(181,0,l),
(233,0,l),
(280,265,l),
(623,697,l),
(562,697,l),
(262,315,l),
(98,697,l),
(38,697,l),
(228,265,l)
);
},
{
closed = 1;
nodes = (
(202,-166,o),
(224,-147,o),
(228,-124,cs),
(232,-100,o),
(217,-82,o),
(194,-82,cs),
(170,-82,o),
(148,-100,o),
(144,-124,cs),
(140,-147,o),
(156,-166,o),
(179,-166,cs)
);
}
);
width = 661;
}
);
note = uni1EF4.ss03;
},
{
glyphname = Zdotaccent.ss03;
kernLeft = Z;
kernRight = Z;
lastChange = "2022-12-26 08:50:41 +0000";
layers = (
{
hints = (
{
horizontal = 1;
place = (-123, -76);
place = (-123, -76);
type = Stem;
},
{
horizontal = 1;
place = (527, -76);
place = (527, -76);
type = Stem;
},
{
horizontal = 1;
place = (700, -39);
place = (700, -39);
type = Stem;
},
{
place = (160, -39);
place = (160, -39);
type = Stem;
}
);
layerId = m01;
shapes = (
{
closed = 1;
nodes = (
(370,823,o),
(393,842,o),
(397,865,cs),
(401,889,o),
(385,907,o),
(362,907,cs),
(338,907,o),
(317,889,o),
(313,865,cs),
(309,842,o),
(324,823,o),
(347,823,cs)
);
},
{
closed = 1;
nodes = (
(595,697,l),
(73,697,l),
(65,650,l),
(523,650,l),
(-66,41,l),
(-73,0,l),
(470,0,l),
(478,47,l),
(0,47,l),
(588,655,l)
);
}
);
width = 650;
}
);
note = Zdotaccent.ss03;
},
{
glyphname = a;
kernLeft = a;
kernRight = a;
lastChange = "2022-12-26 08:50:41 +0000";
layers = (
{
hints = (
{
horizontal = 1;
place = (-130, -82);
place = (-130, -82);
type = Stem;
},
{
horizontal = 1;
place = (117, -82);
place = (117, -82);
type = Stem;
},
{
horizontal = 1;
place = (333, -79);
place = (333, -79);
type = Stem;
},
{
place = (-75, -73);
place = (-75, -73);
type = Stem;
},
{
place = (277, -73);
place = (277, -73);
type = Stem;
},
{
place = (280, -75);
place = (280, -75);
type = Stem;
},
{
horizontal = 1;
place = (-123, 21);
target = up;
type = BottomGhost;
}
);
layerId = m01;
shapes = (
{
closed = 1;
nodes = (
(148,500,o),
(86,473,o),
(26,413,cs),
(19,406,o),
(17,398,o),
(23,392,cs),
(45,371,l),
(97,429,o),
(151,456,o),
(217,456,cs),
(310,456,o),
(348,404,o),
(331,306,cs),
(327,281,l),
(210,281,ls),
(123,281,o),
(68,271,o),
(26,249,cs),
(-15,227,o),
(-42,189,o),
(-50,140,cs),
(-66,48,o),
(-14,-7,o),
(89,-7,cs),
(173,-7,o),
(246,30,o),
(295,95,c),
(286,0,l),
(311,0,l),
(333,34,l),
(381,306,ls),
(403,431,o),
(346,500,o),
(224,500,cs)
);
},
{
closed = 1;
nodes = (
(31,34,o),
(-12,75,o),
(-1,138,cs),
(5,171,o),
(22,197,o),
(49,213,cs),
(79,232,o),
(124,240,o),
(206,240,cs),
(319,240,l),
(316,220,ls),
(296,109,o),
(213,34,o),
(110,34,cs)
);
}
);
width = 531;
}
);
note = a;
unicode = 97;
},
